STARTFONT 2.1
FONT -ADECW-Myungcho-Medium-R-Normal--24-240-75-75-M-240-KSC5601.1987-1
SIZE 24 75 75
FONTBOUNDINGBOX 24 24 0 -6

STARTPROPERTIES 26
FONTNAME_REGISTRY ""
FAMILY_NAME "Myungcho"
FOUNDRY "ADECW"
WEIGHT_NAME "Medium"
SLANT "R"
SETWIDTH_NAME "Normal"
ADD_STYLE_NAME ""
PIXEL_SIZE 24
POINT_SIZE 240
RESOLUTION_X 75
RESOLUTION_Y 75
SPACING "M"
AVERAGE_WIDTH 240
CHARSET_REGISTRY "KCS5601.1987"
CHARSET_ENCODING "1"
DEVICE_FONT_NAME "Myungcho-KCS5601.1987-1"
CHARSET_COLLECTIONS "KCS5601.1987 1"
FULL_NAME "Myungcho KCS5601.1987 1"
COPYRIGHT "Copyright (c) 1988, 1991 Digital Equipment Corporation Asia"
CAP_HEIGHT 17
X_HEIGHT 12
WEIGHT 10
QUAD_WIDTH 24
DEFAULT_CHAR 65278
FONT_DESCENT 6
FONT_ASCENT 18
ENDPROPERTIES

CHARS 8225

STARTCHAR a1a1
ENCODING 41377
SWIDTH 960 0
DWIDTH 24 0
BBX 24 24 0 -6
BITMAP
000000
000000
000000
000000
000000
000000
000000
000000
000000
000000
000000
000000
000000
000000
000000
000000
000000
000000
000000
000000
000000
000000
000000
000000
ENDCHAR

STARTCHAR a1a2
ENCODING 41378
SWIDTH 960 0
DWIDTH 24 0
BBX 24 24 0 -6
BITMAP
000000
000000
000000
000000
000060
000038
00003C
00001C
00001C
000000
000000
000000
000000
000000
000000
000000
000000
000000
000000
000000
000000
000000
000000
000000
ENDCHAR

STARTCHAR a1a3
ENCODING 41379
SWIDTH 960 0
DWIDTH 24 0
BBX 24 24 0 -6
BITMAP
000000
000000
000000
000078
000084
000084
000084
000084
000078
000000
000000
000000
000000
000000
000000
000000
000000
000000
000000
000000
000000
000000
000000
000000
ENDCHAR

STARTCHAR a1a4
ENCODING 41380
SWIDTH 960 0
DWIDTH 24 0
BBX 24 24 0 -6
BITMAP
000000
000000
000000
000000
000000
000000
000000
000000
000000
000000
001800
003C00
003C00
001800
000000
000000
000000
000000
000000
000000
000000
000000
000000
000000
ENDCHAR

STARTCHAR a1a5
ENCODING 41381
SWIDTH 960 0
DWIDTH 24 0
BBX 24 24 0 -6
BITMAP
000000
000000
000000
000000
000000
000000
000000
000000
000000
000000
060060
0F00F0
0F00F0
060060
000000
000000
000000
000000
000000
000000
000000
000000
000000
000000
ENDCHAR

STARTCHAR a1a6
ENCODING 41382
SWIDTH 960 0
DWIDTH 24 0
BBX 24 24 0 -6
BITMAP
000000
000000
000000
000000
000000
000000
000000
000000
000000
000000
181818
3C3C3C
3C3C3C
181818
000000
000000
000000
000000
000000
000000
000000
000000
000000
000000
ENDCHAR

STARTCHAR a1a7
ENCODING 41383
SWIDTH 960 0
DWIDTH 24 0
BBX 24 24 0 -6
BITMAP
000000
000000
000000
060060
0F00F0
0F00F0
060060
000000
000000
000000
000000
000000
000000
000000
000000
000000
000000
000000
000000
000000
000000
000000
000000
000000
ENDCHAR

STARTCHAR a1a8
ENCODING 41384
SWIDTH 960 0
DWIDTH 24 0
BBX 24 24 0 -6
BITMAP
000000
000000
000000
000000
000000
000000
000000
006180
006180
00C300
00C300
008200
018600
010400
010400
020800
020800
000000
000000
000000
000000
000000
000000
000000
ENDCHAR

STARTCHAR a1a9
ENCODING 41385
SWIDTH 960 0
DWIDTH 24 0
BBX 24 24 0 -6
BITMAP
000000
000000
000000
000000
000000
000000
000000
000000
000000
000000
000000
000000
007E00
000000
000000
000000
000000
000000
000000
000000
000000
000000
000000
000000
ENDCHAR

STARTCHAR a1aa
ENCODING 41386
SWIDTH 960 0
DWIDTH 24 0
BBX 24 24 0 -6
BITMAP
000000
000000
000000
000000
000000
000000
000000
000000
000000
000000
000000
000000
1FFFF8
000000
000000
000000
000000
000000
000000
000000
000000
000000
000000
000000
ENDCHAR

STARTCHAR a1ab
ENCODING 41387
SWIDTH 960 0
DWIDTH 24 0
BBX 24 24 0 -6
BITMAP
000000
000000
000000
004200
004200
004200
004200
004200
004200
004200
004200
004200
004200
004200
004200
004200
004200
004200
004200
004200
004200
000000
000000
000000
ENDCHAR

STARTCHAR a1ac
ENCODING 41388
SWIDTH 960 0
DWIDTH 24 0
BBX 24 24 0 -6
BITMAP
000000
000000
000000
100000
180000
0C0000
060000
030000
018000
00C000
006000
003000
001800
000C00
000600
000300
000180
0000C0
000060
000030
000018
000000
000000
000000
ENDCHAR

STARTCHAR a1ad
ENCODING 41389
SWIDTH 960 0
DWIDTH 24 0
BBX 24 24 0 -6
BITMAP
000000
000000
000000
000000
000000
000000
000000
000000
000000
07C00C
1FF00C
18780C
301E18
300FF8
3003E0
000000
000000
000000
000000
000000
000000
000000
000000
000000
ENDCHAR

STARTCHAR a1ae
ENCODING 41390
SWIDTH 960 0
DWIDTH 24 0
BBX 24 24 0 -6
BITMAP
000000
000000
000000
000004
000008
000010
000010
00001C
00001C
00001C
000000
000000
000000
000000
000000
000000
000000
000000
000000
000000
000000
000000
000000
000000
ENDCHAR

STARTCHAR a1af
ENCODING 41391
SWIDTH 960 0
DWIDTH 24 0
BBX 24 24 0 -6
BITMAP
000000
000000
000000
380000
380000
380000
080000
080000
100000
200000
000000
000000
000000
000000
000000
000000
000000
000000
000000
000000
000000
000000
000000
000000
ENDCHAR

STARTCHAR a1b0
ENCODING 41392
SWIDTH 960 0
DWIDTH 24 0
BBX 24 24 0 -6
BITMAP
000000
000000
000000
000208
000208
000410
000410
00071C
00071C
00071C
000000
000000
000000
000000
000000
000000
000000
000000
000000
000000
000000
000000
000000
000000
ENDCHAR

STARTCHAR a1b1
ENCODING 41393
SWIDTH 960 0
DWIDTH 24 0
BBX 24 24 0 -6
BITMAP
000000
000000
000000
38E000
38E000
38E000
082000
082000
104000
104000
000000
000000
000000
000000
000000
000000
000000
000000
000000
000000
000000
000000
000000
000000
ENDCHAR

STARTCHAR a1b2
ENCODING 41394
SWIDTH 960 0
DWIDTH 24 0
BBX 24 24 0 -6
BITMAP
000000
000000
000004
000018
000060
000040
000040
000040
000040
000040
000040
000040
000040
000040
000040
000040
000040
000040
000040
000060
000018
000004
000000
000000
ENDCHAR

STARTCHAR a1b3
ENCODING 41395
SWIDTH 960 0
DWIDTH 24 0
BBX 24 24 0 -6
BITMAP
000000
000000
200000
180000
060000
020000
020000
020000
020000
020000
020000
020000
020000
020000
020000
020000
020000
020000
020000
060000
180000
200000
000000
000000
ENDCHAR

STARTCHAR a1b4
ENCODING 41396
SWIDTH 960 0
DWIDTH 24 0
BBX 24 24 0 -6
BITMAP
000000
000000
000004
000004
000008
000008
000010
000010
000020
000020
000040
000040
000040
000040
000020
000020
000010
000010
000008
000008
000004
000004
000000
000000
ENDCHAR

STARTCHAR a1b5
ENCODING 41397
SWIDTH 960 0
DWIDTH 24 0
BBX 24 24 0 -6
BITMAP
000000
000000
200000
200000
100000
100000
080000
080000
040000
040000
020000
020000
020000
020000
040000
040000
080000
080000
100000
100000
200000
200000
000000
000000
ENDCHAR

STARTCHAR a1b6
ENCODING 41398
SWIDTH 960 0
DWIDTH 24 0
BBX 24 24 0 -6
BITMAP
000000
000000
000044
000044
000088
000088
000110
000110
000220
000220
000440
000440
000440
000440
000220
000220
000110
000110
000088
000088
000044
000044
000000
000000
ENDCHAR

STARTCHAR a1b7
ENCODING 41399
SWIDTH 960 0
DWIDTH 24 0
BBX 24 24 0 -6
BITMAP
000000
000000
220000
220000
110000
110000
088000
088000
044000
044000
022000
022000
022000
022000
044000
044000
088000
088000
110000
110000
220000
220000
000000
000000
ENDCHAR

STARTCHAR a1b8
ENCODING 41400
SWIDTH 960 0
DWIDTH 24 0
BBX 24 24 0 -6
BITMAP
000000
000000
0000FC
000080
000080
000080
000080
000080
000080
000080
000080
000080
000080
000080
000080
000000
000000
000000
000000
000000
000000
000000
000000
000000
ENDCHAR

STARTCHAR a1b9
ENCODING 41401
SWIDTH 960 0
DWIDTH 24 0
BBX 24 24 0 -6
BITMAP
000000
000000
000000
000000
000000
000000
000000
000000
000000
010000
010000
010000
010000
010000
010000
010000
010000
010000
010000
010000
010000
3F0000
000000
000000
ENDCHAR

STARTCHAR a1ba
ENCODING 41402
SWIDTH 960 0
DWIDTH 24 0
BBX 24 24 0 -6
BITMAP
000000
000000
0001FC
000104
00017C
000140
000140
000140
000140
000140
000140
000140
000140
000140
0001C0
000000
000000
000000
000000
000000
000000
000000
000000
000000
ENDCHAR

STARTCHAR a1bb
ENCODING 41403
SWIDTH 960 0
DWIDTH 24 0
BBX 24 24 0 -6
BITMAP
000000
000000
000000
000000
000000
000000
000000
000000
000000
000000
038000
028000
028000
028000
028000
028000
028000
028000
028000
3E8000
208000
3F8000
000000
000000
ENDCHAR

STARTCHAR a1bc
ENCODING 41404
SWIDTH 960 0
DWIDTH 24 0
BBX 24 24 0 -6
BITMAP
000000
000000
0000FC
0000F8
0000F0
0000F0
0000E0
0000E0
0000E0
0000C0
0000C0
0000C0
0000C0
0000C0
0000C0
0000E0
0000E0
0000E0
0000F0
0000F0
0000F8
0000FC
000000
000000
ENDCHAR

STARTCHAR a1bd
ENCODING 41405
SWIDTH 960 0
DWIDTH 24 0
BBX 24 24 0 -6
BITMAP
000000
000000
3F0000
1F0000
0F0000
0F0000
070000
070000
070000
030000
030000
030000
030000
030000
030000
070000
070000
070000
0F0000
0F0000
1F0000
3F0000
000000
000000
ENDCHAR

STARTCHAR a1be
ENCODING 41406
SWIDTH 960 0
DWIDTH 24 0
BBX 24 24 0 -6
BITMAP
000000
000000
000000
000000
001000
001000
001000
001000
001000
0FFFE0
001000
001000
001000
001000
001000
000000
000000
0FFFE0
000000
000000
000000
000000
000000
000000
ENDCHAR

STARTCHAR a1bf
ENCODING 41407
SWIDTH 960 0
DWIDTH 24 0
BBX 24 24 0 -6
BITMAP
000000
000000
000000
000000
000000
000000
020040
010080
008100
004200
002400
001800
001800
002400
004200
008100
010080
020040
000000
000000
000000
000000
000000
000000
ENDCHAR

STARTCHAR a1c0
ENCODING 41408
SWIDTH 960 0
DWIDTH 24 0
BBX 24 24 0 -6
BITMAP
000000
000000
000000
000000
000000
001800
003C00
003C00
001800
000000
000000
0FFFF0
000000
000000
001800
003C00
003C00
001800
000000
000000
000000
000000
000000
000000
ENDCHAR

STARTCHAR a1c1
ENCODING 41409
SWIDTH 960 0
DWIDTH 24 0
BBX 24 24 0 -6
BITMAP
000000
000000
000000
000000
000000
008000
008000
004000
002000
0FFFF0
001000
000800
000800
000400
0FFFF0
000200
000100
000080
000080
000000
000000
000000
000000
000000
ENDCHAR

STARTCHAR a1c2
ENCODING 41410
SWIDTH 960 0
DWIDTH 24 0
BBX 24 24 0 -6
BITMAP
000000
000000
000000
000000
000000
0000E0
000700
003800
01C000
060000
01C000
003800
000700
0000E0
000000
000000
000000
07FFE0
000000
000000
000000
000000
000000
000000
ENDCHAR

STARTCHAR a1c3
ENCODING 41411
SWIDTH 960 0
DWIDTH 24 0
BBX 24 24 0 -6
BITMAP
000000
000000
000000
000000
000000
070000
00E000
001C00
000380
000060
000380
001C00
00E000
070000
000000
000000
000000
07FFE0
000000
000000
000000
000000
000000
000000
ENDCHAR

STARTCHAR a1c4
ENCODING 41412
SWIDTH 960 0
DWIDTH 24 0
BBX 24 24 0 -6
BITMAP
000000
000000
000000
000000
000000
000000
000000
000000
0783C0
084420
102810
101010
101010
102810
084420
0783C0
000000
000000
000000
000000
000000
000000
000000
000000
ENDCHAR

STARTCHAR a1c5
ENCODING 41413
SWIDTH 960 0
DWIDTH 24 0
BBX 24 24 0 -6
BITMAP
000000
000000
000000
000000
000000
001800
003C00
003C00
001800
000000
000000
000000
000000
000000
000000
0300C0
0781E0
0781E0
0300C0
000000
000000
000000
000000
000000
ENDCHAR

STARTCHAR a1c6
ENCODING 41414
SWIDTH 960 0
DWIDTH 24 0
BBX 24 24 0 -6
BITMAP
000000
000000
000000
1E0000
210000
210000
210000
210000
1E0000
000000
000000
000000
000000
000000
000000
000000
000000
000000
000000
000000
000000
000000
000000
000000
ENDCHAR

STARTCHAR a1c7
ENCODING 41415
SWIDTH 960 0
DWIDTH 24 0
BBX 24 24 0 -6
BITMAP
000000
000000
000000
180000
180000
100000
100000
200000
200000
000000
000000
000000
000000
000000
000000
000000
000000
000000
000000
000000
000000
000000
000000
000000
ENDCHAR

STARTCHAR a1c8
ENCODING 41416
SWIDTH 960 0
DWIDTH 24 0
BBX 24 24 0 -6
BITMAP
000000
000000
000000
18C000
18C000
108000
108000
210000
210000
000000
000000
000000
000000
000000
000000
000000
000000
000000
000000
000000
000000
000000
000000
000000
ENDCHAR

STARTCHAR a1c9
ENCODING 41417
SWIDTH 960 0
DWIDTH 24 0
BBX 24 24 0 -6
BITMAP
000000
000000
0E0000
110000
110000
110F90
0E38F0
006030
006010
00C010
00C000
00C000
00C000
00C000
00C000
00C000
00C000
00C010
006030
006020
0038E0
000F80
000000
000000
ENDCHAR

STARTCHAR a1ca
ENCODING 41418
SWIDTH 960 0
DWIDTH 24 0
BBX 24 24 0 -6
BITMAP
000000
000000
003800
004400
004400
004400
003800
000000
001000
003800
003800
004C00
004C00
008600
008600
010300
01FF00
020180
020180
0400C0
0400C0
1F87F0
000000
000000
ENDCHAR

STARTCHAR a1cb
ENCODING 41419
SWIDTH 960 0
DWIDTH 24 0
BBX 24 24 0 -6
BITMAP
000000
000000
000100
000100
000200
003E80
00E780
018580
018880
030800
031000
031000
032000
032000
034000
01C080
018180
00C300
013C00
010000
020000
020000
000000
000000
ENDCHAR

STARTCHAR a1cc
ENCODING 41420
SWIDTH 960 0
DWIDTH 24 0
BBX 24 24 0 -6
BITMAP
000000
000000
000000
001F00
003180
0060C0
0060C0
006000
006000
006000
006000
03FF00
003000
003000
003000
003000
07E060
0C7060
085840
0CCCC0
078780
000000
000000
000000
ENDCHAR

STARTCHAR a1cd
ENCODING 41421
SWIDTH 960 0
DWIDTH 24 0
BBX 24 24 0 -6
BITMAP
000000
000000
000000
0FC1F0
030040
030080
018080
018100
00C100
00C200
07FFC0
007400
003C00
07FFC0
001800
001800
001800
001800
001800
001800
007E00
000000
000000
000000
ENDCHAR

STARTCHAR a1ce
ENCODING 41422
SWIDTH 960 0
DWIDTH 24 0
BBX 24 24 0 -6
BITMAP
000000
000000
000000
001000
003800
005400
009200
011100
021080
041040
001000
001000
001000
007C00
008200
010100
010100
010100
010100
008200
007C00
000000
000000
000000
ENDCHAR

STARTCHAR a1cf
ENCODING 41423
SWIDTH 960 0
DWIDTH 24 0
BBX 24 24 0 -6
BITMAP
000000
000000
000000
007C00
008200
010100
010100
010100
010100
008200
007C00
001000
001000
001000
07FFC0
001000
001000
001000
001000
001000
001000
000000
000000
000000
ENDCHAR

STARTCHAR a1d0
ENCODING 41424
SWIDTH 960 0
DWIDTH 24 0
BBX 24 24 0 -6
BITMAP
000000
000000
000000
000000
000000
000040
000080
000100
000200
000400
000800
001000
002000
004000
008000
010000
020000
07FFC0
000000
000000
000000
000000
000000
000000
ENDCHAR

STARTCHAR a1d1
ENCODING 41425
SWIDTH 960 0
DWIDTH 24 0
BBX 24 24 0 -6
BITMAP
000000
000000
000000
000000
000000
000000
000800
000800
000800
000800
000800
000800
000800
000800
000800
000800
000800
03FFE0
000000
000000
000000
000000
000000
000000
ENDCHAR

STARTCHAR a1d2
ENCODING 41426
SWIDTH 960 0
DWIDTH 24 0
BBX 24 24 0 -6
BITMAP
000000
000000
000000
007E00
018180
020040
040020
080010
080010
000000
000000
000000
000000
000000
000000
000000
000000
000000
000000
000000
000000
000000
000000
000000
ENDCHAR

STARTCHAR a1d3
ENCODING 41427
SWIDTH 960 0
DWIDTH 24 0
BBX 24 24 0 -6
BITMAP
000000
000000
000000
001C00
003E00
004600
008300
000100
000100
000100
001D00
006700
00C300
008200
018200
018600
018400
018C00
01D800
00E000
000000
000000
000000
000000
ENDCHAR

STARTCHAR a1d4
ENCODING 41428
SWIDTH 960 0
DWIDTH 24 0
BBX 24 24 0 -6
BITMAP
000000
000000
000000
000000
0FFFF8
040010
020020
020020
010040
010040
008080
008080
004100
004100
002200
002200
001400
001400
000800
000800
000000
000000
000000
000000
ENDCHAR

STARTCHAR a1d5
ENCODING 41429
SWIDTH 960 0
DWIDTH 24 0
BBX 24 24 0 -6
BITMAP
000000
000000
000000
000000
000000
000000
000000
0FFFF0
000000
000000
000000
000000
0FFFF0
000000
000000
000000
000000
0FFFF0
000000
000000
000000
000000
000000
000000
ENDCHAR

STARTCHAR a1d6
ENCODING 41430
SWIDTH 960 0
DWIDTH 24 0
BBX 24 24 0 -6
BITMAP
000000
000000
000000
038000
038000
038000
000000
000000
000000
0FFFF0
000000
000000
000000
000000
0FFFF0
000000
000000
000000
0001C0
0001C0
0001C0
000000
000000
000000
ENDCHAR

STARTCHAR a1d7
ENCODING 41431
SWIDTH 960 0
DWIDTH 24 0
BBX 24 24 0 -6
BITMAP
000000
000000
003C00
004200
008100
008100
008000
004000
003000
004C00
008200
008100
008100
004100
003200
000C00
000200
000100
008100
008100
004200
003C00
000000
000000
ENDCHAR

STARTCHAR a1d8
ENCODING 41432
SWIDTH 960 0
DWIDTH 24 0
BBX 24 24 0 -6
BITMAP
000000
000000
000000
101808
083C10
043C20
021840
010080
008100
004200
0C2430
1E1878
1E1878
0C2430
004200
008100
010080
021840
043C20
083C10
101808
000000
000000
000000
ENDCHAR

STARTCHAR a1d9
ENCODING 41433
SWIDTH 960 0
DWIDTH 24 0
BBX 24 24 0 -6
BITMAP
000000
000000
001000
001000
002800
002800
002800
004400
004400
3F83F8
100010
0C0060
020080
010100
010100
020080
023880
044440
058340
0A00A0
0C0060
000000
000000
000000
ENDCHAR

STARTCHAR a1da
ENCODING 41434
SWIDTH 960 0
DWIDTH 24 0
BBX 24 24 0 -6
BITMAP
000000
000000
001000
001000
003800
003800
003800
007C00
007C00
3FFFF8
1FFFF0
0FFFE0
03FF80
01FF00
01FF00
03FF80
03FF80
07C7C0
0783C0
0E00E0
0C0060
000000
000000
000000
ENDCHAR

STARTCHAR a1db
ENCODING 41435
SWIDTH 960 0
DWIDTH 24 0
BBX 24 24 0 -6
BITMAP
000000
000000
000000
007E00
018180
020040
040020
080010
080010
100008
100008
100008
100008
100008
100008
080010
080010
040020
020040
018180
007E00
000000
000000
000000
ENDCHAR

STARTCHAR a1dc
ENCODING 41436
SWIDTH 960 0
DWIDTH 24 0
BBX 24 24 0 -6
BITMAP
000000
000000
000000
007E00
01FF80
03FFC0
07FFE0
0FFFF0
0FFFF0
1FFFF8
1FFFF8
1FFFF8
1FFFF8
1FFFF8
1FFFF8
0FFFF0
0FFFF0
07FFE0
03FFC0
01FF80
007E00
000000
000000
000000
ENDCHAR

STARTCHAR a1dd
ENCODING 41437
SWIDTH 960 0
DWIDTH 24 0
BBX 24 24 0 -6
BITMAP
000000
000000
000000
007E00
018180
020040
040020
083C10
08C310
108108
110088
110088
110088
110088
108108
08C310
083C10
040020
020040
018180
007E00
000000
000000
000000
ENDCHAR

STARTCHAR a1de
ENCODING 41438
SWIDTH 960 0
DWIDTH 24 0
BBX 24 24 0 -6
BITMAP
000000
000000
000000
001800
002400
004200
008100
010080
020040
040020
080010
100008
100008
080010
040020
020040
010080
008100
004200
002400
001800
000000
000000
000000
ENDCHAR

STARTCHAR a1df
ENCODING 41439
SWIDTH 960 0
DWIDTH 24 0
BBX 24 24 0 -6
BITMAP
000000
000000
000000
001800
003C00
007E00
00FF00
01FF80
03FFC0
07FFE0
0FFFF0
1FFFF8
1FFFF8
0FFFF0
07FFE0
03FFC0
01FF80
00FF00
007E00
003C00
001800
000000
000000
000000
ENDCHAR

STARTCHAR a1e0
ENCODING 41440
SWIDTH 960 0
DWIDTH 24 0
BBX 24 24 0 -6
BITMAP
000000
000000
000000
1FFFF8
100008
100008
100008
100008
100008
100008
100008
100008
100008
100008
100008
100008
100008
100008
100008
100008
1FFFF8
000000
000000
000000
ENDCHAR

STARTCHAR a1e1
ENCODING 41441
SWIDTH 960 0
DWIDTH 24 0
BBX 24 24 0 -6
BITMAP
000000
000000
000000
1FFFF8
1FFFF8
1FFFF8
1FFFF8
1FFFF8
1FFFF8
1FFFF8
1FFFF8
1FFFF8
1FFFF8
1FFFF8
1FFFF8
1FFFF8
1FFFF8
1FFFF8
1FFFF8
1FFFF8
1FFFF8
000000
000000
000000
ENDCHAR

STARTCHAR a1e2
ENCODING 41442
SWIDTH 960 0
DWIDTH 24 0
BBX 24 24 0 -6
BITMAP
000000
000000
000000
001000
001000
002800
002800
004400
004400
008200
008200
010100
010100
020080
020080
040040
040040
080020
080020
1FFFF0
000000
000000
000000
000000
ENDCHAR

STARTCHAR a1e3
ENCODING 41443
SWIDTH 960 0
DWIDTH 24 0
BBX 24 24 0 -6
BITMAP
000000
000000
000000
001000
001000
003800
003800
007C00
007C00
00FE00
00FE00
01FF00
01FF00
03FF80
03FF80
07FFC0
07FFC0
0FFFE0
0FFFE0
1FFFF0
000000
000000
000000
000000
ENDCHAR

STARTCHAR a1e4
ENCODING 41444
SWIDTH 960 0
DWIDTH 24 0
BBX 24 24 0 -6
BITMAP
000000
000000
000000
000000
1FFFF0
080020
080020
040040
040040
020080
020080
010100
010100
008200
008200
004400
004400
002800
002800
001000
001000
000000
000000
000000
ENDCHAR

STARTCHAR a1e5
ENCODING 41445
SWIDTH 960 0
DWIDTH 24 0
BBX 24 24 0 -6
BITMAP
000000
000000
000000
000000
1FFFF0
0FFFE0
0FFFE0
07FFC0
07FFC0
03FF80
03FF80
01FF00
01FF00
00FE00
00FE00
007C00
007C00
003800
003800
001000
001000
000000
000000
000000
ENDCHAR

STARTCHAR a1e6
ENCODING 41446
SWIDTH 960 0
DWIDTH 24 0
BBX 24 24 0 -6
BITMAP
000000
000000
000000
000000
000000
000000
000000
000000
000020
000010
000018
3FFFFC
000018
000010
000020
000000
000000
000000
000000
000000
000000
000000
000000
000000
ENDCHAR

STARTCHAR a1e7
ENCODING 41447
SWIDTH 960 0
DWIDTH 24 0
BBX 24 24 0 -6
BITMAP
000000
000000
000000
000000
000000
000000
000000
000000
040000
080000
180000
3FFFFC
180000
080000
040000
000000
000000
000000
000000
000000
000000
000000
000000
000000
ENDCHAR

STARTCHAR a1e8
ENCODING 41448
SWIDTH 960 0
DWIDTH 24 0
BBX 24 24 0 -6
BITMAP
000000
000000
001000
003800
007C00
009200
001000
001000
001000
001000
001000
001000
001000
001000
001000
001000
001000
001000
001000
001000
001000
001000
000000
000000
ENDCHAR

STARTCHAR a1e9
ENCODING 41449
SWIDTH 960 0
DWIDTH 24 0
BBX 24 24 0 -6
BITMAP
000000
000000
001000
001000
001000
001000
001000
001000
001000
001000
001000
001000
001000
001000
001000
001000
001000
001000
009200
007C00
003800
001000
000000
000000
ENDCHAR

STARTCHAR a1ea
ENCODING 41450
SWIDTH 960 0
DWIDTH 24 0
BBX 24 24 0 -6
BITMAP
000000
000000
000000
000000
000000
000000
000000
000000
040020
080010
180018
3FFFFC
180018
080010
040020
000000
000000
000000
000000
000000
000000
000000
000000
000000
ENDCHAR

STARTCHAR a1eb
ENCODING 41451
SWIDTH 960 0
DWIDTH 24 0
BBX 24 24 0 -6
BITMAP
000000
000000
000000
000000
000000
000000
000000
000000
000000
1FFFF8
000000
000000
000000
000000
1FFFF8
000000
000000
000000
000000
000000
000000
000000
000000
000000
ENDCHAR

STARTCHAR a1ec
ENCODING 41452
SWIDTH 960 0
DWIDTH 24 0
BBX 24 24 0 -6
BITMAP
000000
000000
000000
000000
000000
000000
000000
000618
001860
006180
018600
061800
186000
061800
018600
006180
001860
000618
000000
000000
000000
000000
000000
000000
ENDCHAR

STARTCHAR a1ed
ENCODING 41453
SWIDTH 960 0
DWIDTH 24 0
BBX 24 24 0 -6
BITMAP
000000
000000
000000
000000
000000
000000
000000
186000
061800
018600
006180
001860
000618
001860
006180
018600
061800
186000
000000
000000
000000
000000
000000
000000
ENDCHAR

STARTCHAR a1ee
ENCODING 41454
SWIDTH 960 0
DWIDTH 24 0
BBX 24 24 0 -6
BITMAP
000000
0007FE
000800
000800
000800
001000
001000
001000
002000
002000
002000
004000
004000
004000
188000
388000
4C8000
0D0000
070000
070000
020000
020000
000000
000000
ENDCHAR

STARTCHAR a1ef
ENCODING 41455
SWIDTH 960 0
DWIDTH 24 0
BBX 24 24 0 -6
BITMAP
000000
000000
000000
000000
000000
000000
000000
000000
0701E0
088210
100408
100808
101008
102008
084110
0780E0
000000
000000
000000
000000
000000
000000
000000
000000
ENDCHAR

STARTCHAR a1f0
ENCODING 41456
SWIDTH 960 0
DWIDTH 24 0
BBX 24 24 0 -6
BITMAP
000000
000000
000000
000000
000000
000000
000000
000000
03C1E0
042210
081400
080800
080800
081400
042210
03C1E0
000000
000000
000000
000000
000000
000000
000000
000000
ENDCHAR

STARTCHAR a1f1
ENCODING 41457
SWIDTH 960 0
DWIDTH 24 0
BBX 24 24 0 -6
BITMAP
000000
000000
000000
000000
000000
0300C0
0781E0
0781E0
0300C0
000000
000000
000000
000000
000000
000000
001800
003C00
003C00
001800
000000
000000
000000
000000
000000
ENDCHAR

STARTCHAR a1f2
ENCODING 41458
SWIDTH 960 0
DWIDTH 24 0
BBX 24 24 0 -6
BITMAP
000000
000000
001C00
002600
002600
006000
006000
006000
006000
006000
003000
003000
003000
003000
001800
001800
001800
001800
001800
019000
019000
00E000
000000
000000
ENDCHAR

STARTCHAR a1f3
ENCODING 41459
SWIDTH 960 0
DWIDTH 24 0
BBX 24 24 0 -6
BITMAP
000000
000000
00E0E0
013130
013130
030300
030300
030300
030300
030300
018180
018180
018180
018180
00C0C0
00C0C0
00C0C0
00C0C0
00C0C0
0C8C80
0C8C80
070700
000000
000000
ENDCHAR

STARTCHAR a1f4
ENCODING 41460
SWIDTH 960 0
DWIDTH 24 0
BBX 24 24 0 -6
BITMAP
000000
000000
000000
000000
000000
000000
00FFF8
030000
040000
040000
080000
080000
0FFFF8
080000
080000
040000
040000
030000
00FFF8
000000
000000
000000
000000
000000
ENDCHAR

STARTCHAR a1f5
ENCODING 41461
SWIDTH 960 0
DWIDTH 24 0
BBX 24 24 0 -6
BITMAP
000000
000000
000000
000000
000000
000000
1FFF00
0000C0
000020
000020
000010
000010
1FFFF0
000010
000010
000020
000020
0000C0
1FFF00
000000
000000
000000
000000
000000
ENDCHAR

STARTCHAR a1f6
ENCODING 41462
SWIDTH 960 0
DWIDTH 24 0
BBX 24 24 0 -6
BITMAP
000000
000000
000000
000000
000000
00FFF8
030000
040000
040000
080000
080000
080000
040000
040000
030000
00FFF8
000000
000000
000000
0FFFF8
000000
000000
000000
000000
ENDCHAR

STARTCHAR a1f7
ENCODING 41463
SWIDTH 960 0
DWIDTH 24 0
BBX 24 24 0 -6
BITMAP
000000
000000
000000
000000
000000
1FFF00
0000C0
000020
000020
000010
000010
000010
000020
000020
0000C0
1FFF00
000000
000000
000000
1FFFF0
000000
000000
000000
000000
ENDCHAR

STARTCHAR a1f8
ENCODING 41464
SWIDTH 960 0
DWIDTH 24 0
BBX 24 24 0 -6
BITMAP
000000
000000
000000
000000
000000
000000
00FFF8
030000
040000
040000
080000
080000
080000
080000
080000
040000
040000
030000
00FFF8
000000
000000
000000
000000
000000
ENDCHAR

STARTCHAR a1f9
ENCODING 41465
SWIDTH 960 0
DWIDTH 24 0
BBX 24 24 0 -6
BITMAP
000000
000000
000000
000000
000000
000000
1FFF00
0000C0
000020
000020
000010
000010
000010
000010
000010
000020
000020
0000C0
1FFF00
000000
000000
000000
000000
000000
ENDCHAR

STARTCHAR a1fa
ENCODING 41466
SWIDTH 960 0
DWIDTH 24 0
BBX 24 24 0 -6
BITMAP
000000
000000
000000
020040
020040
020040
020040
020040
020040
020040
020040
020040
020040
020040
020040
020040
010080
010080
00C300
003C00
000000
000000
000000
000000
ENDCHAR

STARTCHAR a1fb
ENCODING 41467
SWIDTH 960 0
DWIDTH 24 0
BBX 24 24 0 -6
BITMAP
000000
000000
000000
000000
003C00
00C300
010080
010080
020040
020040
020040
020040
020040
020040
020040
020040
020040
020040
020040
020040
020040
000000
000000
000000
ENDCHAR

STARTCHAR a1fc
ENCODING 41468
SWIDTH 960 0
DWIDTH 24 0
BBX 24 24 0 -6
BITMAP
000000
000000
000000
000000
001000
001000
002800
002800
004400
004400
008200
008200
010100
010100
020080
020080
040040
040040
040040
080020
080020
000000
000000
000000
ENDCHAR

STARTCHAR a1fd
ENCODING 41469
SWIDTH 960 0
DWIDTH 24 0
BBX 24 24 0 -6
BITMAP
000000
000000
000000
000000
080020
080020
040040
040040
040040
020080
020080
010100
010100
008200
008200
004400
004400
002800
002800
001000
001000
000000
000000
000000
ENDCHAR

STARTCHAR a1fe
ENCODING 41470
SWIDTH 960 0
DWIDTH 24 0
BBX 24 24 0 -6
BITMAP
000000
000000
000000
000000
000000
000000
000000
000000
000000
0FFFF0
000010
000010
000010
000010
000010
000010
000010
000000
000000
000000
000000
000000
000000
000000
ENDCHAR

STARTCHAR a2a1
ENCODING 41633
SWIDTH 960 0
DWIDTH 24 0
BBX 24 24 0 -6
BITMAP
000000
000000
000000
000000
000000
000100
000080
000040
1FFFE0
000010
000008
000004
000008
000010
1FFFE0
000040
000080
000100
000000
000000
000000
000000
000000
000000
ENDCHAR

STARTCHAR a2a2
ENCODING 41634
SWIDTH 960 0
DWIDTH 24 0
BBX 24 24 0 -6
BITMAP
000000
000000
000000
000000
000000
000000
010080
020040
040020
0FFFF0
100008
300004
100008
0FFFF0
040020
020040
010080
000000
000000
000000
000000
000000
000000
000000
ENDCHAR

STARTCHAR a2a3
ENCODING 41635
SWIDTH 960 0
DWIDTH 24 0
BBX 24 24 0 -6
BITMAP
000000
000000
080020
080020
040040
040040
020080
020080
01FF00
010100
008200
008200
004400
004400
002800
002800
001000
001000
000000
000000
000000
000000
000000
000000
ENDCHAR

STARTCHAR a2a4
ENCODING 41636
SWIDTH 960 0
DWIDTH 24 0
BBX 24 24 0 -6
BITMAP
000000
000000
03FF80
000080
000080
000080
000080
000080
000080
03FF80
000080
000080
000080
000080
000080
000080
03FF80
000000
000000
000000
000000
000000
000000
000000
ENDCHAR

STARTCHAR a2a5
ENCODING 41637
SWIDTH 960 0
DWIDTH 24 0
BBX 24 24 0 -6
BITMAP
000000
000000
000000
001800
001800
001000
001000
002000
002000
000000
000000
000000
000000
000000
000000
000000
000000
000000
000000
000000
000000
000000
000000
000000
ENDCHAR

STARTCHAR a2a6
ENCODING 41638
SWIDTH 960 0
DWIDTH 24 0
BBX 24 24 0 -6
BITMAP
000000
000000
000000
000000
00E100
011100
010E00
000000
000000
000000
000000
000000
000000
000000
000000
000000
000000
000000
000000
000000
000000
000000
000000
000000
ENDCHAR

STARTCHAR a2a7
ENCODING 41639
SWIDTH 960 0
DWIDTH 24 0
BBX 24 24 0 -6
BITMAP
000000
000000
000000
008100
00C300
006600
003C00
001800
000000
000000
000000
000000
000000
000000
000000
000000
000000
000000
000000
000000
000000
000000
000000
000000
ENDCHAR

STARTCHAR a2a8
ENCODING 41640
SWIDTH 960 0
DWIDTH 24 0
BBX 24 24 0 -6
BITMAP
000000
000000
000000
008100
008100
004200
003C00
000000
000000
000000
000000
000000
000000
000000
000000
000000
000000
000000
000000
000000
000000
000000
000000
000000
ENDCHAR

STARTCHAR a2a9
ENCODING 41641
SWIDTH 960 0
DWIDTH 24 0
BBX 24 24 0 -6
BITMAP
000000
000000
000000
006300
006300
004200
004200
008400
008400
000000
000000
000000
000000
000000
000000
000000
000000
000000
000000
000000
000000
000000
000000
000000
ENDCHAR

STARTCHAR a2aa
ENCODING 41642
SWIDTH 960 0
DWIDTH 24 0
BBX 24 24 0 -6
BITMAP
000000
000000
000000
003C00
004200
004200
004200
004200
003C00
000000
000000
000000
000000
000000
000000
000000
000000
000000
000000
000000
000000
000000
000000
000000
ENDCHAR

STARTCHAR a2ab
ENCODING 41643
SWIDTH 960 0
DWIDTH 24 0
BBX 24 24 0 -6
BITMAP
000000
000000
000000
001800
003C00
003C00
001800
000000
000000
000000
000000
000000
000000
000000
000000
000000
000000
000000
000000
000000
000000
000000
000000
000000
ENDCHAR

STARTCHAR a2ac
ENCODING 41644
SWIDTH 960 0
DWIDTH 24 0
BBX 24 24 0 -6
BITMAP
000000
000000
000000
000000
000000
000000
000000
000000
000000
002000
006000
006000
007000
003800
001C00
000E00
000600
000600
000E00
00FC00
007800
000000
000000
000000
ENDCHAR

STARTCHAR a2ad
ENCODING 41645
SWIDTH 960 0
DWIDTH 24 0
BBX 24 24 0 -6
BITMAP
000000
000000
000000
000000
000000
000000
000000
000000
000000
000000
000000
000000
000800
001800
003000
003000
006000
006000
006200
007C00
003800
000000
000000
000000
ENDCHAR

STARTCHAR a2ae
ENCODING 41646
SWIDTH 960 0
DWIDTH 24 0
BBX 24 24 0 -6
BITMAP
000000
000000
000000
000000
001800
001800
000000
000000
001800
001800
001800
001800
001800
003C00
003C00
003C00
003C00
003C00
003C00
001800
000000
000000
000000
000000
ENDCHAR

STARTCHAR a2af
ENCODING 41647
SWIDTH 960 0
DWIDTH 24 0
BBX 24 24 0 -6
BITMAP
000000
000000
000000
000800
001C00
000800
000000
000000
000800
000800
000800
000800
003800
006000
00C000
00C000
00C300
00C300
006200
003C00
000000
000000
000000
000000
ENDCHAR

STARTCHAR a2b0
ENCODING 41648
SWIDTH 960 0
DWIDTH 24 0
BBX 24 24 0 -6
BITMAP
000000
000000
000000
000000
000000
000000
007C00
003800
003800
001000
001000
000000
000000
001000
001000
003800
003800
007C00
000000
000000
000000
000000
000000
000000
ENDCHAR

STARTCHAR a2b1
ENCODING 41649
SWIDTH 960 0
DWIDTH 24 0
BBX 24 24 0 -6
BITMAP
000000
000000
000700
000B00
000800
001800
001800
001800
003C00
005A00
005A00
005A00
005A00
003C00
001800
001800
001800
001800
001800
001000
00D000
00E000
000000
000000
ENDCHAR

STARTCHAR a2b2
ENCODING 41650
SWIDTH 960 0
DWIDTH 24 0
BBX 24 24 0 -6
BITMAP
000000
000000
000000
000000
07FFC0
038040
01C040
00E040
007000
003800
001C00
000C00
000800
001000
002000
004040
008040
0100C0
0200C0
07FFC0
000000
000000
000000
000000
ENDCHAR

STARTCHAR a2b3
ENCODING 41651
SWIDTH 960 0
DWIDTH 24 0
BBX 24 24 0 -6
BITMAP
000000
000000
000000
000000
000000
03FFC0
008100
008100
008100
008100
008100
008100
008100
008100
008100
008100
008100
008100
008100
008100
000000
000000
000000
000000
ENDCHAR

STARTCHAR a2b4
ENCODING 41652
SWIDTH 960 0
DWIDTH 24 0
BBX 24 24 0 -6
BITMAP
000000
000000
000000
000000
000000
000000
020040
013C80
00C300
008100
010080
010080
010080
010080
008100
00C300
013C80
020040
000000
000000
000000
000000
000000
000000
ENDCHAR

STARTCHAR a2b5
ENCODING 41653
SWIDTH 960 0
DWIDTH 24 0
BBX 24 24 0 -6
BITMAP
000000
000000
0E0000
110000
113FF8
111818
0E1808
001808
001808
001800
001840
001840
001FC0
001840
001840
001800
001800
001800
001800
001800
001800
007E00
000000
000000
ENDCHAR

STARTCHAR a2b6
ENCODING 41654
SWIDTH 960 0
DWIDTH 24 0
BBX 24 24 0 -6
BITMAP
000000
000000
000200
000200
0E0400
190400
110800
311000
231000
222000
262000
1C4000
008E1C
009932
011122
013162
022346
042244
04264C
081C38
080000
000000
000000
000000
ENDCHAR

STARTCHAR a2b7
ENCODING 41655
SWIDTH 960 0
DWIDTH 24 0
BBX 24 24 0 -6
BITMAP
000000
000000
000000
000010
000070
000190
000610
001810
006010
018010
060010
180010
060010
018010
006010
001810
000610
000190
000070
000010
000000
000000
000000
000000
ENDCHAR

STARTCHAR a2b8
ENCODING 41656
SWIDTH 960 0
DWIDTH 24 0
BBX 24 24 0 -6
BITMAP
000000
000000
000000
000010
000070
0001F0
0007F0
001FF0
007FF0
01FFF0
07FFF0
1FFFF0
07FFF0
01FFF0
007FF0
001FF0
0007F0
0001F0
000070
000010
000000
000000
000000
000000
ENDCHAR

STARTCHAR a2b9
ENCODING 41657
SWIDTH 960 0
DWIDTH 24 0
BBX 24 24 0 -6
BITMAP
000000
000000
000000
080000
0E0000
098000
086000
081800
080600
080180
080060
080018
080060
080180
080600
081800
086000
098000
0E0000
080000
000000
000000
000000
000000
ENDCHAR

STARTCHAR a2ba
ENCODING 41658
SWIDTH 960 0
DWIDTH 24 0
BBX 24 24 0 -6
BITMAP
000000
000000
000000
080000
0E0000
0F8000
0FE000
0FF800
0FFE00
0FFF80
0FFFE0
0FFFF8
0FFFE0
0FFF80
0FFE00
0FF800
0FE000
0F8000
0E0000
080000
000000
000000
000000
000000
ENDCHAR

STARTCHAR a2bb
ENCODING 41659
SWIDTH 960 0
DWIDTH 24 0
BBX 24 24 0 -6
BITMAP
000000
000000
001000
001000
002800
004400
008200
008200
010100
020080
040040
040040
080020
080020
080020
080020
043840
03D780
001000
001000
003800
000000
000000
000000
ENDCHAR

STARTCHAR a2bc
ENCODING 41660
SWIDTH 960 0
DWIDTH 24 0
BBX 24 24 0 -6
BITMAP
000000
000000
001000
001000
003800
007C00
00FE00
00FE00
01FF00
03FF80
07FFC0
07FFC0
0FFFE0
0FFFE0
0FFFE0
0FFFE0
07FFC0
03D780
001000
001000
003800
000000
000000
000000
ENDCHAR

STARTCHAR a2bd
ENCODING 41661
SWIDTH 960 0
DWIDTH 24 0
BBX 24 24 0 -6
BITMAP
000000
000000
000000
000000
01E3C0
021420
040810
040010
040010
040010
040010
020020
020020
010040
008080
008080
004100
002200
001400
000800
000000
000000
000000
000000
ENDCHAR

STARTCHAR a2be
ENCODING 41662
SWIDTH 960 0
DWIDTH 24 0
BBX 24 24 0 -6
BITMAP
000000
000000
000000
000000
01E3C0
03F7E0
07FFF0
07FFF0
07FFF0
07FFF0
07FFF0
03FFE0
03FFE0
01FFC0
00FF80
00FF80
007F00
003E00
001C00
000800
000000
000000
000000
000000
ENDCHAR

STARTCHAR a2bf
ENCODING 41663
SWIDTH 960 0
DWIDTH 24 0
BBX 24 24 0 -6
BITMAP
000000
000000
000000
003800
004400
008200
008200
008200
008200
004400
03AB80
044440
080020
080020
080020
083820
045440
039380
001000
001000
003800
000000
000000
000000
ENDCHAR

STARTCHAR a2c0
ENCODING 41664
SWIDTH 960 0
DWIDTH 24 0
BBX 24 24 0 -6
BITMAP
000000
000000
000000
003800
007C00
00FE00
00FE00
00FE00
00FE00
007C00
03BB80
07FFC0
0FFFE0
0FFFE0
0FFFE0
0FFFE0
07D7C0
039380
001000
001000
003800
000000
000000
000000
ENDCHAR

STARTCHAR a2c1
ENCODING 41665
SWIDTH 960 0
DWIDTH 24 0
BBX 24 24 0 -6
BITMAP
000000
000000
000000
000000
007E00
018180
020040
040020
040020
080010
081810
083C10
083C10
081810
080010
040020
040020
020040
018180
007E00
000000
000000
000000
000000
ENDCHAR

STARTCHAR a2c2
ENCODING 41666
SWIDTH 960 0
DWIDTH 24 0
BBX 24 24 0 -6
BITMAP
000000
000000
000000
001800
002400
004200
008100
010080
021840
043C20
087E10
10FF08
10FF08
087E10
043C20
021840
010080
008100
004200
002400
001800
000000
000000
000000
ENDCHAR

STARTCHAR a2c3
ENCODING 41667
SWIDTH 960 0
DWIDTH 24 0
BBX 24 24 0 -6
BITMAP
000000
000000
000000
000000
0FFFF0
080010
080010
080010
080010
087E10
087E10
087E10
087E10
087E10
087E10
080010
080010
080010
080010
0FFFF0
000000
000000
000000
000000
ENDCHAR

STARTCHAR a2c4
ENCODING 41668
SWIDTH 960 0
DWIDTH 24 0
BBX 24 24 0 -6
BITMAP
000000
000000
000000
000000
007E00
01F180
03F040
07F020
07F020
0FF010
0FF010
0FF010
0FF010
0FF010
0FF010
07F020
07F020
03F040
01F180
007E00
000000
000000
000000
000000
ENDCHAR

STARTCHAR a2c5
ENCODING 41669
SWIDTH 960 0
DWIDTH 24 0
BBX 24 24 0 -6
BITMAP
000000
000000
000000
000000
007E00
018F80
020FC0
040FE0
040FE0
080FF0
080FF0
080FF0
080FF0
080FF0
080FF0
040FE0
040FE0
020FC0
018F80
007E00
000000
000000
000000
000000
ENDCHAR

STARTCHAR a2c6
ENCODING 41670
SWIDTH 960 0
DWIDTH 24 0
BBX 24 24 0 -6
BITMAP
000000
000000
000000
1FFFF8
100008
144448
100008
100008
100008
122228
100008
100008
100008
144448
100008
100008
100008
122228
100008
100008
1FFFF8
000000
000000
000000
ENDCHAR

STARTCHAR a2c7
ENCODING 41671
SWIDTH 960 0
DWIDTH 24 0
BBX 24 24 0 -6
BITMAP
000000
000000
000000
000000
1FFFF8
100008
100008
100008
1FFFF8
100008
100008
100008
1FFFF8
100008
100008
100008
1FFFF8
100008
100008
100008
1FFFF8
000000
000000
000000
ENDCHAR

STARTCHAR a2c8
ENCODING 41672
SWIDTH 960 0
DWIDTH 24 0
BBX 24 24 0 -6
BITMAP
000000
000000
000000
1FFFF0
111110
111110
111110
111110
111110
111110
111110
111110
111110
111110
111110
111110
111110
111110
111110
111110
1FFFF0
000000
000000
000000
ENDCHAR

STARTCHAR a2c9
ENCODING 41673
SWIDTH 960 0
DWIDTH 24 0
BBX 24 24 0 -6
BITMAP
000000
000000
000000
1FFFF8
101018
102028
104048
108088
110108
120208
140408
180808
101018
102028
104048
108088
110108
120208
140408
180808
1FFFF8
000000
000000
000000
ENDCHAR

STARTCHAR a2ca
ENCODING 41674
SWIDTH 960 0
DWIDTH 24 0
BBX 24 24 0 -6
BITMAP
000000
000000
000000
1FFFF8
180808
140408
120208
110108
108088
104048
102028
101018
180808
140408
120208
110108
108088
104048
102028
101018
1FFFF8
000000
000000
000000
ENDCHAR

STARTCHAR a2cb
ENCODING 41675
SWIDTH 960 0
DWIDTH 24 0
BBX 24 24 0 -6
BITMAP
000000
000000
000000
000000
1FFFF0
111110
111110
111110
1FFFF0
111110
111110
111110
1FFFF0
111110
111110
111110
1FFFF0
111110
111110
111110
1FFFF0
000000
000000
000000
ENDCHAR

STARTCHAR a2cc
ENCODING 41676
SWIDTH 960 0
DWIDTH 24 0
BBX 24 24 0 -6
BITMAP
000000
000000
000000
1FFFF8
180818
141428
122248
114188
108188
114248
122428
141818
181828
142448
124288
118108
118288
124448
142828
181018
1FFFF8
000000
000000
000000
ENDCHAR

STARTCHAR a2cd
ENCODING 41677
SWIDTH 960 0
DWIDTH 24 0
BBX 24 24 0 -6
BITMAP
000000
000000
000000
000400
004800
009080
011100
011200
011200
009200
004900
004880
0248A0
044890
088908
089108
081008
0C0018
070070
03FFE0
00FF80
000000
000000
000000
ENDCHAR

STARTCHAR a2ce
ENCODING 41678
SWIDTH 960 0
DWIDTH 24 0
BBX 24 24 0 -6
BITMAP
000000
000000
000000
01FF80
0E0070
100008
21FF84
224244
224244
3E7E7C
004200
008100
018180
028140
048120
084210
083C10
100008
100008
11FF88
1F00F8
000000
000000
000000
ENDCHAR

STARTCHAR a2cf
ENCODING 41679
SWIDTH 960 0
DWIDTH 24 0
BBX 24 24 0 -6
BITMAP
000000
000000
000000
01FF80
0FFFF0
1FFFF8
3EC37C
3CC33C
3CC33C
3CFF3C
00FF00
00C300
018180
0381C0
0781E0
0F81F0
0FC3F0
1FFFF8
1FFFF8
1FFFF8
1E0078
000000
000000
000000
ENDCHAR

STARTCHAR a2d0
ENCODING 41680
SWIDTH 960 0
DWIDTH 24 0
BBX 24 24 0 -6
BITMAP
000000
000000
000000
000000
000000
000000
00001E
3FFF92
400072
3FF012
008012
00F812
008012
007812
004072
003F92
00001E
000000
000000
000000
000000
000000
000000
000000
ENDCHAR

STARTCHAR a2d1
ENCODING 41681
SWIDTH 960 0
DWIDTH 24 0
BBX 24 24 0 -6
BITMAP
000000
000000
000000
000000
000000
000000
780000
49FFFC
4E0002
4807FC
480080
480F80
480080
480F00
4E0100
49FE00
780000
000000
000000
000000
000000
000000
000000
000000
ENDCHAR

STARTCHAR a2d2
ENCODING 41682
SWIDTH 960 0
DWIDTH 24 0
BBX 24 24 0 -6
BITMAP
000000
000000
000000
000000
00FC40
010440
020440
020440
020440
020440
020440
010440
00FC40
000440
000440
000440
000440
000440
000440
000440
000000
000000
000000
000000
ENDCHAR

STARTCHAR a2d3
ENCODING 41683
SWIDTH 960 0
DWIDTH 24 0
BBX 24 24 0 -6
BITMAP
000000
000000
001000
001000
001000
001000
001000
001000
01FF00
001000
001000
001000
001000
001000
001000
001000
001000
001000
001000
001000
001000
001000
000000
000000
ENDCHAR

STARTCHAR a2d4
ENCODING 41684
SWIDTH 960 0
DWIDTH 24 0
BBX 24 24 0 -6
BITMAP
000000
001000
001000
001000
001000
001000
001000
01FF00
001000
001000
01FF00
001000
001000
001000
001000
001000
001000
001000
001000
001000
001000
001000
000000
000000
ENDCHAR

STARTCHAR a2d5
ENCODING 41685
SWIDTH 960 0
DWIDTH 24 0
BBX 24 24 0 -6
BITMAP
000000
000000
001000
003800
007C00
009200
001000
001000
001000
001000
001000
001000
001000
001000
001000
001000
001000
001000
009200
007C00
003800
001000
000000
000000
ENDCHAR

STARTCHAR a2d6
ENCODING 41686
SWIDTH 960 0
DWIDTH 24 0
BBX 24 24 0 -6
BITMAP
000000
000000
000000
000000
000000
0003E0
0000E0
0000E0
000120
000220
000400
000800
001000
002000
004000
008000
010000
020000
040000
000000
000000
000000
000000
000000
ENDCHAR

STARTCHAR a2d7
ENCODING 41687
SWIDTH 960 0
DWIDTH 24 0
BBX 24 24 0 -6
BITMAP
000000
000000
000000
000000
000000
000020
000040
000080
000100
000200
000400
000800
001000
002000
044000
048000
070000
070000
07C000
000000
000000
000000
000000
000000
ENDCHAR

STARTCHAR a2d8
ENCODING 41688
SWIDTH 960 0
DWIDTH 24 0
BBX 24 24 0 -6
BITMAP
000000
000000
000000
000000
07C000
070000
070000
048000
044000
002000
001000
000800
000400
000200
000100
000080
000040
000020
000000
000000
000000
000000
000000
000000
ENDCHAR

STARTCHAR a2d9
ENCODING 41689
SWIDTH 960 0
DWIDTH 24 0
BBX 24 24 0 -6
BITMAP
000000
000000
000000
000000
040000
020000
010000
008000
004000
002000
001000
000800
000400
000220
000120
0000E0
0000E0
0003E0
000000
000000
000000
000000
000000
000000
ENDCHAR

STARTCHAR a2da
ENCODING 41690
SWIDTH 960 0
DWIDTH 24 0
BBX 24 24 0 -6
BITMAP
000000
000000
000000
004000
004000
004000
004000
004000
004000
004000
005E00
006100
004100
004100
004100
004200
004200
004400
005800
006000
000000
000000
000000
000000
ENDCHAR

STARTCHAR a2db
ENCODING 41691
SWIDTH 960 0
DWIDTH 24 0
BBX 24 24 0 -6
BITMAP
000000
000000
000400
000400
000400
000400
000400
000400
000400
000400
000400
000400
000400
000400
000400
000400
000400
001C00
007C00
007800
00F800
00E000
000000
000000
ENDCHAR

STARTCHAR a2dc
ENCODING 41692
SWIDTH 960 0
DWIDTH 24 0
BBX 24 24 0 -6
BITMAP
000000
000000
001000
001000
001800
001400
001200
001100
001100
001080
001080
001080
001080
001100
001100
001000
001000
007000
01F000
01E000
03E000
038000
000000
000000
ENDCHAR

STARTCHAR a2dd
ENCODING 41693
SWIDTH 960 0
DWIDTH 24 0
BBX 24 24 0 -6
BITMAP
000000
000000
000000
007FF0
004010
004010
004010
007FF0
004010
004010
004010
004010
004010
004010
004010
004010
004010
004010
01C070
0781E0
0F83E0
0E0380
000000
000000
ENDCHAR

STARTCHAR a2de
ENCODING 41694
SWIDTH 960 0
DWIDTH 24 0
BBX 24 24 0 -6
BITMAP
000000
000000
000000
00FF00
0381C0
060060
0C0030
086110
186318
106600
106C00
107800
1E70F8
007808
006C08
006608
186318
086110
0C0030
060060
0381C0
00FF00
000000
000000
ENDCHAR

STARTCHAR a2df
ENCODING 41695
SWIDTH 960 0
DWIDTH 24 0
BBX 24 24 0 -6
BITMAP
000000
000000
100008
140308
23FF84
210304
200E04
401C02
407702
4181E2
460062
400002
500032
4FFFFA
441802
401802
401802
201804
201804
201804
101808
101008
000000
000000
ENDCHAR

STARTCHAR a2e0
ENCODING 41696
SWIDTH 960 0
DWIDTH 24 0
BBX 24 24 0 -6
BITMAP
000000
000000
30E000
104000
184000
184000
184000
144000
144780
124CC0
124840
124840
114840
114840
10C840
10C840
10CCCC
3C478C
000000
000000
000000
000000
000000
000000
ENDCHAR

STARTCHAR a2e1
ENCODING 41697
SWIDTH 960 0
DWIDTH 24 0
BBX 24 24 0 -6
BITMAP
000000
000000
072000
18E000
306000
306000
602000
600000
600780
600CC0
600840
600840
600840
602840
302840
304840
18CCCC
07078C
000000
000000
000000
000000
000000
000000
ENDCHAR

STARTCHAR a2e2
ENCODING 41698
SWIDTH 960 0
DWIDTH 24 0
BBX 24 24 0 -6
BITMAP
000000
000000
7F380E
49180C
49180C
08180C
081414
081414
081414
081224
081224
081224
081144
081144
081144
081084
081084
1C388E
000000
000000
000000
000000
000000
000000
ENDCHAR

STARTCHAR a2e3
ENCODING 41699
SWIDTH 960 0
DWIDTH 24 0
BBX 24 24 0 -6
BITMAP
000000
000000
000000
000000
000000
000000
000000
000000
786DC0
041220
041220
3C1220
441220
441220
441220
441220
44D226
3AD226
000000
000000
000000
000000
000000
000000
ENDCHAR

STARTCHAR a2e4
ENCODING 41700
SWIDTH 960 0
DWIDTH 24 0
BBX 24 24 0 -6
BITMAP
000000
000000
000000
000000
000000
000000
000000
000000
386DC0
241220
221220
221220
221220
221220
221220
221220
24D226
38D226
200000
200000
200000
200000
200000
000000
ENDCHAR

STARTCHAR a2e5
ENCODING 41701
SWIDTH 960 0
DWIDTH 24 0
BBX 24 24 0 -6
BITMAP
000000
000000
7FFC0C
630C0C
43040C
43040C
03000C
03000C
03000C
030F0C
03198C
03198C
03198C
031F8C
03180C
03198C
03198C
078F0C
000000
000000
000000
000000
000000
000000
ENDCHAR

STARTCHAR a3a1
ENCODING 41889
SWIDTH 960 0
DWIDTH 24 0
BBX 24 24 0 -6
BITMAP
000000
000000
000000
001000
003800
003800
003800
003800
003800
003800
003800
003800
001000
001000
001000
001000
000000
000000
003800
003800
003800
000000
000000
000000
ENDCHAR

STARTCHAR a3a2
ENCODING 41890
SWIDTH 960 0
DWIDTH 24 0
BBX 24 24 0 -6
BITMAP
000000
000000
006180
006180
006180
00C300
00C300
008200
008200
010400
010400
000000
000000
000000
000000
000000
000000
000000
000000
000000
000000
000000
000000
000000
ENDCHAR

STARTCHAR a3a3
ENCODING 41891
SWIDTH 960 0
DWIDTH 24 0
BBX 24 24 0 -6
BITMAP
000000
000000
004100
004100
004100
004170
004380
005D00
00E100
074100
004100
004100
004100
004170
004380
005D00
00E100
074100
004100
004100
004100
004100
000000
000000
ENDCHAR

STARTCHAR a3a4
ENCODING 41892
SWIDTH 960 0
DWIDTH 24 0
BBX 24 24 0 -6
BITMAP
000000
000000
002400
002400
00FF00
01A580
0324C0
0324C0
032400
032400
01A400
00FF00
002580
0024C0
0024C0
0024C0
0324C0
0324C0
01A580
00FF00
002400
002400
000000
000000
ENDCHAR

STARTCHAR a3a5
ENCODING 41893
SWIDTH 960 0
DWIDTH 24 0
BBX 24 24 0 -6
BITMAP
000000
000000
000000
000100
038100
064200
044200
0C4400
08C400
088800
098800
071000
0011C0
002320
002220
004620
004460
008440
0084C0
010380
010000
000000
000000
000000
ENDCHAR

STARTCHAR a3a6
ENCODING 41894
SWIDTH 960 0
DWIDTH 24 0
BBX 24 24 0 -6
BITMAP
000000
000000
000000
00E000
011000
020800
020800
020800
011000
013000
00E000
01C180
036180
063180
061B00
0C0F00
0C0E00
0C0780
0C0DF0
061870
03E000
000000
000000
000000
ENDCHAR

STARTCHAR a3a7
ENCODING 41895
SWIDTH 960 0
DWIDTH 24 0
BBX 24 24 0 -6
BITMAP
000000
000000
000000
001800
001800
001000
001000
002000
002000
000000
000000
000000
000000
000000
000000
000000
000000
000000
000000
000000
000000
000000
000000
000000
ENDCHAR

STARTCHAR a3a8
ENCODING 41896
SWIDTH 960 0
DWIDTH 24 0
BBX 24 24 0 -6
BITMAP
000000
000000
000004
000008
000008
000010
000010
000010
000020
000020
000020
000020
000020
000020
000020
000020
000010
000010
000010
000008
000008
000004
000000
000000
ENDCHAR

STARTCHAR a3a9
ENCODING 41897
SWIDTH 960 0
DWIDTH 24 0
BBX 24 24 0 -6
BITMAP
000000
000000
200000
100000
100000
080000
080000
080000
040000
040000
040000
040000
040000
040000
040000
040000
080000
080000
080000
100000
100000
200000
000000
000000
ENDCHAR

STARTCHAR a3aa
ENCODING 41898
SWIDTH 960 0
DWIDTH 24 0
BBX 24 24 0 -6
BITMAP
000000
000000
000000
000000
000000
000000
000000
001800
00DB00
00FF00
007E00
003C00
007E00
00FF00
00DB00
001800
000000
000000
000000
000000
000000
000000
000000
000000
ENDCHAR

STARTCHAR a3ab
ENCODING 41899
SWIDTH 960 0
DWIDTH 24 0
BBX 24 24 0 -6
BITMAP
000000
000000
000000
000000
000000
000800
000800
000800
000800
000800
000800
000800
07FFF0
000800
000800
000800
000800
000800
000800
000800
000000
000000
000000
000000
ENDCHAR

STARTCHAR a3ac
ENCODING 41900
SWIDTH 960 0
DWIDTH 24 0
BBX 24 24 0 -6
BITMAP
000000
000000
000000
000000
000000
000000
000000
000000
000000
000000
000000
000000
000000
000000
000000
000000
380000
380000
380000
080000
080000
100000
100000
000000
ENDCHAR

STARTCHAR a3ad
ENCODING 41901
SWIDTH 960 0
DWIDTH 24 0
BBX 24 24 0 -6
BITMAP
000000
000000
000000
000000
000000
000000
000000
000000
000000
000000
000000
000000
07FFF0
000000
000000
000000
000000
000000
000000
000000
000000
000000
000000
000000
ENDCHAR

STARTCHAR a3ae
ENCODING 41902
SWIDTH 960 0
DWIDTH 24 0
BBX 24 24 0 -6
BITMAP
000000
000000
000000
000000
000000
000000
000000
000000
000000
000000
000000
000000
000000
000000
000000
000000
380000
380000
380000
000000
000000
000000
000000
000000
ENDCHAR

STARTCHAR a3af
ENCODING 41903
SWIDTH 960 0
DWIDTH 24 0
BBX 24 24 0 -6
BITMAP
000000
000000
000000
000018
000030
000060
0000C0
000180
000300
000600
000C00
001800
003000
006000
00C000
018000
030000
060000
0C0000
180000
000000
000000
000000
000000
ENDCHAR

STARTCHAR a3b0
ENCODING 41904
SWIDTH 960 0
DWIDTH 24 0
BBX 24 24 0 -6
BITMAP
000000
000000
000000
003C00
00C300
018180
018180
0300C0
0300C0
0300C0
0300C0
0300C0
0300C0
0300C0
0300C0
0300C0
0300C0
018180
018180
00C300
003C00
000000
000000
000000
ENDCHAR

STARTCHAR a3b1
ENCODING 41905
SWIDTH 960 0
DWIDTH 24 0
BBX 24 24 0 -6
BITMAP
000000
000000
000000
001800
007800
001800
001800
001800
001800
001800
001800
001800
001800
001800
001800
001800
001800
001800
001800
001800
00FF00
000000
000000
000000
ENDCHAR

STARTCHAR a3b2
ENCODING 41906
SWIDTH 960 0
DWIDTH 24 0
BBX 24 24 0 -6
BITMAP
000000
000000
000000
007C00
01C300
018180
030080
0300C0
0000C0
0000C0
000180
000380
000F00
001C00
007000
00C000
018040
010040
0300C0
03FFC0
03FFC0
000000
000000
000000
ENDCHAR

STARTCHAR a3b3
ENCODING 41907
SWIDTH 960 0
DWIDTH 24 0
BBX 24 24 0 -6
BITMAP
000000
000000
000000
00FE00
018380
030180
0300C0
0000C0
0000C0
0000C0
000180
007F00
000180
0000C0
0000C0
0000C0
0300C0
0300C0
030180
018380
00FE00
000000
000000
000000
ENDCHAR

STARTCHAR a3b4
ENCODING 41908
SWIDTH 960 0
DWIDTH 24 0
BBX 24 24 0 -6
BITMAP
000000
000000
000000
000C00
000C00
001C00
002C00
002C00
004C00
008C00
008C00
010C00
020C00
020C00
040C00
07FF80
000C00
000C00
000C00
000C00
003F00
000000
000000
000000
ENDCHAR

STARTCHAR a3b5
ENCODING 41909
SWIDTH 960 0
DWIDTH 24 0
BBX 24 24 0 -6
BITMAP
000000
000000
000000
03FF80
03FF00
020000
020000
020000
020000
027C00
038300
020180
000080
0000C0
0000C0
0000C0
0000C0
030080
030180
018300
007C00
000000
000000
000000
ENDCHAR

STARTCHAR a3b6
ENCODING 41910
SWIDTH 960 0
DWIDTH 24 0
BBX 24 24 0 -6
BITMAP
000000
000000
000000
003E00
00C180
018080
0100C0
0300C0
030000
030000
037E00
038180
030080
0300C0
0300C0
0300C0
0300C0
010080
018180
00C300
003C00
000000
000000
000000
ENDCHAR

STARTCHAR a3b7
ENCODING 41911
SWIDTH 960 0
DWIDTH 24 0
BBX 24 24 0 -6
BITMAP
000000
000000
000000
03FFC0
030040
020040
020080
000080
000100
000100
000200
000600
000400
000C00
000800
001800
001800
001000
003000
003000
003000
000000
000000
000000
ENDCHAR

STARTCHAR a3b8
ENCODING 41912
SWIDTH 960 0
DWIDTH 24 0
BBX 24 24 0 -6
BITMAP
000000
000000
000000
007E00
018180
010080
030040
030040
030040
018080
01F180
007E00
018F80
010180
0200C0
0200C0
0200C0
0200C0
010180
018380
007E00
000000
000000
000000
ENDCHAR

STARTCHAR a3b9
ENCODING 41913
SWIDTH 960 0
DWIDTH 24 0
BBX 24 24 0 -6
BITMAP
000000
000000
000000
003C00
00C300
018180
010080
0300C0
0300C0
0300C0
0300C0
0100C0
0181C0
007EC0
0000C0
0000C0
0000C0
018080
018180
00C300
003C00
000000
000000
000000
ENDCHAR

STARTCHAR a3ba
ENCODING 41914
SWIDTH 960 0
DWIDTH 24 0
BBX 24 24 0 -6
BITMAP
000000
000000
000000
000000
000000
001C00
001C00
001C00
000000
000000
000000
000000
000000
000000
000000
000000
001C00
001C00
001C00
000000
000000
000000
000000
000000
ENDCHAR

STARTCHAR a3bb
ENCODING 41915
SWIDTH 960 0
DWIDTH 24 0
BBX 24 24 0 -6
BITMAP
000000
000000
000000
000000
000000
001C00
001C00
001C00
000000
000000
000000
000000
000000
000000
000000
000000
001C00
001C00
001C00
000400
000400
000800
000800
000000
ENDCHAR

STARTCHAR a3bc
ENCODING 41916
SWIDTH 960 0
DWIDTH 24 0
BBX 24 24 0 -6
BITMAP
000000
000000
000000
000000
000000
000000
0000C0
000300
000C00
003000
00C000
030000
040000
030000
00C000
003000
000C00
000300
0000C0
000000
000000
000000
000000
000000
ENDCHAR

STARTCHAR a3bd
ENCODING 41917
SWIDTH 960 0
DWIDTH 24 0
BBX 24 24 0 -6
BITMAP
000000
000000
000000
000000
000000
000000
000000
000000
000000
0FFFF0
000000
000000
000000
000000
0FFFF0
000000
000000
000000
000000
000000
000000
000000
000000
000000
ENDCHAR

STARTCHAR a3be
ENCODING 41918
SWIDTH 960 0
DWIDTH 24 0
BBX 24 24 0 -6
BITMAP
000000
000000
000000
000000
000000
000000
060000
018000
006000
001800
000600
000180
000040
000180
000600
001800
006000
018000
060000
000000
000000
000000
000000
000000
ENDCHAR

STARTCHAR a3bf
ENCODING 41919
SWIDTH 960 0
DWIDTH 24 0
BBX 24 24 0 -6
BITMAP
000000
000000
003C00
00C300
008100
018180
018180
000180
000100
000300
000C00
000800
000800
000800
000800
000000
000000
000000
000800
001C00
000800
000000
000000
000000
ENDCHAR

STARTCHAR a3c0
ENCODING 41920
SWIDTH 960 0
DWIDTH 24 0
BBX 24 24 0 -6
BITMAP
000000
000000
000000
007E00
038180
0600C0
040020
0C0030
083B10
186718
18C318
18C318
18C318
18C318
18C318
086710
0C39B0
0400E0
020000
018180
007E00
000000
000000
000000
ENDCHAR

STARTCHAR a3c1
ENCODING 41921
SWIDTH 960 0
DWIDTH 24 0
BBX 24 24 0 -6
BITMAP
000000
000000
000000
001800
001800
002C00
002C00
004600
004600
008300
008300
010180
010180
0200C0
03FFC0
040060
040060
040060
080030
080030
3E00FC
000000
000000
000000
ENDCHAR

STARTCHAR a3c2
ENCODING 41922
SWIDTH 960 0
DWIDTH 24 0
BBX 24 24 0 -6
BITMAP
000000
000000
000000
0FFF80
0300E0
030060
030030
030030
030030
030020
030060
03FFC0
030060
030020
030030
030030
030030
030030
030060
0300E0
0FFF80
000000
000000
000000
ENDCHAR

STARTCHAR a3c3
ENCODING 41923
SWIDTH 960 0
DWIDTH 24 0
BBX 24 24 0 -6
BITMAP
000000
000000
000000
007F10
01C0D0
030070
060030
060030
0C0000
0C0000
0C0000
0C0000
0C0000
0C0000
0C0000
0C0030
060030
060020
030060
01C1C0
007F00
000000
000000
000000
ENDCHAR

STARTCHAR a3c4
ENCODING 41924
SWIDTH 960 0
DWIDTH 24 0
BBX 24 24 0 -6
BITMAP
000000
000000
000000
0FFF00
0301C0
030060
030030
030030
030018
030018
030018
030018
030018
030018
030018
030018
030030
030030
030060
0301C0
0FFF00
000000
000000
000000
ENDCHAR

STARTCHAR a3c5
ENCODING 41925
SWIDTH 960 0
DWIDTH 24 0
BBX 24 24 0 -6
BITMAP
000000
000000
000000
0FFFC0
0300C0
030040
030040
030000
030000
030100
030100
03FF00
030100
030100
030000
030000
030040
030040
030040
0300C0
0FFFC0
000000
000000
000000
ENDCHAR

STARTCHAR a3c6
ENCODING 41926
SWIDTH 960 0
DWIDTH 24 0
BBX 24 24 0 -6
BITMAP
000000
000000
000000
0FFFE0
030060
030020
030020
030000
030000
030080
030080
03FF80
030080
030080
030000
030000
030000
030000
030000
030000
0FE000
000000
000000
000000
ENDCHAR

STARTCHAR a3c7
ENCODING 41927
SWIDTH 960 0
DWIDTH 24 0
BBX 24 24 0 -6
BITMAP
000000
000000
000000
00FE20
0383A0
0600E0
0C0060
0C0020
180000
180000
180000
180000
1803F8
180060
180060
180060
0C0060
0C0060
060060
0381E0
00FF00
000000
000000
000000
ENDCHAR

STARTCHAR a3c8
ENCODING 41928
SWIDTH 960 0
DWIDTH 24 0
BBX 24 24 0 -6
BITMAP
000000
000000
000000
1F81F8
060060
060060
060060
060060
060060
060060
060060
07FFE0
060060
060060
060060
060060
060060
060060
060060
060060
1F81F8
000000
000000
000000
ENDCHAR

STARTCHAR a3c9
ENCODING 41929
SWIDTH 960 0
DWIDTH 24 0
BBX 24 24 0 -6
BITMAP
000000
000000
000000
007E00
001800
001800
001800
001800
001800
001800
001800
001800
001800
001800
001800
001800
001800
001800
001800
001800
007E00
000000
000000
000000
ENDCHAR

STARTCHAR a3ca
ENCODING 41930
SWIDTH 960 0
DWIDTH 24 0
BBX 24 24 0 -6
BITMAP
000000
000000
000000
003F80
000600
000600
000600
000600
000600
000600
000600
000600
000600
000600
000600
000600
000600
070600
070600
060400
030C00
00F000
000000
000000
ENDCHAR

STARTCHAR a3cb
ENCODING 41931
SWIDTH 960 0
DWIDTH 24 0
BBX 24 24 0 -6
BITMAP
000000
000000
000000
1F8FF0
060180
060300
060600
060C00
061800
063000
066000
06E000
07F000
073800
061C00
060E00
060700
060380
0601C0
0600E0
1F87F8
000000
000000
000000
ENDCHAR

STARTCHAR a3cc
ENCODING 41932
SWIDTH 960 0
DWIDTH 24 0
BBX 24 24 0 -6
BITMAP
000000
000000
000000
0FE000
030000
030000
030000
030000
030000
030000
030000
030000
030000
030000
030000
030000
030010
030010
030010
030030
0FFFF0
000000
000000
000000
ENDCHAR

STARTCHAR a3cd
ENCODING 41933
SWIDTH 960 0
DWIDTH 24 0
BBX 24 24 0 -6
BITMAP
000000
000000
000000
3E007C
0E0070
0F00B0
0B00B0
0B00B0
098130
098130
098130
08C230
08C230
08C230
086430
086430
086430
083830
083830
081030
3E10FC
000000
000000
000000
ENDCHAR

STARTCHAR a3ce
ENCODING 41934
SWIDTH 960 0
DWIDTH 24 0
BBX 24 24 0 -6
BITMAP
000000
000000
000000
0F00F8
038020
038020
03C020
02E020
026020
023020
023820
021820
020C20
020E20
020620
020320
0203A0
0201A0
0200E0
0200E0
0F8060
000000
000000
000000
ENDCHAR

STARTCHAR a3cf
ENCODING 41935
SWIDTH 960 0
DWIDTH 24 0
BBX 24 24 0 -6
BITMAP
000000
000000
000000
00FE00
038380
0600C0
0C0060
0C0060
180070
180030
180030
180030
180030
180030
180030
180030
0C0060
0C0060
0600C0
038380
00FE00
000000
000000
000000
ENDCHAR

STARTCHAR a3d0
ENCODING 41936
SWIDTH 960 0
DWIDTH 24 0
BBX 24 24 0 -6
BITMAP
000000
000000
000000
07FF00
0181C0
018060
018020
018030
018030
018030
018020
018060
0181C0
01FF00
018000
018000
018000
018000
018000
018000
07E000
000000
000000
000000
ENDCHAR

STARTCHAR a3d1
ENCODING 41937
SWIDTH 960 0
DWIDTH 24 0
BBX 24 24 0 -6
BITMAP
000000
000000
000000
00FC00
038700
060180
0C00C0
0C00C0
180060
180060
180060
180060
180060
180060
187860
0C8CC0
0D06C0
070780
038700
00FF00
000308
000390
0001E0
000000
ENDCHAR

STARTCHAR a3d2
ENCODING 41938
SWIDTH 960 0
DWIDTH 24 0
BBX 24 24 0 -6
BITMAP
000000
000000
000000
1FFE00
060380
060180
0600C0
0600C0
0600C0
0600C0
060180
060300
07FC00
060600
060300
060300
060180
060180
060180
0600C0
1F80F0
000000
000000
000000
ENDCHAR

STARTCHAR a3d3
ENCODING 41939
SWIDTH 960 0
DWIDTH 24 0
BBX 24 24 0 -6
BITMAP
000000
000000
000000
00FE40
0303C0
0200C0
060060
060020
060020
030000
03F800
00FF00
000FC0
0000C0
000060
040060
040060
060060
030040
03C0C0
027F00
000000
000000
000000
ENDCHAR

STARTCHAR a3d4
ENCODING 41940
SWIDTH 960 0
DWIDTH 24 0
BBX 24 24 0 -6
BITMAP
000000
000000
000000
0FFFF0
0C1830
081810
081810
081810
001800
001800
001800
001800
001800
001800
001800
001800
001800
001800
001800
001800
00FF00
000000
000000
000000
ENDCHAR

STARTCHAR a3d5
ENCODING 41941
SWIDTH 960 0
DWIDTH 24 0
BBX 24 24 0 -6
BITMAP
000000
000000
000000
1F81F8
060060
060060
060060
060060
060060
060060
060060
060060
060060
060060
060060
060060
060060
0300C0
0300C0
018180
007E00
000000
000000
000000
ENDCHAR

STARTCHAR a3d6
ENCODING 41942
SWIDTH 960 0
DWIDTH 24 0
BBX 24 24 0 -6
BITMAP
000000
000000
000000
1F80F8
060020
060020
030040
030040
030040
018080
018080
00C100
00C100
00C100
006200
006200
003400
003400
003C00
001800
001800
000000
000000
000000
ENDCHAR

STARTCHAR a3d7
ENCODING 41943
SWIDTH 960 0
DWIDTH 24 0
BBX 24 24 0 -6
BITMAP
000000
000000
000000
7E7F3E
181C08
181C08
181C08
0C2610
0C2610
0C2610
0C2610
064320
064320
064320
064320
0381C0
0381C0
0381C0
0381C0
010080
010080
000000
000000
000000
ENDCHAR

STARTCHAR a3d8
ENCODING 41944
SWIDTH 960 0
DWIDTH 24 0
BBX 24 24 0 -6
BITMAP
000000
000000
000000
1F83E0
060080
030100
030200
018200
00C400
00C800
007800
003000
003800
004C00
004C00
008600
010300
010300
020180
0400C0
1F07F0
000000
000000
000000
ENDCHAR

STARTCHAR a3d9
ENCODING 41945
SWIDTH 960 0
DWIDTH 24 0
BBX 24 24 0 -6
BITMAP
000000
000000
000000
1F80F8
060020
060020
030040
018080
018080
00C100
006200
006200
003400
001800
001800
001800
001800
001800
001800
001800
007E00
000000
000000
000000
ENDCHAR

STARTCHAR a3da
ENCODING 41946
SWIDTH 960 0
DWIDTH 24 0
BBX 24 24 0 -6
BITMAP
000000
000000
000000
07FFC0
0601C0
040180
040380
000700
000600
000E00
001C00
001800
003800
007000
006000
00E000
01C000
018040
038040
0700C0
07FFC0
000000
000000
000000
ENDCHAR

STARTCHAR a3db
ENCODING 41947
SWIDTH 960 0
DWIDTH 24 0
BBX 24 24 0 -6
BITMAP
000000
000000
00007C
000040
000040
000040
000040
000040
000040
000040
000040
000040
000040
000040
000040
000040
000040
000040
000040
000040
000040
00007C
000000
000000
ENDCHAR

STARTCHAR a3dc
ENCODING 41948
SWIDTH 960 0
DWIDTH 24 0
BBX 24 24 0 -6
BITMAP
000000
000000
000000
3F7EF8
0C1820
0C1820
0C1820
0C1820
062C40
3FFFF8
062C40
062C40
062C40
3FFFF8
034680
034680
034680
03C780
018300
018300
018300
000000
000000
000000
ENDCHAR

STARTCHAR a3dd
ENCODING 41949
SWIDTH 960 0
DWIDTH 24 0
BBX 24 24 0 -6
BITMAP
000000
000000
3E0000
020000
020000
020000
020000
020000
020000
020000
020000
020000
020000
020000
020000
020000
020000
020000
020000
020000
020000
3E0000
000000
000000
ENDCHAR

STARTCHAR a3de
ENCODING 41950
SWIDTH 960 0
DWIDTH 24 0
BBX 24 24 0 -6
BITMAP
000000
000000
001800
003C00
006600
00C300
008100
000000
000000
000000
000000
000000
000000
000000
000000
000000
000000
000000
000000
000000
000000
000000
000000
000000
ENDCHAR

STARTCHAR a3df
ENCODING 41951
SWIDTH 960 0
DWIDTH 24 0
BBX 24 24 0 -6
BITMAP
000000
000000
000000
000000
000000
000000
000000
000000
000000
000000
000000
000000
000000
000000
000000
000000
000000
000000
000000
000000
000000
000000
7FFFFE
000000
ENDCHAR

STARTCHAR a3e0
ENCODING 41952
SWIDTH 960 0
DWIDTH 24 0
BBX 24 24 0 -6
BITMAP
000000
000000
300000
380000
180000
0C0000
040000
000000
000000
000000
000000
000000
000000
000000
000000
000000
000000
000000
000000
000000
000000
000000
000000
000000
ENDCHAR

STARTCHAR a3e1
ENCODING 41953
SWIDTH 960 0
DWIDTH 24 0
BBX 24 24 0 -6
BITMAP
000000
000000
000000
000000
000000
000000
000000
000000
00FC00
018600
030300
030300
000300
007F00
018300
030300
030300
030300
030320
018720
00F9C0
000000
000000
000000
ENDCHAR

STARTCHAR a3e2
ENCODING 41954
SWIDTH 960 0
DWIDTH 24 0
BBX 24 24 0 -6
BITMAP
000000
000000
000000
00C000
03C000
00C000
00C000
00C000
00DE00
00E380
00C180
00C0C0
00C0C0
00C0C0
00C0C0
00C0C0
00C0C0
00C0C0
00C180
00E380
009E00
000000
000000
000000
ENDCHAR

STARTCHAR a3e3
ENCODING 41955
SWIDTH 960 0
DWIDTH 24 0
BBX 24 24 0 -6
BITMAP
000000
000000
000000
000000
000000
000000
000000
000000
007C00
018600
030300
020300
060000
060000
060000
060000
060000
020300
030300
018600
007C00
000000
000000
000000
ENDCHAR

STARTCHAR a3e4
ENCODING 41956
SWIDTH 960 0
DWIDTH 24 0
BBX 24 24 0 -6
BITMAP
000000
000000
000000
000180
000780
000180
000180
000180
003D80
00C380
018180
010180
030180
030180
030180
030180
030180
010180
018180
00C380
003CC0
000000
000000
000000
ENDCHAR

STARTCHAR a3e5
ENCODING 41957
SWIDTH 960 0
DWIDTH 24 0
BBX 24 24 0 -6
BITMAP
000000
000000
000000
000000
000000
000000
000000
000000
003800
00C600
018300
010100
030180
030180
03FF80
030000
030000
010180
018100
00C200
003C00
000000
000000
000000
ENDCHAR

STARTCHAR a3e6
ENCODING 41958
SWIDTH 960 0
DWIDTH 24 0
BBX 24 24 0 -6
BITMAP
000000
000000
000000
003C00
004600
004600
00C000
00C000
00C000
03F800
00C000
00C000
00C000
00C000
00C000
00C000
00C000
00C000
00C000
00C000
03F000
000000
000000
000000
ENDCHAR

STARTCHAR a3e7
ENCODING 41959
SWIDTH 960 0
DWIDTH 24 0
BBX 24 24 0 -6
BITMAP
000000
000000
000000
000000
000000
000000
000000
0000C0
00FDC0
018600
030300
030300
018600
01FC00
030000
030000
01FC00
03FF00
060380
060180
060180
030300
00FE00
000000
ENDCHAR

STARTCHAR a3e8
ENCODING 41960
SWIDTH 960 0
DWIDTH 24 0
BBX 24 24 0 -6
BITMAP
000000
000000
000000
018000
078000
018000
018000
018000
01BE00
01C300
018180
018180
018180
018180
018180
018180
018180
018180
018180
018180
07E7E0
000000
000000
000000
ENDCHAR

STARTCHAR a3e9
ENCODING 41961
SWIDTH 960 0
DWIDTH 24 0
BBX 24 24 0 -6
BITMAP
000000
000000
000000
001800
001800
000000
000000
000000
007800
001800
001800
001800
001800
001800
001800
001800
001800
001800
001800
001800
007E00
000000
000000
000000
ENDCHAR

STARTCHAR a3ea
ENCODING 41962
SWIDTH 960 0
DWIDTH 24 0
BBX 24 24 0 -6
BITMAP
000000
000000
000000
000C00
000C00
000000
000000
000000
000C00
007C00
000C00
000C00
000C00
000C00
000C00
000C00
000C00
000C00
000C00
000C00
018C00
018800
00F000
000000
ENDCHAR

STARTCHAR a3eb
ENCODING 41963
SWIDTH 960 0
DWIDTH 24 0
BBX 24 24 0 -6
BITMAP
000000
000000
000000
030000
0F0000
030000
030000
030000
030FC0
030200
030400
030800
031000
032000
037000
039800
030C00
030600
030300
030180
0FC7E0
000000
000000
000000
ENDCHAR

STARTCHAR a3ec
ENCODING 41964
SWIDTH 960 0
DWIDTH 24 0
BBX 24 24 0 -6
BITMAP
000000
000000
000000
007800
001800
001800
001800
001800
001800
001800
001800
001800
001800
001800
001800
001800
001800
001800
001800
001800
007E00
000000
000000
000000
ENDCHAR

STARTCHAR a3ed
ENCODING 41965
SWIDTH 960 0
DWIDTH 24 0
BBX 24 24 0 -6
BITMAP
000000
000000
000000
000000
000000
000000
000000
000000
39F1E0
1A3A30
1C1C18
181818
181818
181818
181818
181818
181818
181818
181818
181818
3C3C3C
000000
000000
000000
ENDCHAR

STARTCHAR a3ee
ENCODING 41966
SWIDTH 960 0
DWIDTH 24 0
BBX 24 24 0 -6
BITMAP
000000
000000
000000
000000
000000
000000
000000
000000
03BF00
01C180
0180C0
0180C0
0180C0
0180C0
0180C0
0180C0
0180C0
0180C0
0180C0
0180C0
03C1E0
000000
000000
000000
ENDCHAR

STARTCHAR a3ef
ENCODING 41967
SWIDTH 960 0
DWIDTH 24 0
BBX 24 24 0 -6
BITMAP
000000
000000
000000
000000
000000
000000
000000
000000
003C00
00C300
018180
010080
0300C0
0300C0
0300C0
0300C0
0300C0
010080
018180
00C300
003C00
000000
000000
000000
ENDCHAR

STARTCHAR a3f0
ENCODING 41968
SWIDTH 960 0
DWIDTH 24 0
BBX 24 24 0 -6
BITMAP
000000
000000
000000
000000
000000
000000
000000
000000
01BC00
03C300
018180
018080
0180C0
0180C0
0180C0
0180C0
018080
018180
01C300
01BC00
018000
018000
03C000
000000
ENDCHAR

STARTCHAR a3f1
ENCODING 41969
SWIDTH 960 0
DWIDTH 24 0
BBX 24 24 0 -6
BITMAP
000000
000000
000000
000000
000000
000000
000000
000000
003C80
00C380
018180
010180
030180
030180
030180
030180
010180
018180
00C380
003D80
000180
000180
0003C0
000000
ENDCHAR

STARTCHAR a3f2
ENCODING 41970
SWIDTH 960 0
DWIDTH 24 0
BBX 24 24 0 -6
BITMAP
000000
000000
000000
000000
000000
000000
000000
000000
00C300
01CF00
00D000
00E000
00E000
00C000
00C000
00C000
00C000
00C000
00C000
00C000
01F000
000000
000000
000000
ENDCHAR

STARTCHAR a3f3
ENCODING 41971
SWIDTH 960 0
DWIDTH 24 0
BBX 24 24 0 -6
BITMAP
000000
000000
000000
000000
000000
000000
000000
000000
007D00
00C300
018180
018080
018000
00E000
003E00
000300
010180
010180
018180
01C300
013E00
000000
000000
000000
ENDCHAR

STARTCHAR a3f4
ENCODING 41972
SWIDTH 960 0
DWIDTH 24 0
BBX 24 24 0 -6
BITMAP
000000
000000
000000
000000
002000
002000
002000
006000
01FE00
006000
006000
006000
006000
006000
006000
006000
006000
006000
006100
003300
001E00
000000
000000
000000
ENDCHAR

STARTCHAR a3f5
ENCODING 41973
SWIDTH 960 0
DWIDTH 24 0
BBX 24 24 0 -6
BITMAP
000000
000000
000000
000000
000000
000000
000000
000000
030180
0F0780
030180
030180
030180
030180
030180
030180
030180
030180
030180
018380
00FCE0
000000
000000
000000
ENDCHAR

STARTCHAR a3f6
ENCODING 41974
SWIDTH 960 0
DWIDTH 24 0
BBX 24 24 0 -6
BITMAP
000000
000000
000000
000000
000000
000000
000000
000000
0FC3E0
030080
030080
018100
018100
00C200
00C200
006400
006400
003800
003800
001000
001000
000000
000000
000000
ENDCHAR

STARTCHAR a3f7
ENCODING 41975
SWIDTH 960 0
DWIDTH 24 0
BBX 24 24 0 -6
BITMAP
000000
000000
000000
000000
000000
000000
000000
000000
3F7EF8
0C1820
0C1820
0C1820
062C40
062C40
062C40
034680
034680
034680
018300
018300
018300
000000
000000
000000
ENDCHAR

STARTCHAR a3f8
ENCODING 41976
SWIDTH 960 0
DWIDTH 24 0
BBX 24 24 0 -6
BITMAP
000000
000000
000000
000000
000000
000000
000000
000000
07E3E0
018080
01C180
00E300
007600
003C00
001800
003C00
006E00
00C700
018380
010180
0787E0
000000
000000
000000
ENDCHAR

STARTCHAR a3f9
ENCODING 41977
SWIDTH 960 0
DWIDTH 24 0
BBX 24 24 0 -6
BITMAP
000000
000000
000000
000000
000000
000000
000000
000000
07E3E0
018080
00C080
00C100
00C100
006100
006200
006200
003400
003400
003800
001800
063000
066000
03C000
000000
ENDCHAR

STARTCHAR a3fa
ENCODING 41978
SWIDTH 960 0
DWIDTH 24 0
BBX 24 24 0 -6
BITMAP
000000
000000
000000
000000
000000
000000
000000
000000
01FF80
018180
010300
010600
010400
000C00
001800
003000
002000
006080
00C080
018180
01FF80
000000
000000
000000
ENDCHAR

STARTCHAR a3fb
ENCODING 41979
SWIDTH 960 0
DWIDTH 24 0
BBX 24 24 0 -6
BITMAP
000000
000000
00001C
000030
000020
000060
000060
000060
000040
000040
000080
000300
000080
000040
000040
000060
000060
000060
000060
000020
000030
00001C
000000
000000
ENDCHAR

STARTCHAR a3fc
ENCODING 41980
SWIDTH 960 0
DWIDTH 24 0
BBX 24 24 0 -6
BITMAP
000000
000000
001000
001000
001000
001000
001000
001000
001000
001000
001000
001000
001000
001000
001000
001000
001000
001000
001000
001000
001000
001000
000000
000000
ENDCHAR

STARTCHAR a3fd
ENCODING 41981
SWIDTH 960 0
DWIDTH 24 0
BBX 24 24 0 -6
BITMAP
000000
000000
380000
0C0000
040000
060000
060000
060000
020000
020000
010000
00C000
010000
020000
020000
060000
060000
060000
060000
040000
0C0000
380000
000000
000000
ENDCHAR

STARTCHAR a3fe
ENCODING 41982
SWIDTH 960 0
DWIDTH 24 0
BBX 24 24 0 -6
BITMAP
000000
7FFFFE
000000
000000
000000
000000
000000
000000
000000
000000
000000
000000
000000
000000
000000
000000
000000
000000
000000
000000
000000
000000
000000
000000
ENDCHAR

STARTCHAR a4a1
ENCODING 42145
SWIDTH 960 0
DWIDTH 24 0
BBX 24 24 0 -6
BITMAP
000000
000000
000000
000000
000000
0800C0
07FFE0
0300C0
0000C0
0000C0
0000C0
0000C0
0000C0
0000C0
0000C0
0000C0
0000C0
0000C0
000080
000000
000000
000000
000000
000000
ENDCHAR

STARTCHAR a4a2
ENCODING 42146
SWIDTH 960 0
DWIDTH 24 0
BBX 24 24 0 -6
BITMAP
000000
000000
000000
000000
000000
203018
1FFFFC
0C3618
003018
003018
003018
003018
003018
003018
003018
003018
003018
003018
002010
000000
000000
000000
000000
000000
ENDCHAR

STARTCHAR a4a3
ENCODING 42147
SWIDTH 960 0
DWIDTH 24 0
BBX 24 24 0 -6
BITMAP
000000
000000
000000
000000
000000
40C380
3FE0E0
10C0C0
00C0C0
00C0C0
00C180
00C180
00C1C0
00C370
00C238
00C61C
00C40E
00C806
009000
000000
000000
000000
000000
000000
ENDCHAR

STARTCHAR a4a4
ENCODING 42148
SWIDTH 960 0
DWIDTH 24 0
BBX 24 24 0 -6
BITMAP
000000
000000
000000
000000
000000
1C0000
070000
030000
030000
030000
030000
030000
030000
030000
030000
030000
0300E0
01FFF0
000000
000000
000000
000000
000000
000000
ENDCHAR

STARTCHAR a4a5
ENCODING 42149
SWIDTH 960 0
DWIDTH 24 0
BBX 24 24 0 -6
BITMAP
000000
000000
000000
000000
000000
701030
180FF8
180430
180060
180060
1800C0
1800C0
1801E0
1801B0
180318
18061C
18740E
1FC80E
0E1006
000000
000000
000000
000000
000000
ENDCHAR

STARTCHAR a4a6
ENCODING 42150
SWIDTH 960 0
DWIDTH 24 0
BBX 24 24 0 -6
BITMAP
000000
000000
000000
000000
000000
000700
7001F0
1C0000
0C200C
0C1FFE
0C0880
0C0060
0C00C0
0C0330
0C0618
0C0618
0C3618
0FC330
0701E0
000000
000000
000000
000000
000000
ENDCHAR

STARTCHAR a4a7
ENCODING 42151
SWIDTH 960 0
DWIDTH 24 0
BBX 24 24 0 -6
BITMAP
000000
000000
000000
000000
000000
1E01C0
07FFE0
030000
030000
030000
030000
030000
030000
030000
030000
030000
0300E0
01FFF0
000000
000000
000000
000000
000000
000000
ENDCHAR

STARTCHAR a4a8
ENCODING 42152
SWIDTH 960 0
DWIDTH 24 0
BBX 24 24 0 -6
BITMAP
000000
000000
000000
000000
000000
707838
1F9FFC
180C00
180C00
180C00
180C00
180C00
180C00
180C00
180C00
183C00
1FCC1C
0E07FE
000000
000000
000000
000000
000000
000000
ENDCHAR

STARTCHAR a4a9
ENCODING 42153
SWIDTH 960 0
DWIDTH 24 0
BBX 24 24 0 -6
BITMAP
000000
000000
000000
000000
000000
080180
07FFC0
030180
000180
000180
000180
0E0100
07FFC0
030000
030000
030000
030000
0300E0
01FFF0
000000
000000
000000
000000
000000
ENDCHAR

STARTCHAR a4aa
ENCODING 42154
SWIDTH 960 0
DWIDTH 24 0
BBX 24 24 0 -6
BITMAP
000000
000000
000000
000000
000000
206818
1FF7FC
086218
006018
006018
306018
1FE018
180018
180018
180018
180018
183018
0FF810
000000
000000
000000
000000
000000
000000
ENDCHAR

STARTCHAR a4ab
ENCODING 42155
SWIDTH 960 0
DWIDTH 24 0
BBX 24 24 0 -6
BITMAP
000000
000000
000000
000000
000000
40DC18
3FEFFC
10C618
00C618
00C618
60C618
3FC618
300618
300618
300618
306618
3F87FC
1C0400
000000
000000
000000
000000
000000
000000
ENDCHAR

STARTCHAR a4ac
ENCODING 42156
SWIDTH 960 0
DWIDTH 24 0
BBX 24 24 0 -6
BITMAP
000000
000000
000000
000000
000000
40CE38
3FE30C
10C30C
00C30C
00C30C
70C3FC
1FC30C
18030C
18030C
18030C
18330C
1FC3FC
0E0208
000000
000000
000000
000000
000000
000000
ENDCHAR

STARTCHAR a4ad
ENCODING 42157
SWIDTH 960 0
DWIDTH 24 0
BBX 24 24 0 -6
BITMAP
000000
000000
000000
000000
000000
4061C0
3FF070
186060
006060
006060
7060C0
1FE0C0
1800A0
180198
18010C
18320E
1FC406
0F0806
000000
000000
000000
000000
000000
000000
ENDCHAR

STARTCHAR a4ae
ENCODING 42158
SWIDTH 960 0
DWIDTH 24 0
BBX 24 24 0 -6
BITMAP
000000
000000
000000
000000
000000
40DC18
3FE7FC
10C600
00C600
00C600
60C630
3FC7F8
300600
300600
300600
306600
3F860C
1C03FE
000000
000000
000000
000000
000000
000000
ENDCHAR

STARTCHAR a4af
ENCODING 42159
SWIDTH 960 0
DWIDTH 24 0
BBX 24 24 0 -6
BITMAP
000000
000000
000000
000000
000000
419018
3FCFFC
118400
018060
018430
618230
3F8220
300320
300320
300240
30C04C
3F1FFE
180C00
000000
000000
000000
000000
000000
000000
ENDCHAR

STARTCHAR a4b0
ENCODING 42160
SWIDTH 960 0
DWIDTH 24 0
BBX 24 24 0 -6
BITMAP
000000
000000
000000
000000
000380
40C0F0
3FE000
10D00C
00CFFE
00C440
70C060
1FC0F0
180198
18030C
18030C
18330C
1FC198
0E00F0
000000
000000
000000
000000
000000
000000
ENDCHAR

STARTCHAR a4b1
ENCODING 42161
SWIDTH 960 0
DWIDTH 24 0
BBX 24 24 0 -6
BITMAP
000000
000000
000000
000000
000000
0E0060
03FFF0
030060
030060
030060
030060
030060
030060
030060
030060
030060
030060
03FFF0
030000
000000
000000
000000
000000
000000
ENDCHAR

STARTCHAR a4b2
ENCODING 42162
SWIDTH 960 0
DWIDTH 24 0
BBX 24 24 0 -6
BITMAP
000000
000000
000000
000000
000700
1C01C0
0700C0
0300C0
0300C0
0300C0
03FFC0
0300C0
0300C0
0300C0
0300C0
0300C0
03FFC0
0300C0
020080
000000
000000
000000
000000
000000
ENDCHAR

STARTCHAR a4b3
ENCODING 42163
SWIDTH 960 0
DWIDTH 24 0
BBX 24 24 0 -6
BITMAP
000000
000000
000000
000000
000000
000038
01CE0C
70630C
18630C
18630C
18630C
1FE3FC
18630C
18630C
18630C
18630C
1FE3FC
18630C
104208
000000
000000
000000
000000
000000
ENDCHAR

STARTCHAR a4b4
ENCODING 42164
SWIDTH 960 0
DWIDTH 24 0
BBX 24 24 0 -6
BITMAP
000000
000000
000000
000000
000000
018380
60E0E0
3860C0
1860C0
1861C0
186180
1FE180
186340
186220
186618
18640C
1FE80E
187006
104000
000000
000000
000000
000000
000000
ENDCHAR

STARTCHAR a4b5
ENCODING 42165
SWIDTH 960 0
DWIDTH 24 0
BBX 24 24 0 -6
BITMAP
000000
000000
000000
000000
000000
006000
003800
001C00
001800
001800
003000
003000
006800
00C600
018380
0301C0
0600E0
180060
000000
000000
000000
000000
000000
000000
ENDCHAR

STARTCHAR a4b6
ENCODING 42166
SWIDTH 960 0
DWIDTH 24 0
BBX 24 24 0 -6
BITMAP
000000
000000
000000
000000
000000
030180
01C0E0
0180C0
0180C0
0381C0
030180
0381C0
06E360
067330
0C3618
181C1C
30180C
40300C
000000
000000
000000
000000
000000
000000
ENDCHAR

STARTCHAR a4b7
ENCODING 42167
SWIDTH 960 0
DWIDTH 24 0
BBX 24 24 0 -6
BITMAP
000000
000000
000000
000000
003800
001C00
001800
007E00
018180
0300C0
020040
060060
060060
060060
060060
060060
0300C0
0381C0
01FF80
007E00
000000
000000
000000
000000
ENDCHAR

STARTCHAR a4b8
ENCODING 42168
SWIDTH 960 0
DWIDTH 24 0
BBX 24 24 0 -6
BITMAP
000000
000000
000000
000000
000000
000000
080180
07FFC0
030380
000700
000E00
001C00
003800
007400
00E300
01C1C0
0300E0
060070
180030
000000
000000
000000
000000
000000
ENDCHAR

STARTCHAR a4b9
ENCODING 42169
SWIDTH 960 0
DWIDTH 24 0
BBX 24 24 0 -6
BITMAP
000000
000000
000000
000000
000000
40D030
3FEFF8
10C430
018070
018060
0300E0
0300C0
0781E0
06C1B0
0C6318
08721C
10340C
20380E
401006
000000
000000
000000
000000
000000
ENDCHAR

STARTCHAR a4ba
ENCODING 42170
SWIDTH 960 0
DWIDTH 24 0
BBX 24 24 0 -6
BITMAP
000000
000000
000000
020000
01FC00
007C00
000000
080180
07FFC0
020380
000700
000E00
001C00
003800
007400
00E300
01C1C0
0300E0
060070
180030
000000
000000
000000
000000
ENDCHAR

STARTCHAR a4bb
ENCODING 42171
SWIDTH 960 0
DWIDTH 24 0
BBX 24 24 0 -6
BITMAP
000000
000000
000000
000000
000000
080060
07FFF0
030060
000060
000060
000060
020060
01FFE0
008060
000060
000060
000060
000060
000060
000040
000000
000000
000000
000000
ENDCHAR

STARTCHAR a4bc
ENCODING 42172
SWIDTH 960 0
DWIDTH 24 0
BBX 24 24 0 -6
BITMAP
000000
000000
000000
000000
000000
1C0180
0FFFC0
060000
060000
060000
060000
060180
07FFC0
060000
060000
060000
060000
0600C0
03FFE0
000000
000000
000000
000000
000000
ENDCHAR

STARTCHAR a4bd
ENCODING 42173
SWIDTH 960 0
DWIDTH 24 0
BBX 24 24 0 -6
BITMAP
000000
000000
000000
000000
000000
080060
07FFF0
030000
000200
000180
0101C0
008180
00C180
006100
006100
004200
100238
0FFFFC
060000
000000
000000
000000
000000
000000
ENDCHAR

STARTCHAR a4be
ENCODING 42174
SWIDTH 960 0
DWIDTH 24 0
BBX 24 24 0 -6
BITMAP
000000
000000
000000
010000
00FF00
003F00
000000
40000C
3FFFFE
180800
000C00
001800
007F00
00C180
0180C0
0180C0
0180C0
01C1C0
00FF80
007F00
000000
000000
000000
000000
ENDCHAR

STARTCHAR a4bf
ENCODING 42175
SWIDTH 960 0
DWIDTH 24 0
BBX 24 24 0 -6
BITMAP
000000
00E000
003800
001800
001800
001800
001800
001800
001800
0018C0
001FE0
001800
001800
001800
001800
001800
001800
001800
001800
001800
001800
001800
001000
000000
ENDCHAR

STARTCHAR a4c0
ENCODING 42176
SWIDTH 960 0
DWIDTH 24 0
BBX 24 24 0 -6
BITMAP
000000
000E00
000380
000180
018180
00E180
006180
006180
006180
006180
006180
007F80
006180
006180
006180
006180
006180
006180
006180
006180
004180
000180
000100
000000
ENDCHAR

STARTCHAR a4c1
ENCODING 42177
SWIDTH 960 0
DWIDTH 24 0
BBX 24 24 0 -6
BITMAP
000000
00E000
003800
001800
001800
001800
0018C0
001FE0
001800
001800
001800
001800
0018C0
001FE0
001800
001800
001800
001800
001800
001800
001800
001800
001000
000000
ENDCHAR

STARTCHAR a4c2
ENCODING 42178
SWIDTH 960 0
DWIDTH 24 0
BBX 24 24 0 -6
BITMAP
000000
000E00
000380
000180
038180
00E180
006180
006180
007F80
006180
006180
006180
006180
006180
007F80
006180
006180
006180
006180
006180
004180
000180
000100
000000
ENDCHAR

STARTCHAR a4c3
ENCODING 42179
SWIDTH 960 0
DWIDTH 24 0
BBX 24 24 0 -6
BITMAP
000000
001C00
000700
000300
000300
000300
000300
000300
000300
000300
020300
01FF00
00C300
000300
000300
000300
000300
000300
000300
000300
000300
000300
000200
000000
ENDCHAR

STARTCHAR a4c4
ENCODING 42180
SWIDTH 960 0
DWIDTH 24 0
BBX 24 24 0 -6
BITMAP
000000
000700
0001C0
0000C0
00E0C0
0038C0
0018C0
0018C0
0018C0
0018C0
0818C0
07F8C0
0318C0
0018C0
0018C0
0018C0
0018C0
0018C0
0018C0
0018C0
0010C0
0000C0
000080
000000
ENDCHAR

STARTCHAR a4c5
ENCODING 42181
SWIDTH 960 0
DWIDTH 24 0
BBX 24 24 0 -6
BITMAP
000000
001C00
000700
000300
000300
000300
000300
020300
01FF00
00C300
000300
000300
000300
020300
01FF00
00C300
000300
000300
000300
000300
000300
000300
000200
000000
ENDCHAR

STARTCHAR a4c6
ENCODING 42182
SWIDTH 960 0
DWIDTH 24 0
BBX 24 24 0 -6
BITMAP
000000
000380
0000E0
007060
001C60
000C60
000C60
040C60
03FC60
010C60
000C60
000C60
000C60
040C60
03FC60
010C60
000C60
000C60
000C60
000C60
000860
000060
000040
000000
ENDCHAR

STARTCHAR a4c7
ENCODING 42183
SWIDTH 960 0
DWIDTH 24 0
BBX 24 24 0 -6
BITMAP
000000
000000
000000
000000
000000
006000
003800
001800
001800
001800
001800
001800
001800
001800
40180C
3FFFFE
180000
000000
000000
000000
000000
000000
000000
000000
ENDCHAR

STARTCHAR a4c8
ENCODING 42184
SWIDTH 960 0
DWIDTH 24 0
BBX 24 24 0 -6
BITMAP
000000
000E00
000380
000180
000180
000180
060180
038180
018180
018180
01818E
0181FC
018780
019980
01E180
7F8180
1C0180
000180
000180
000180
000180
000180
000100
000000
ENDCHAR

STARTCHAR a4c9
ENCODING 42185
SWIDTH 960 0
DWIDTH 24 0
BBX 24 24 0 -6
BITMAP
000000
000070
00001C
00000C
001C0C
00070C
00030C
00030C
0C030C
07030C
03030C
0303FC
03070C
033B0C
03E30C
7F830C
1C030C
00030C
00030C
00030C
00020C
00000C
000008
000000
ENDCHAR

STARTCHAR a4ca
ENCODING 42186
SWIDTH 960 0
DWIDTH 24 0
BBX 24 24 0 -6
BITMAP
000000
000380
0000E0
000060
000060
000060
060060
038060
018060
018060
018060
018060
0181E0
018E60
01F060
7F8060
1C0060
000060
000060
000060
000060
000060
000040
000000
ENDCHAR

STARTCHAR a4cb
ENCODING 42187
SWIDTH 960 0
DWIDTH 24 0
BBX 24 24 0 -6
BITMAP
000000
000000
000000
000000
000000
000E00
000380
030180
01C180
00C180
00C180
00C180
00C180
00C180
40C18C
3FFFFE
180000
000000
000000
000000
000000
000000
000000
000000
ENDCHAR

STARTCHAR a4cc
ENCODING 42188
SWIDTH 960 0
DWIDTH 24 0
BBX 24 24 0 -6
BITMAP
000000
000000
000000
000000
000000
000000
000000
40001C
3FFFFE
181800
001800
001800
001800
001800
001800
001800
001800
001800
001800
001800
001800
001800
001000
000000
ENDCHAR

STARTCHAR a4cd
ENCODING 42189
SWIDTH 960 0
DWIDTH 24 0
BBX 24 24 0 -6
BITMAP
000000
000380
0000E0
000060
000060
000060
000060
000060
000060
0003E0
007C60
7FC060
398060
0181E0
019E60
018460
018060
018060
018060
018060
010060
000060
000040
000000
ENDCHAR

STARTCHAR a4ce
ENCODING 42190
SWIDTH 960 0
DWIDTH 24 0
BBX 24 24 0 -6
BITMAP
000000
0001C0
000070
000030
003830
000E30
000630
000630
000630
000630
001E30
01E630
7F0630
3B0630
030E30
037630
032630
030630
030630
020630
000430
000030
000020
000000
ENDCHAR

STARTCHAR a4cf
ENCODING 42191
SWIDTH 960 0
DWIDTH 24 0
BBX 24 24 0 -6
BITMAP
000000
000380
0000E0
000060
000060
000060
000060
000060
000060
0003E0
007C60
7FC060
38C060
00C060
00C060
00C060
00C060
00C060
00C060
00C060
008060
000060
000040
000000
ENDCHAR

STARTCHAR a4d0
ENCODING 42192
SWIDTH 960 0
DWIDTH 24 0
BBX 24 24 0 -6
BITMAP
000000
000000
000000
000000
000000
000000
000000
40001C
3FFFFE
18C300
00C300
00C300
00C300
00C300
00C300
00C300
00C300
00C300
00C300
00C300
00C300
008300
000200
000000
ENDCHAR

STARTCHAR a4d1
ENCODING 42193
SWIDTH 960 0
DWIDTH 24 0
BBX 24 24 0 -6
BITMAP
000000
000000
000000
000000
000000
000000
000000
000000
000000
000000
40001C
3FFFFE
180000
000000
000000
000000
000000
000000
000000
000000
000000
000000
000000
000000
ENDCHAR

STARTCHAR a4d2
ENCODING 42194
SWIDTH 960 0
DWIDTH 24 0
BBX 24 24 0 -6
BITMAP
000000
000380
0000E0
000060
000060
000060
000060
000060
000060
000060
000060
0001E0
000E60
40F060
3F8060
0C0060
000060
000060
000060
000060
000060
000060
000040
000000
ENDCHAR

STARTCHAR a4d3
ENCODING 42195
SWIDTH 960 0
DWIDTH 24 0
BBX 24 24 0 -6
BITMAP
000000
00E000
003800
001800
001800
001800
001800
001800
001800
001800
001800
001800
001800
001800
001800
001800
001800
001800
001800
001800
001800
001800
001000
000000
ENDCHAR

STARTCHAR a4d4
ENCODING 42196
SWIDTH 960 0
DWIDTH 24 0
BBX 24 24 0 -6
BITMAP
000000
000000
000000
000000
000000
000000
000000
000000
000000
000000
000000
000000
000000
000000
000000
000000
000000
000000
000000
000000
000000
000000
000000
000000
ENDCHAR

STARTCHAR a4d5
ENCODING 42197
SWIDTH 960 0
DWIDTH 24 0
BBX 24 24 0 -6
BITMAP
000000
000000
000000
000000
000000
703800
1C0E00
0C0600
0C0600
0C0600
0C0600
0C0600
0C0600
0C0600
0C0600
0C1E00
0FE61C
0783FE
000000
000000
000000
000000
000000
000000
ENDCHAR

STARTCHAR a4d6
ENCODING 42198
SWIDTH 960 0
DWIDTH 24 0
BBX 24 24 0 -6
BITMAP
000000
000000
000000
000000
000000
703C38
1C0FFC
0C0600
0C0600
0C0600
0C0600
0C0600
0C0600
0C0600
0C0600
0C1E00
0FE61C
0703FE
000000
000000
000000
000000
000000
000000
ENDCHAR

STARTCHAR a4d7
ENCODING 42199
SWIDTH 960 0
DWIDTH 24 0
BBX 24 24 0 -6
BITMAP
000000
000000
000000
000000
000000
700180
1C00F0
0C0060
0C0060
0C0060
0C00C0
0C00C0
0C01A0
0C0198
0C030C
0C360E
0FCC06
071006
000000
000000
000000
000000
000000
000000
ENDCHAR

STARTCHAR a4d8
ENCODING 42200
SWIDTH 960 0
DWIDTH 24 0
BBX 24 24 0 -6
BITMAP
000000
000000
000000
000000
000000
000040
700040
1C00E0
0C00A0
0C01B0
0C0110
0C0318
0C0208
0C060C
0C0404
0C3C06
0FC802
060FFE
000000
000000
000000
000000
000000
000000
ENDCHAR

STARTCHAR a4d9
ENCODING 42201
SWIDTH 960 0
DWIDTH 24 0
BBX 24 24 0 -6
BITMAP
000000
000000
000000
000000
000000
430CE0
3FFE38
134C30
030C30
030C30
630C20
3F0C60
300C70
300848
3008CC
30C884
3F1106
1C1206
000000
000000
000000
000000
000000
000000
ENDCHAR

STARTCHAR a4da
ENCODING 42202
SWIDTH 960 0
DWIDTH 24 0
BBX 24 24 0 -6
BITMAP
000000
000000
000000
000000
000000
406E18
3FF7FC
186300
006300
006300
706300
1FE300
180300
180300
180300
180300
183300
1FC31C
0E01FE
000000
000000
000000
000000
000000
ENDCHAR

STARTCHAR a4db
ENCODING 42203
SWIDTH 960 0
DWIDTH 24 0
BBX 24 24 0 -6
BITMAP
000000
000000
000000
000000
000000
430670
3FE31C
133318
033318
033318
633310
3F3F30
303338
303328
30332C
303364
31B346
3E3F46
182286
000000
000000
000000
000000
000000
ENDCHAR

STARTCHAR a4dc
ENCODING 42204
SWIDTH 960 0
DWIDTH 24 0
BBX 24 24 0 -6
BITMAP
000000
000000
000000
000000
000000
40C040
3FE040
18C0E0
00C0A0
00C1B0
70C110
1FC318
180208
18060C
180404
180C06
186802
1F8FFE
0E0000
000000
000000
000000
000000
000000
ENDCHAR

STARTCHAR a4dd
ENCODING 42205
SWIDTH 960 0
DWIDTH 24 0
BBX 24 24 0 -6
BITMAP
000000
000000
000000
000000
000000
40C00C
3FFFFE
10CC00
00C000
00C000
70C0F0
1FC198
18030C
18030C
18030C
18030C
18330C
1FC198
0F00F0
000000
000000
000000
000000
000000
ENDCHAR

STARTCHAR a4de
ENCODING 42206
SWIDTH 960 0
DWIDTH 24 0
BBX 24 24 0 -6
BITMAP
000000
000000
000000
000000
000038
70CE0C
1FE30C
18C30C
18C30C
18C30C
18C3FC
18C30C
18C30C
18C30C
18C30C
18C30C
1FE3FC
18C30C
100208
000000
000000
000000
000000
000000
ENDCHAR

STARTCHAR a4df
ENCODING 42207
SWIDTH 960 0
DWIDTH 24 0
BBX 24 24 0 -6
BITMAP
000000
000000
000000
000000
000000
7061C0
1FF070
186060
186060
186060
1860C0
1860E0
186090
186198
18610C
18630C
1FF206
180406
100800
000000
000000
000000
000000
000000
ENDCHAR

STARTCHAR a4e0
ENCODING 42208
SWIDTH 960 0
DWIDTH 24 0
BBX 24 24 0 -6
BITMAP
000000
000000
000000
000000
000040
70C040
1FE0E0
18C0A0
18C1B0
18C110
18C318
18C208
18C208
18C60C
18C404
18CC06
18C802
1FEFFE
180000
000000
000000
000000
000000
000000
ENDCHAR

STARTCHAR a4e1
ENCODING 42209
SWIDTH 960 0
DWIDTH 24 0
BBX 24 24 0 -6
BITMAP
000000
000000
070180
03FFC0
018180
018180
018180
018180
018180
01FFC0
010000
003000
001800
001000
007E00
00C300
018180
018180
018180
018180
00C300
007E00
000000
000000
ENDCHAR

STARTCHAR a4e2
ENCODING 42210
SWIDTH 960 0
DWIDTH 24 0
BBX 24 24 0 -6
BITMAP
000000
000000
000000
000000
000000
01880C
60E7FE
38630C
18600C
18600C
1FE00C
18600C
18600C
18600C
18600C
18600C
1FE00C
18600C
104008
000000
000000
000000
000000
000000
ENDCHAR

STARTCHAR a4e3
ENCODING 42211
SWIDTH 960 0
DWIDTH 24 0
BBX 24 24 0 -6
BITMAP
000000
000000
000000
000000
000000
019C18
60E7FC
386300
186300
186300
1FE300
186300
186300
186300
186300
186300
1FE30C
1861FE
104000
000000
000000
000000
000000
000000
ENDCHAR

STARTCHAR a4e4
ENCODING 42212
SWIDTH 960 0
DWIDTH 24 0
BBX 24 24 0 -6
BITMAP
000000
000000
000000
000000
000000
07190C
718EFE
198C4C
198C0C
198C0C
1F8C0C
198C0C
198C0C
199A0C
19990C
19918C
19B08C
1FA0CC
1140C8
000000
000000
000000
000000
000000
ENDCHAR

STARTCHAR a4e5
ENCODING 42213
SWIDTH 960 0
DWIDTH 24 0
BBX 24 24 0 -6
BITMAP
000000
000000
000000
000000
000000
06318C
631CFE
3318C0
3318C0
3318C0
3F18C0
3310C0
3338C0
3328C0
3324C0
3344C0
3F46CC
33867E
220000
000000
000000
000000
000000
000000
ENDCHAR

STARTCHAR a4e6
ENCODING 42214
SWIDTH 960 0
DWIDTH 24 0
BBX 24 24 0 -6
BITMAP
000000
000000
000000
000000
000000
018818
60E7FC
386218
186038
186030
1FE070
186060
1860F0
1860D8
18619C
18630C
1FE20E
186406
104806
000000
000000
000000
000000
000000
ENDCHAR

STARTCHAR a4e7
ENCODING 42215
SWIDTH 960 0
DWIDTH 24 0
BBX 24 24 0 -6
BITMAP
000000
000000
000000
000000
000000
018E18
60E7FC
386300
186300
186300
186318
1FE3FC
186300
186300
186300
186300
1FE30C
1861FE
104000
000000
000000
000000
000000
000000
ENDCHAR

STARTCHAR a4e8
ENCODING 42216
SWIDTH 960 0
DWIDTH 24 0
BBX 24 24 0 -6
BITMAP
000000
000700
070380
038180
018180
01FF80
018180
018180
018180
01FF80
018100
010000
003000
001800
001000
007E00
00C300
018180
018180
018180
018180
00C300
007E00
000000
ENDCHAR

STARTCHAR a4e9
ENCODING 42217
SWIDTH 960 0
DWIDTH 24 0
BBX 24 24 0 -6
BITMAP
000000
000000
00CC60
186630
0C6630
0C6630
0FE7F0
0C6630
0C6630
0C6630
0FE7F0
084420
001800
000C00
000800
003F00
006180
00C0C0
00C0C0
00C0C0
00C0C0
006180
003F00
000000
ENDCHAR

STARTCHAR a4ea
ENCODING 42218
SWIDTH 960 0
DWIDTH 24 0
BBX 24 24 0 -6
BITMAP
000000
000000
000000
000000
000000
031018
01CFFC
018618
018018
038018
030018
030018
068018
044018
0C2018
083018
101818
201818
400010
000000
000000
000000
000000
000000
ENDCHAR

STARTCHAR a4eb
ENCODING 42219
SWIDTH 960 0
DWIDTH 24 0
BBX 24 24 0 -6
BITMAP
000000
000000
000000
000000
000000
031C00
01C700
018300
018300
038300
030300
030300
068300
044300
0C2300
083300
101B0C
2019FE
400000
000000
000000
000000
000000
000000
ENDCHAR

STARTCHAR a4ec
ENCODING 42220
SWIDTH 960 0
DWIDTH 24 0
BBX 24 24 0 -6
BITMAP
000000
000000
000000
000000
000000
030E18
01C3FC
018300
018300
018300
030300
030300
068300
064300
0C6300
083300
103B0C
2019FE
400000
000000
000000
000000
000000
000000
ENDCHAR

STARTCHAR a4ed
ENCODING 42221
SWIDTH 960 0
DWIDTH 24 0
BBX 24 24 0 -6
BITMAP
000000
000000
000000
000000
000070
031C1C
01C70C
01830C
01830C
03830C
0303FC
03030C
07030C
06830C
0C430C
08230C
1033FC
201B0C
401A08
000000
000000
000000
000000
000000
ENDCHAR

STARTCHAR a4ee
ENCODING 42222
SWIDTH 960 0
DWIDTH 24 0
BBX 24 24 0 -6
BITMAP
000000
000000
000000
000000
000000
061030
038FF8
030430
030030
030060
060060
0600C0
0700E0
0D81B0
08E318
18720C
10340C
201806
401006
000000
000000
000000
000000
000000
ENDCHAR

STARTCHAR a4ef
ENCODING 42223
SWIDTH 960 0
DWIDTH 24 0
BBX 24 24 0 -6
BITMAP
000000
000000
000000
000000
000000
000800
000800
001C00
001400
003600
002200
006300
004100
00C180
008080
0180C0
010040
030060
03FFE0
000000
000000
000000
000000
000000
ENDCHAR

STARTCHAR a4f0
ENCODING 42224
SWIDTH 960 0
DWIDTH 24 0
BBX 24 24 0 -6
BITMAP
000000
000000
000000
000000
0E01C0
0700E0
0600C0
0600C0
0F81F0
18C318
104208
30660C
30660C
30660C
30660C
30660C
104208
18C318
0F81F0
0700E0
000000
000000
000000
000000
ENDCHAR

STARTCHAR a4f1
ENCODING 42225
SWIDTH 960 0
DWIDTH 24 0
BBX 24 24 0 -6
BITMAP
000000
000000
000000
000000
003800
001C00
001800
001800
003E00
00C180
0180C0
010040
030060
030060
030060
030060
0180C0
01C1C0
00FF80
003E00
000000
000000
000000
000000
ENDCHAR

STARTCHAR a4f2
ENCODING 42226
SWIDTH 960 0
DWIDTH 24 0
BBX 24 24 0 -6
BITMAP
000000
000000
000000
000000
000000
0C0180
0600E0
0600C0
0F00C0
1981C0
30C180
30C180
30C380
30C340
30C630
30C41C
30C80E
199006
0F2000
000000
000000
000000
000000
000000
ENDCHAR

STARTCHAR a4f3
ENCODING 42227
SWIDTH 960 0
DWIDTH 24 0
BBX 24 24 0 -6
BITMAP
000000
000000
000000
000000
000000
0C0080
060080
0601C0
0F0140
108360
30C220
30C630
30C410
30CC18
30C808
30D80C
30D004
1FB006
0F3FFE
000000
000000
000000
000000
000000
ENDCHAR

STARTCHAR a4f4
ENCODING 42228
SWIDTH 960 0
DWIDTH 24 0
BBX 24 24 0 -6
BITMAP
000000
000000
040180
03FFC0
010000
008E00
00C600
006400
0064C0
07FFE0
030000
003000
001800
001000
007E00
00C300
018180
018180
018180
018180
00C300
007E00
000000
000000
ENDCHAR

STARTCHAR a4f5
ENCODING 42229
SWIDTH 960 0
DWIDTH 24 0
BBX 24 24 0 -6
BITMAP
000000
000000
000000
000000
0C0300
07C1F0
000000
40180C
3FFFFE
190440
018060
018060
066198
0C330C
0C330C
0C330C
0C330C
0C330C
066198
03C0F0
000000
000000
000000
000000
ENDCHAR

STARTCHAR a4f6
ENCODING 42230
SWIDTH 960 0
DWIDTH 24 0
BBX 24 24 0 -6
BITMAP
000000
000000
000000
000000
40001C
3FFFFE
181000
000C00
000800
001E00
006180
00C0C0
008040
018060
018060
018060
00C0C0
00E1C0
007F80
001E00
000000
000000
000000
000000
ENDCHAR

STARTCHAR a4f7
ENCODING 42231
SWIDTH 960 0
DWIDTH 24 0
BBX 24 24 0 -6
BITMAP
000000
000700
0001C0
0000C0
0000C0
0000C0
0000C0
0000C0
0000CC
0000FE
00C0C0
1870C0
0E30C0
0630CC
0630FE
0636C0
7FFFC0
3000C0
0000C0
0000C0
0000C0
0000C0
000080
000000
ENDCHAR

STARTCHAR a4f8
ENCODING 42232
SWIDTH 960 0
DWIDTH 24 0
BBX 24 24 0 -6
BITMAP
000000
0000E0
000038
001C18
000718
000318
000318
000318
000318
0003F8
018318
18E318
0E6318
066318
0663F8
066B18
7FFF18
300318
000318
000318
000318
000218
000010
000000
ENDCHAR

STARTCHAR a4f9
ENCODING 42233
SWIDTH 960 0
DWIDTH 24 0
BBX 24 24 0 -6
BITMAP
000000
0001C0
000070
000030
000030
000030
000030
000030
000030
000030
006030
0C3830
071830
031830
031830
031B30
7FFFB0
300030
000030
000030
000030
000030
000020
000000
ENDCHAR

STARTCHAR a4fa
ENCODING 42234
SWIDTH 960 0
DWIDTH 24 0
BBX 24 24 0 -6
BITMAP
000000
0000E0
000038
000018
000018
000018
000418
0003F8
000198
000018
000018
000418
0003F8
001998
7FFC18
366018
066018
066018
066018
066018
066018
044018
000010
000000
ENDCHAR

STARTCHAR a4fb
ENCODING 42235
SWIDTH 960 0
DWIDTH 24 0
BBX 24 24 0 -6
BITMAP
000000
000070
00001C
00070C
0001CC
0000CC
0000CC
0010CC
000FCC
0004CC
0000CC
0010CC
000FCC
0024CC
7FF0CC
2CC0CC
0CC0CC
0CC0CC
0CC0CC
0CC0CC
0880CC
00008C
000008
000000
ENDCHAR

STARTCHAR a4fc
ENCODING 42236
SWIDTH 960 0
DWIDTH 24 0
BBX 24 24 0 -6
BITMAP
000000
0000E0
000038
000018
000018
000018
000018
000018
000018
000018
000018
000018
000018
000318
7FFF98
331818
031818
031818
031818
031818
031818
021018
000010
000000
ENDCHAR

STARTCHAR a4fd
ENCODING 42237
SWIDTH 960 0
DWIDTH 24 0
BBX 24 24 0 -6
BITMAP
000000
000000
000000
000000
000000
000000
000000
000000
000000
003800
007C00
007C00
007C00
003800
000000
000000
000000
000000
000000
000000
000000
000000
000000
000000
ENDCHAR

STARTCHAR a4fe
ENCODING 42238
SWIDTH 960 0
DWIDTH 24 0
BBX 24 24 0 -6
BITMAP
000000
000E00
000380
000180
000180
000180
000180
000180
000180
000180
038180
07C180
07C180
07C180
038180
000180
000180
000180
000180
000180
000180
000180
000100
000000
ENDCHAR

STARTCHAR a5a1
ENCODING 42401
SWIDTH 960 0
DWIDTH 24 0
BBX 24 24 0 -6
BITMAP
000000
000000
000000
001800
001800
000000
000000
000000
001800
007800
001800
001800
001800
001800
001800
001800
001800
001800
001800
001800
007E00
000000
000000
000000
ENDCHAR

STARTCHAR a5a2
ENCODING 42402
SWIDTH 960 0
DWIDTH 24 0
BBX 24 24 0 -6
BITMAP
000000
000000
000000
018300
018300
000000
000000
000000
018300
078F00
018300
018300
018300
018300
018300
018300
018300
018300
018300
018300
07EFC0
000000
000000
000000
ENDCHAR

STARTCHAR a5a3
ENCODING 42403
SWIDTH 960 0
DWIDTH 24 0
BBX 24 24 0 -6
BITMAP
000000
000000
000000
061860
061860
000000
000000
000000
061860
1E79E0
061860
061860
061860
061860
061860
061860
061860
061860
061860
061860
1F7DF8
000000
000000
000000
ENDCHAR

STARTCHAR a5a4
ENCODING 42404
SWIDTH 960 0
DWIDTH 24 0
BBX 24 24 0 -6
BITMAP
000000
000000
000000
060000
060000
000000
000000
000000
067EF8
1E1820
061820
061820
060C40
060C40
060C40
060680
060680
060680
060300
060300
1F8300
000000
000000
000000
ENDCHAR

STARTCHAR a5a5
ENCODING 42405
SWIDTH 960 0
DWIDTH 24 0
BBX 24 24 0 -6
BITMAP
000000
000000
000000
000000
000000
000000
000000
000000
07F7E0
018080
018080
00C100
00C100
00C100
006200
006200
003400
003400
003400
001800
001800
000000
000000
000000
ENDCHAR

STARTCHAR a5a6
ENCODING 42406
SWIDTH 960 0
DWIDTH 24 0
BBX 24 24 0 -6
BITMAP
000000
000000
000000
000060
000060
000000
000000
000000
1FBE60
060860
060860
060860
031060
031060
031060
01A060
01A060
01A060
00C060
00C060
00C0F0
000000
000000
000000
ENDCHAR

STARTCHAR a5a7
ENCODING 42407
SWIDTH 960 0
DWIDTH 24 0
BBX 24 24 0 -6
BITMAP
000000
000000
000000
000618
000618
000000
000000
000000
3C7E78
182618
182618
182618
0C4618
0C4618
0C4618
078618
078618
078618
030618
030618
031F7C
000000
000000
000000
ENDCHAR

STARTCHAR a5a8
ENCODING 42408
SWIDTH 960 0
DWIDTH 24 0
BBX 24 24 0 -6
BITMAP
000000
000000
000000
000CCC
000CCC
000000
000000
000000
78FCCC
304CCC
304CCC
304CCC
188CCC
188CCC
188CCC
0D0CCC
0D0CCC
0D0CCC
060CCC
060CCC
061FFE
000000
000000
000000
ENDCHAR

STARTCHAR a5a9
ENCODING 42409
SWIDTH 960 0
DWIDTH 24 0
BBX 24 24 0 -6
BITMAP
000000
000000
000000
0C0000
0C0000
000000
000000
000000
0C7F7C
1C1810
0C0C20
0C0E40
0C0640
0C0380
0C0380
0C0380
0C04C0
0C0460
0C0860
0C1030
1E7CFC
000000
000000
000000
ENDCHAR

STARTCHAR a5aa
ENCODING 42410
SWIDTH 960 0
DWIDTH 24 0
BBX 24 24 0 -6
BITMAP
000000
000000
000000
000000
000000
000000
000000
000000
07E3E0
018080
00C100
006200
006400
003800
001800
001C00
002C00
004600
008300
010180
07C7E0
000000
000000
000000
ENDCHAR

STARTCHAR a5b0
ENCODING 42416
SWIDTH 960 0
DWIDTH 24 0
BBX 24 24 0 -6
BITMAP
000000
000000
000000
007E00
001800
001800
001800
001800
001800
001800
001800
001800
001800
001800
001800
001800
001800
001800
001800
001800
007E00
000000
000000
000000
ENDCHAR

STARTCHAR a5b1
ENCODING 42417
SWIDTH 960 0
DWIDTH 24 0
BBX 24 24 0 -6
BITMAP
000000
000000
000000
03FFC0
00C300
00C300
00C300
00C300
00C300
00C300
00C300
00C300
00C300
00C300
00C300
00C300
00C300
00C300
00C300
00C300
03FFC0
000000
000000
000000
ENDCHAR

STARTCHAR a5b2
ENCODING 42418
SWIDTH 960 0
DWIDTH 24 0
BBX 24 24 0 -6
BITMAP
000000
000000
000000
0FFFF0
0318C0
0318C0
0318C0
0318C0
0318C0
0318C0
0318C0
0318C0
0318C0
0318C0
0318C0
0318C0
0318C0
0318C0
0318C0
0318C0
0FFFF0
000000
000000
000000
ENDCHAR

STARTCHAR a5b3
ENCODING 42419
SWIDTH 960 0
DWIDTH 24 0
BBX 24 24 0 -6
BITMAP
000000
000000
000000
1FFC7C
063010
063010
061820
061820
061820
061820
060C40
060C40
060C40
060C40
060680
060680
060680
060680
060300
060300
1F8300
000000
000000
000000
ENDCHAR

STARTCHAR a5b4
ENCODING 42420
SWIDTH 960 0
DWIDTH 24 0
BBX 24 24 0 -6
BITMAP
000000
000000
000000
0FE3F0
030040
030040
018080
018080
018080
00C100
00C100
00C100
006200
006200
006200
003400
003400
003400
001800
001800
001800
000000
000000
000000
ENDCHAR

STARTCHAR a5b5
ENCODING 42421
SWIDTH 960 0
DWIDTH 24 0
BBX 24 24 0 -6
BITMAP
000000
000000
000000
3F1FF8
0C0460
0C0460
060860
060860
060860
060860
031060
031060
031060
031060
01A060
01A060
01A060
01A060
00C060
00C060
00C1F8
000000
000000
000000
ENDCHAR

STARTCHAR a5b6
ENCODING 42422
SWIDTH 960 0
DWIDTH 24 0
BBX 24 24 0 -6
BITMAP
000000
000000
000000
7EFFFC
182630
182630
182630
0C4630
0C4630
0C4630
0C4630
0C4630
068630
068630
068630
068630
078630
030630
030630
030630
031FFC
000000
000000
000000
ENDCHAR

STARTCHAR a5b7
ENCODING 42423
SWIDTH 960 0
DWIDTH 24 0
BBX 24 24 0 -6
BITMAP
000000
000000
000000
7EFFFC
182490
182490
182490
182490
0C4490
0C4490
0C4490
0C4490
0C4490
068490
068490
068490
068490
030490
030490
030490
031FFC
000000
000000
000000
ENDCHAR

STARTCHAR a5b8
ENCODING 42424
SWIDTH 960 0
DWIDTH 24 0
BBX 24 24 0 -6
BITMAP
000000
000000
000000
1FFEF8
063020
063020
061840
061840
060C80
060C80
060700
060700
060300
060700
060580
060980
0608C0
0610C0
061060
062060
1FFDF8
000000
000000
000000
ENDCHAR

STARTCHAR a5b9
ENCODING 42425
SWIDTH 960 0
DWIDTH 24 0
BBX 24 24 0 -6
BITMAP
000000
000000
000000
0FC3F0
030040
018080
01C080
00C100
006200
007200
003400
001800
001C00
002C00
002600
004700
008300
008180
0101C0
0200C0
0FC3F0
000000
000000
000000
ENDCHAR

STARTCHAR a5c1
ENCODING 42433
SWIDTH 960 0
DWIDTH 24 0
BBX 24 24 0 -6
BITMAP
000000
000000
000000
000000
000060
0000E0
0001E0
000160
000360
000660
000C60
000860
001860
003060
006060
00FFE0
008060
018060
030060
060060
3F83F8
000000
000000
000000
ENDCHAR

STARTCHAR a5c2
ENCODING 42434
SWIDTH 960 0
DWIDTH 24 0
BBX 24 24 0 -6
BITMAP
000000
000000
000000
000000
07FFC0
018060
018030
018030
018030
030020
030040
03FF80
0300C0
030060
030060
060060
060060
0600C0
0600C0
060180
1FFE00
000000
000000
000000
ENDCHAR

STARTCHAR a5c3
ENCODING 42435
SWIDTH 960 0
DWIDTH 24 0
BBX 24 24 0 -6
BITMAP
000000
000000
000000
000000
03FFE0
00C060
00C020
00C020
00C000
00C000
018000
018000
018000
018000
018000
030000
030000
030000
030000
030000
0FC000
000000
000000
000000
ENDCHAR

STARTCHAR a5c4
ENCODING 42436
SWIDTH 960 0
DWIDTH 24 0
BBX 24 24 0 -6
BITMAP
000000
000000
000000
000000
000030
000070
0000F0
0001B0
000330
000660
000C60
001860
003060
006060
00C060
0180C0
0300C0
0600C0
0C00C0
1FFFC0
1FFFC0
000000
000000
000000
ENDCHAR

STARTCHAR a5c5
ENCODING 42437
SWIDTH 960 0
DWIDTH 24 0
BBX 24 24 0 -6
BITMAP
000000
000000
000000
000000
03FFF0
00C030
00C010
00C010
00C000
018080
018080
01FF80
018100
018100
018100
018000
030000
030040
030040
0300C0
0FFFC0
000000
000000
000000
ENDCHAR

STARTCHAR a5c6
ENCODING 42438
SWIDTH 960 0
DWIDTH 24 0
BBX 24 24 0 -6
BITMAP
000000
000000
000000
000000
01FFE0
018060
0100C0
010180
000300
000600
000600
000C00
001800
003000
006000
006000
00C000
018080
030080
060180
07FF80
000000
000000
000000
ENDCHAR

STARTCHAR a5c7
ENCODING 42439
SWIDTH 960 0
DWIDTH 24 0
BBX 24 24 0 -6
BITMAP
000000
000000
000000
000000
0FC1F8
030060
030060
030060
030060
0600C0
0600C0
0600C0
07FFC0
0600C0
0600C0
0600C0
0C0180
0C0180
0C0180
0C0180
3F07E0
000000
000000
000000
ENDCHAR

STARTCHAR a5c8
ENCODING 42440
SWIDTH 960 0
DWIDTH 24 0
BBX 24 24 0 -6
BITMAP
000000
000000
000000
003F00
00E0C0
018060
030020
030030
060030
060030
064130
0C4130
0CFF30
0C8230
0C8260
0C0060
0C0060
0C00C0
0400C0
060180
030700
00FC00
000000
000000
ENDCHAR

STARTCHAR a5c9
ENCODING 42441
SWIDTH 960 0
DWIDTH 24 0
BBX 24 24 0 -6
BITMAP
000000
000000
000000
000000
003F00
000C00
000C00
000C00
000C00
001800
001800
001800
001800
001800
001800
003000
003000
003000
003000
003000
00FC00
000000
000000
000000
ENDCHAR

STARTCHAR a5ca
ENCODING 42442
SWIDTH 960 0
DWIDTH 24 0
BBX 24 24 0 -6
BITMAP
000000
000000
000000
000000
07E3F8
0180C0
018180
018300
030600
030C00
031800
037000
03F800
039800
030C00
060C00
060600
060600
060300
060300
1F8FC0
000000
000000
000000
ENDCHAR

STARTCHAR a5cb
ENCODING 42443
SWIDTH 960 0
DWIDTH 24 0
BBX 24 24 0 -6
BITMAP
000000
000000
000000
000000
000060
0000E0
0001E0
000160
000360
000660
000C60
000860
001860
003060
006060
004060
00C060
018060
030060
060060
3F83F8
000000
000000
000000
ENDCHAR

STARTCHAR a5cc
ENCODING 42444
SWIDTH 960 0
DWIDTH 24 0
BBX 24 24 0 -6
BITMAP
000000
000000
000000
000000
1F001E
070018
070038
070078
070058
058098
0981B0
098130
098230
08C630
08C430
08C830
10D860
107060
106060
106060
7C01F8
000000
000000
000000
ENDCHAR

STARTCHAR a5cd
ENCODING 42445
SWIDTH 960 0
DWIDTH 24 0
BBX 24 24 0 -6
BITMAP
000000
000000
000000
000000
0780F8
01C020
01C020
016020
016020
013040
023040
021840
021840
020C40
020C40
020680
040680
040380
040380
040180
1F0180
000000
000000
000000
ENDCHAR

STARTCHAR a5ce
ENCODING 42446
SWIDTH 960 0
DWIDTH 24 0
BBX 24 24 0 -6
BITMAP
000000
000000
000000
000000
03FFF0
020020
040020
040020
000000
008080
008080
00FF80
010100
010100
010100
000000
040040
040040
040040
080080
0FFF80
080080
000000
000000
ENDCHAR

STARTCHAR a5cf
ENCODING 42447
SWIDTH 960 0
DWIDTH 24 0
BBX 24 24 0 -6
BITMAP
000000
000000
000000
003F00
00E0C0
018060
030020
030030
060030
060030
060030
0C0030
0C0030
0C0060
0C0060
0C0060
0C00C0
0400C0
060180
030700
00FC00
000000
000000
000000
ENDCHAR

STARTCHAR a5d0
ENCODING 42448
SWIDTH 960 0
DWIDTH 24 0
BBX 24 24 0 -6
BITMAP
000000
000000
000000
000000
0FFFF8
030060
030060
030060
030060
0600C0
0600C0
0600C0
0600C0
0600C0
0600C0
0C0180
0C0180
0C0180
0C0180
0C0180
3F07E0
000000
000000
000000
ENDCHAR

STARTCHAR a5d1
ENCODING 42449
SWIDTH 960 0
DWIDTH 24 0
BBX 24 24 0 -6
BITMAP
000000
000000
000000
000000
07FFC0
018060
018030
018030
018030
018030
030030
030060
0300E0
03FF80
030000
030000
060000
060000
060000
060000
1F8000
000000
000000
000000
ENDCHAR

STARTCHAR a5d2
ENCODING 42450
SWIDTH 960 0
DWIDTH 24 0
BBX 24 24 0 -6
BITMAP
000000
000000
000000
000000
03FFE0
030060
018020
00C020
006000
003000
001800
001000
002000
004000
008000
010000
020100
040100
080300
1FFF00
1FFF00
000000
000000
000000
ENDCHAR

STARTCHAR a5d3
ENCODING 42451
SWIDTH 960 0
DWIDTH 24 0
BBX 24 24 0 -6
BITMAP
000000
000000
000000
000000
0FFFF0
0C1830
081810
081810
081810
003000
003000
003000
003000
003000
003000
006000
006000
006000
006000
006000
01F800
000000
000000
000000
ENDCHAR

STARTCHAR a5d4
ENCODING 42452
SWIDTH 960 0
DWIDTH 24 0
BBX 24 24 0 -6
BITMAP
000000
000000
000000
000000
030780
0188C0
0090C0
00E000
00E000
00C000
00C000
018000
018000
018000
018000
018000
030000
030000
030000
030000
0FC000
000000
000000
000000
ENDCHAR

STARTCHAR a5d5
ENCODING 42453
SWIDTH 960 0
DWIDTH 24 0
BBX 24 24 0 -6
BITMAP
000000
000000
000000
003F00
000C00
003F00
00ECC0
018C60
030C20
060C30
061830
0C1830
0C1830
0C1830
0C1860
0C1860
0430C0
063180
033700
00FC00
003000
00FC00
000000
000000
ENDCHAR

STARTCHAR a5d6
ENCODING 42454
SWIDTH 960 0
DWIDTH 24 0
BBX 24 24 0 -6
BITMAP
000000
000000
000000
000000
03F1F0
00C040
006080
006100
003200
003200
001C00
001800
001C00
002C00
004600
008600
008300
010300
020180
040180
1F07E0
000000
000000
000000
ENDCHAR

STARTCHAR a5d7
ENCODING 42455
SWIDTH 960 0
DWIDTH 24 0
BBX 24 24 0 -6
BITMAP
000000
000000
000000
000000
1C7E30
261868
061860
061860
061860
0C3060
0C3060
0C30C0
0C30C0
0C3180
063700
03FC00
006000
006000
006000
006000
01F800
000000
000000
000000
ENDCHAR

STARTCHAR a5d8
ENCODING 42456
SWIDTH 960 0
DWIDTH 24 0
BBX 24 24 0 -6
BITMAP
000000
000000
000000
000000
003F80
00C0E0
018060
010030
030030
030030
030030
030070
010060
0180E0
00C1C0
004300
084210
08C210
088620
1F87E0
1F87E0
000000
000000
000000
ENDCHAR

STARTCHAR a5e1
ENCODING 42465
SWIDTH 960 0
DWIDTH 24 0
BBX 24 24 0 -6
BITMAP
000000
000000
000000
000000
000000
000000
000000
000000
000000
003E60
00E160
0180C0
0300C0
0300C0
0600C0
060180
060180
060180
060380
030DE0
01F0C0
000000
000000
000000
ENDCHAR

STARTCHAR a5e2
ENCODING 42466
SWIDTH 960 0
DWIDTH 24 0
BBX 24 24 0 -6
BITMAP
000000
000000
000000
000000
000780
0018C0
003060
002060
006060
0040C0
004DC0
00CF00
008180
018080
0180C0
0100C0
030180
030180
06C700
063C00
060000
0C0000
0C0000
000000
ENDCHAR

STARTCHAR a5e3
ENCODING 42467
SWIDTH 960 0
DWIDTH 24 0
BBX 24 24 0 -6
BITMAP
000000
000000
000000
000000
000000
000000
000000
000000
000000
00E1C0
01F7C0
013400
001800
001000
003000
003000
003000
006000
006000
006000
00E000
00C000
00C000
000000
ENDCHAR

STARTCHAR a5e4
ENCODING 42468
SWIDTH 960 0
DWIDTH 24 0
BBX 24 24 0 -6
BITMAP
000000
000000
000000
00F000
01FC00
018600
018100
00C080
006000
001800
003E00
00E300
018100
018180
030180
030180
030180
030300
030300
018E00
00F800
000000
000000
000000
ENDCHAR

STARTCHAR a5e5
ENCODING 42469
SWIDTH 960 0
DWIDTH 24 0
BBX 24 24 0 -6
BITMAP
000000
000000
000000
000000
000000
000000
000000
000000
000000
001F80
0030C0
006040
006000
003E00
00C600
018000
018000
018000
01C100
00FE00
007800
000000
000000
000000
ENDCHAR

STARTCHAR a5e6
ENCODING 42470
SWIDTH 960 0
DWIDTH 24 0
BBX 24 24 0 -6
BITMAP
000000
000000
000000
0038C0
0073C0
006780
003E00
001800
002000
004000
008000
010000
010000
020000
020000
020000
030000
01F800
00FC00
000600
000200
003200
003C00
000000
ENDCHAR

STARTCHAR a5e7
ENCODING 42471
SWIDTH 960 0
DWIDTH 24 0
BBX 24 24 0 -6
BITMAP
000000
000000
000000
000000
000000
000000
000000
000000
000000
01C3C0
03EC60
023020
003020
006060
004040
00C0C0
018080
018180
030100
030300
000300
000600
000600
000000
ENDCHAR

STARTCHAR a5e8
ENCODING 42472
SWIDTH 960 0
DWIDTH 24 0
BBX 24 24 0 -6
BITMAP
000000
000000
000000
000F00
003180
0060C0
00C0C0
0080C0
0180C0
0100C0
0300C0
03FF80
030180
060180
060300
060300
060200
060600
060C00
031800
01E000
000000
000000
000000
ENDCHAR

STARTCHAR a5e9
ENCODING 42473
SWIDTH 960 0
DWIDTH 24 0
BBX 24 24 0 -6
BITMAP
000000
000000
000000
000000
000000
000000
000000
000000
000000
000C00
001C00
001800
003800
003000
002000
006000
004000
004000
004400
007C00
003800
000000
000000
000000
ENDCHAR

STARTCHAR a5ea
ENCODING 42474
SWIDTH 960 0
DWIDTH 24 0
BBX 24 24 0 -6
BITMAP
000000
000000
000000
000000
000000
000000
000000
000000
000000
00C180
00C7C0
00CC00
00D000
01A000
01F000
019800
019800
031840
031840
031C80
030F00
000000
000000
000000
ENDCHAR

STARTCHAR a5eb
ENCODING 42475
SWIDTH 960 0
DWIDTH 24 0
BBX 24 24 0 -6
BITMAP
000000
000000
000000
001C00
001E00
000100
000100
000100
000200
000200
000600
000400
000C00
000C00
001400
003400
006400
00E600
01C300
01C380
018180
000000
000000
000000
ENDCHAR

STARTCHAR a5ec
ENCODING 42476
SWIDTH 960 0
DWIDTH 24 0
BBX 24 24 0 -6
BITMAP
000000
000000
000000
000000
000000
000000
000000
000000
000000
018180
018180
018180
038380
030300
030300
030300
020200
020640
050FC0
04F380
040000
0C0000
0C0000
000000
ENDCHAR

STARTCHAR a5ed
ENCODING 42477
SWIDTH 960 0
DWIDTH 24 0
BBX 24 24 0 -6
BITMAP
000000
000000
000000
000000
000000
000000
000000
000000
000000
018040
01C040
00C040
00C0C0
00C080
008180
008300
008E00
013C00
01F800
01E000
038000
000000
000000
000000
ENDCHAR

STARTCHAR a5ee
ENCODING 42478
SWIDTH 960 0
DWIDTH 24 0
BBX 24 24 0 -6
BITMAP
000000
000000
000000
000E00
001000
0011C0
000FC0
003000
004000
004000
003F00
004700
008000
010000
010000
030000
038000
03F800
01FC00
000200
000200
003200
003C00
000000
ENDCHAR

STARTCHAR a5ef
ENCODING 42479
SWIDTH 960 0
DWIDTH 24 0
BBX 24 24 0 -6
BITMAP
000000
000000
000000
000000
000000
000000
000000
000000
000000
001F00
006180
00C0C0
0180C0
0180C0
0300C0
0300C0
030180
030180
030300
018600
00F800
000000
000000
000000
ENDCHAR

STARTCHAR a5f0
ENCODING 42480
SWIDTH 960 0
DWIDTH 24 0
BBX 24 24 0 -6
BITMAP
000000
000000
000000
000000
000000
000000
000000
000000
000000
01FFE0
07FFC0
084200
004200
00C400
008400
018400
018C00
038C00
070C80
070F80
070700
000000
000000
000000
ENDCHAR

STARTCHAR a5f1
ENCODING 42481
SWIDTH 960 0
DWIDTH 24 0
BBX 24 24 0 -6
BITMAP
000000
000000
000000
000000
000000
000000
000000
000000
000000
000F00
003180
0060C0
00C0C0
00C0C0
0180C0
018180
038180
038300
02C600
027800
060000
060000
060000
000000
ENDCHAR

STARTCHAR a5f2
ENCODING 42482
SWIDTH 960 0
DWIDTH 24 0
BBX 24 24 0 -6
BITMAP
000000
000000
000000
000000
000000
000000
000000
000000
000000
003FC0
00FFC0
01C600
030300
030300
060300
060300
060300
060600
060600
031C00
01F000
000000
000000
000000
ENDCHAR

STARTCHAR a5f3
ENCODING 42483
SWIDTH 960 0
DWIDTH 24 0
BBX 24 24 0 -6
BITMAP
000000
000000
000000
000000
000000
000000
000000
000000
000000
007FC0
01FFC0
020800
001000
001000
002000
002000
006000
006000
006200
007E00
003C00
000000
000000
000000
ENDCHAR

STARTCHAR a5f4
ENCODING 42484
SWIDTH 960 0
DWIDTH 24 0
BBX 24 24 0 -6
BITMAP
000000
000000
000000
000000
000000
000000
000000
000000
000000
018100
01C080
01C080
01C0C0
0180C0
0180C0
0300C0
030180
030180
030300
018600
00F800
000000
000000
000000
ENDCHAR

STARTCHAR a5f5
ENCODING 42485
SWIDTH 960 0
DWIDTH 24 0
BBX 24 24 0 -6
BITMAP
000000
000000
000000
000000
000000
000000
000000
000000
000000
006380
0187C0
030460
020820
060820
060820
061040
061040
071080
03A300
01FC00
002000
006000
006000
000000
ENDCHAR

STARTCHAR a5f6
ENCODING 42486
SWIDTH 960 0
DWIDTH 24 0
BBX 24 24 0 -6
BITMAP
000000
000000
000000
000000
000000
000000
000000
000000
000000
01E0E0
03F1C0
021380
001700
001E00
001C00
003800
007000
00F000
01D000
039000
071880
0E1F80
1C0F00
000000
ENDCHAR

STARTCHAR a5f7
ENCODING 42487
SWIDTH 960 0
DWIDTH 24 0
BBX 24 24 0 -6
BITMAP
000000
000000
000000
000C00
000C00
000C00
000C00
000800
000800
0008C0
0110E0
021060
061060
041060
0C3060
0C20C0
0C20C0
0E2180
064700
01FC00
004000
00C000
00C000
000000
ENDCHAR

STARTCHAR a5f8
ENCODING 42488
SWIDTH 960 0
DWIDTH 24 0
BBX 24 24 0 -6
BITMAP
000000
000000
000000
000000
000000
000000
000000
000000
000000
004080
008060
010020
030C30
020C30
061C30
061C30
060830
060860
060860
0318C0
01E700
000000
000000
000000
ENDCHAR

STARTCHAR a6a1
ENCODING 42657
SWIDTH 960 0
DWIDTH 24 0
BBX 24 24 0 -6
BITMAP
000000
000000
000000
000000
000000
000000
000000
000000
000000
000000
000000
000000
FFFFFF
000000
000000
000000
000000
000000
000000
000000
000000
000000
000000
000000
ENDCHAR

STARTCHAR a6a2
ENCODING 42658
SWIDTH 960 0
DWIDTH 24 0
BBX 24 24 0 -6
BITMAP
000800
000800
000800
000800
000800
000800
000800
000800
000800
000800
000800
000800
000800
000800
000800
000800
000800
000800
000800
000800
000800
000800
000800
000800
ENDCHAR

STARTCHAR a6a3
ENCODING 42659
SWIDTH 960 0
DWIDTH 24 0
BBX 24 24 0 -6
BITMAP
000000
000000
000000
000000
000000
000000
000000
000000
000000
000000
000000
000000
000FFF
000800
000800
000800
000800
000800
000800
000800
000800
000800
000800
000800
ENDCHAR

STARTCHAR a6a4
ENCODING 42660
SWIDTH 960 0
DWIDTH 24 0
BBX 24 24 0 -6
BITMAP
000000
000000
000000
000000
000000
000000
000000
000000
000000
000000
000000
000000
FFF800
000800
000800
000800
000800
000800
000800
000800
000800
000800
000800
000800
ENDCHAR

STARTCHAR a6a5
ENCODING 42661
SWIDTH 960 0
DWIDTH 24 0
BBX 24 24 0 -6
BITMAP
000800
000800
000800
000800
000800
000800
000800
000800
000800
000800
000800
000800
FFF800
000000
000000
000000
000000
000000
000000
000000
000000
000000
000000
000000
ENDCHAR

STARTCHAR a6a6
ENCODING 42662
SWIDTH 960 0
DWIDTH 24 0
BBX 24 24 0 -6
BITMAP
000800
000800
000800
000800
000800
000800
000800
000800
000800
000800
000800
000800
000FFF
000000
000000
000000
000000
000000
000000
000000
000000
000000
000000
000000
ENDCHAR

STARTCHAR a6a7
ENCODING 42663
SWIDTH 960 0
DWIDTH 24 0
BBX 24 24 0 -6
BITMAP
000800
000800
000800
000800
000800
000800
000800
000800
000800
000800
000800
000800
000FFF
000800
000800
000800
000800
000800
000800
000800
000800
000800
000800
000800
ENDCHAR

STARTCHAR a6a8
ENCODING 42664
SWIDTH 960 0
DWIDTH 24 0
BBX 24 24 0 -6
BITMAP
000000
000000
000000
000000
000000
000000
000000
000000
000000
000000
000000
000000
FFFFFF
000800
000800
000800
000800
000800
000800
000800
000800
000800
000800
000800
ENDCHAR

STARTCHAR a6a9
ENCODING 42665
SWIDTH 960 0
DWIDTH 24 0
BBX 24 24 0 -6
BITMAP
000800
000800
000800
000800
000800
000800
000800
000800
000800
000800
000800
000800
FFF800
000800
000800
000800
000800
000800
000800
000800
000800
000800
000800
000800
ENDCHAR

STARTCHAR a6aa
ENCODING 42666
SWIDTH 960 0
DWIDTH 24 0
BBX 24 24 0 -6
BITMAP
000800
000800
000800
000800
000800
000800
000800
000800
000800
000800
000800
000800
FFFFFF
000000
000000
000000
000000
000000
000000
000000
000000
000000
000000
000000
ENDCHAR

STARTCHAR a6ab
ENCODING 42667
SWIDTH 960 0
DWIDTH 24 0
BBX 24 24 0 -6
BITMAP
000800
000800
000800
000800
000800
000800
000800
000800
000800
000800
000800
000800
FFFFFF
000800
000800
000800
000800
000800
000800
000800
000800
000800
000800
000800
ENDCHAR

STARTCHAR a6ac
ENCODING 42668
SWIDTH 960 0
DWIDTH 24 0
BBX 24 24 0 -6
BITMAP
000000
000000
000000
000000
000000
000000
000000
000000
000000
000000
000000
FFFFFF
FFFFFF
FFFFFF
000000
000000
000000
000000
000000
000000
000000
000000
000000
000000
ENDCHAR

STARTCHAR a6ad
ENCODING 42669
SWIDTH 960 0
DWIDTH 24 0
BBX 24 24 0 -6
BITMAP
001C00
001C00
001C00
001C00
001C00
001C00
001C00
001C00
001C00
001C00
001C00
001C00
001C00
001C00
001C00
001C00
001C00
001C00
001C00
001C00
001C00
001C00
001C00
001C00
ENDCHAR

STARTCHAR a6ae
ENCODING 42670
SWIDTH 960 0
DWIDTH 24 0
BBX 24 24 0 -6
BITMAP
000000
000000
000000
000000
000000
000000
000000
000000
000000
000000
000000
001FFF
001FFF
001FFF
001C00
001C00
001C00
001C00
001C00
001C00
001C00
001C00
001C00
001C00
ENDCHAR

STARTCHAR a6af
ENCODING 42671
SWIDTH 960 0
DWIDTH 24 0
BBX 24 24 0 -6
BITMAP
000000
000000
000000
000000
000000
000000
000000
000000
000000
000000
000000
FFFC00
FFFC00
FFFC00
001C00
001C00
001C00
001C00
001C00
001C00
001C00
001C00
001C00
001C00
ENDCHAR

STARTCHAR a6b0
ENCODING 42672
SWIDTH 960 0
DWIDTH 24 0
BBX 24 24 0 -6
BITMAP
001C00
001C00
001C00
001C00
001C00
001C00
001C00
001C00
001C00
001C00
001C00
FFFC00
FFFC00
FFFC00
000000
000000
000000
000000
000000
000000
000000
000000
000000
000000
ENDCHAR

STARTCHAR a6b1
ENCODING 42673
SWIDTH 960 0
DWIDTH 24 0
BBX 24 24 0 -6
BITMAP
001C00
001C00
001C00
001C00
001C00
001C00
001C00
001C00
001C00
001C00
001C00
001FFF
001FFF
001FFF
000000
000000
000000
000000
000000
000000
000000
000000
000000
000000
ENDCHAR

STARTCHAR a6b2
ENCODING 42674
SWIDTH 960 0
DWIDTH 24 0
BBX 24 24 0 -6
BITMAP
001C00
001C00
001C00
001C00
001C00
001C00
001C00
001C00
001C00
001C00
001C00
001FFF
001FFF
001FFF
001C00
001C00
001C00
001C00
001C00
001C00
001C00
001C00
001C00
001C00
ENDCHAR

STARTCHAR a6b3
ENCODING 42675
SWIDTH 960 0
DWIDTH 24 0
BBX 24 24 0 -6
BITMAP
000000
000000
000000
000000
000000
000000
000000
000000
000000
000000
000000
FFFFFF
FFFFFF
FFFFFF
001C00
001C00
001C00
001C00
001C00
001C00
001C00
001C00
001C00
001C00
ENDCHAR

STARTCHAR a6b4
ENCODING 42676
SWIDTH 960 0
DWIDTH 24 0
BBX 24 24 0 -6
BITMAP
001C00
001C00
001C00
001C00
001C00
001C00
001C00
001C00
001C00
001C00
001C00
FFFC00
FFFC00
FFFC00
001C00
001C00
001C00
001C00
001C00
001C00
001C00
001C00
001C00
001C00
ENDCHAR

STARTCHAR a6b5
ENCODING 42677
SWIDTH 960 0
DWIDTH 24 0
BBX 24 24 0 -6
BITMAP
001C00
001C00
001C00
001C00
001C00
001C00
001C00
001C00
001C00
001C00
001C00
FFFFFF
FFFFFF
FFFFFF
000000
000000
000000
000000
000000
000000
000000
000000
000000
000000
ENDCHAR

STARTCHAR a6b6
ENCODING 42678
SWIDTH 960 0
DWIDTH 24 0
BBX 24 24 0 -6
BITMAP
001C00
001C00
001C00
001C00
001C00
001C00
001C00
001C00
001C00
001C00
001C00
FFFFFF
FFFFFF
FFFFFF
001C00
001C00
001C00
001C00
001C00
001C00
001C00
001C00
001C00
001C00
ENDCHAR

STARTCHAR a6b7
ENCODING 42679
SWIDTH 960 0
DWIDTH 24 0
BBX 24 24 0 -6
BITMAP
001C00
001C00
001C00
001C00
001C00
001C00
001C00
001C00
001C00
001C00
001C00
001C00
001FFF
001C00
001C00
001C00
001C00
001C00
001C00
001C00
001C00
001C00
001C00
001C00
ENDCHAR

STARTCHAR a6b8
ENCODING 42680
SWIDTH 960 0
DWIDTH 24 0
BBX 24 24 0 -6
BITMAP
000000
000000
000000
000000
000000
000000
000000
000000
000000
000000
000000
FFFFFF
FFFFFF
FFFFFF
000800
000800
000800
000800
000800
000800
000800
000800
000800
000800
ENDCHAR

STARTCHAR a6b9
ENCODING 42681
SWIDTH 960 0
DWIDTH 24 0
BBX 24 24 0 -6
BITMAP
001C00
001C00
001C00
001C00
001C00
001C00
001C00
001C00
001C00
001C00
001C00
001C00
FFFC00
001C00
001C00
001C00
001C00
001C00
001C00
001C00
001C00
001C00
001C00
001C00
ENDCHAR

STARTCHAR a6ba
ENCODING 42682
SWIDTH 960 0
DWIDTH 24 0
BBX 24 24 0 -6
BITMAP
000800
000800
000800
000800
000800
000800
000800
000800
000800
000800
000800
FFFFFF
FFFFFF
FFFFFF
000000
000000
000000
000000
000000
000000
000000
000000
000000
000000
ENDCHAR

STARTCHAR a6bb
ENCODING 42683
SWIDTH 960 0
DWIDTH 24 0
BBX 24 24 0 -6
BITMAP
000800
000800
000800
000800
000800
000800
000800
000800
000800
000800
000800
FFFFFF
FFFFFF
FFFFFF
000800
000800
000800
000800
000800
000800
000800
000800
000800
000800
ENDCHAR

STARTCHAR a6bc
ENCODING 42684
SWIDTH 960 0
DWIDTH 24 0
BBX 24 24 0 -6
BITMAP
000800
000800
000800
000800
000800
000800
000800
000800
000800
000800
000800
000FFF
000FFF
000FFF
000800
000800
000800
000800
000800
000800
000800
000800
000800
000800
ENDCHAR

STARTCHAR a6bd
ENCODING 42685
SWIDTH 960 0
DWIDTH 24 0
BBX 24 24 0 -6
BITMAP
000000
000000
000000
000000
000000
000000
000000
000000
000000
000000
000000
000000
FFFFFF
001C00
001C00
001C00
001C00
001C00
001C00
001C00
001C00
001C00
001C00
001C00
ENDCHAR

STARTCHAR a6be
ENCODING 42686
SWIDTH 960 0
DWIDTH 24 0
BBX 24 24 0 -6
BITMAP
000800
000800
000800
000800
000800
000800
000800
000800
000800
000800
000800
FFF800
FFF800
FFF800
000800
000800
000800
000800
000800
000800
000800
000800
000800
000800
ENDCHAR

STARTCHAR a6bf
ENCODING 42687
SWIDTH 960 0
DWIDTH 24 0
BBX 24 24 0 -6
BITMAP
001C00
001C00
001C00
001C00
001C00
001C00
001C00
001C00
001C00
001C00
001C00
001C00
FFFFFF
000000
000000
000000
000000
000000
000000
000000
000000
000000
000000
000000
ENDCHAR

STARTCHAR a6c0
ENCODING 42688
SWIDTH 960 0
DWIDTH 24 0
BBX 24 24 0 -6
BITMAP
001C00
001C00
001C00
001C00
001C00
001C00
001C00
001C00
001C00
001C00
001C00
001C00
FFFFFF
001C00
001C00
001C00
001C00
001C00
001C00
001C00
001C00
001C00
001C00
001C00
ENDCHAR

STARTCHAR a6c1
ENCODING 42689
SWIDTH 960 0
DWIDTH 24 0
BBX 24 24 0 -6
BITMAP
000000
000000
000000
000000
000000
000000
000000
000000
000000
000000
000000
000000
FFFC00
001C00
001C00
001C00
001C00
001C00
001C00
001C00
001C00
001C00
001C00
001C00
ENDCHAR

STARTCHAR a6c2
ENCODING 42690
SWIDTH 960 0
DWIDTH 24 0
BBX 24 24 0 -6
BITMAP
000000
000000
000000
000000
000000
000000
000000
000000
000000
000000
000000
FFF800
FFF800
FFF800
000800
000800
000800
000800
000800
000800
000800
000800
000800
000800
ENDCHAR

STARTCHAR a6c3
ENCODING 42691
SWIDTH 960 0
DWIDTH 24 0
BBX 24 24 0 -6
BITMAP
001C00
001C00
001C00
001C00
001C00
001C00
001C00
001C00
001C00
001C00
001C00
001C00
FFFC00
000000
000000
000000
000000
000000
000000
000000
000000
000000
000000
000000
ENDCHAR

STARTCHAR a6c4
ENCODING 42692
SWIDTH 960 0
DWIDTH 24 0
BBX 24 24 0 -6
BITMAP
000800
000800
000800
000800
000800
000800
000800
000800
000800
000800
000800
FFF800
FFF800
FFF800
000000
000000
000000
000000
000000
000000
000000
000000
000000
000000
ENDCHAR

STARTCHAR a6c5
ENCODING 42693
SWIDTH 960 0
DWIDTH 24 0
BBX 24 24 0 -6
BITMAP
001C00
001C00
001C00
001C00
001C00
001C00
001C00
001C00
001C00
001C00
001C00
001C00
001FFF
000000
000000
000000
000000
000000
000000
000000
000000
000000
000000
000000
ENDCHAR

STARTCHAR a6c6
ENCODING 42694
SWIDTH 960 0
DWIDTH 24 0
BBX 24 24 0 -6
BITMAP
000800
000800
000800
000800
000800
000800
000800
000800
000800
000800
000800
000FFF
000FFF
000FFF
000000
000000
000000
000000
000000
000000
000000
000000
000000
000000
ENDCHAR

STARTCHAR a6c7
ENCODING 42695
SWIDTH 960 0
DWIDTH 24 0
BBX 24 24 0 -6
BITMAP
000000
000000
000000
000000
000000
000000
000000
000000
000000
000000
000000
000000
001FFF
001C00
001C00
001C00
001C00
001C00
001C00
001C00
001C00
001C00
001C00
001C00
ENDCHAR

STARTCHAR a6c8
ENCODING 42696
SWIDTH 960 0
DWIDTH 24 0
BBX 24 24 0 -6
BITMAP
000000
000000
000000
000000
000000
000000
000000
000000
000000
000000
000000
000FFF
000FFF
000FFF
000800
000800
000800
000800
000800
000800
000800
000800
000800
000800
ENDCHAR

STARTCHAR a6c9
ENCODING 42697
SWIDTH 960 0
DWIDTH 24 0
BBX 24 24 0 -6
BITMAP
001C00
001C00
001C00
001C00
001C00
001C00
001C00
001C00
001C00
001C00
001C00
001C00
001FFF
000800
000800
000800
000800
000800
000800
000800
000800
000800
000800
000800
ENDCHAR

STARTCHAR a6ca
ENCODING 42698
SWIDTH 960 0
DWIDTH 24 0
BBX 24 24 0 -6
BITMAP
000800
000800
000800
000800
000800
000800
000800
000800
000800
000800
000800
000800
001FFF
001C00
001C00
001C00
001C00
001C00
001C00
001C00
001C00
001C00
001C00
001C00
ENDCHAR

STARTCHAR a6cb
ENCODING 42699
SWIDTH 960 0
DWIDTH 24 0
BBX 24 24 0 -6
BITMAP
001C00
001C00
001C00
001C00
001C00
001C00
001C00
001C00
001C00
001C00
001C00
001FFF
001FFF
001FFF
000800
000800
000800
000800
000800
000800
000800
000800
000800
000800
ENDCHAR

STARTCHAR a6cc
ENCODING 42700
SWIDTH 960 0
DWIDTH 24 0
BBX 24 24 0 -6
BITMAP
000800
000800
000800
000800
000800
000800
000800
000800
000800
000800
000800
001FFF
001FFF
001FFF
001C00
001C00
001C00
001C00
001C00
001C00
001C00
001C00
001C00
001C00
ENDCHAR

STARTCHAR a6cd
ENCODING 42701
SWIDTH 960 0
DWIDTH 24 0
BBX 24 24 0 -6
BITMAP
001C00
001C00
001C00
001C00
001C00
001C00
001C00
001C00
001C00
001C00
001C00
001C00
FFFC00
000800
000800
000800
000800
000800
000800
000800
000800
000800
000800
000800
ENDCHAR

STARTCHAR a6ce
ENCODING 42702
SWIDTH 960 0
DWIDTH 24 0
BBX 24 24 0 -6
BITMAP
000800
000800
000800
000800
000800
000800
000800
000800
000800
000800
000800
000800
FFFC00
001C00
001C00
001C00
001C00
001C00
001C00
001C00
001C00
001C00
001C00
001C00
ENDCHAR

STARTCHAR a6cf
ENCODING 42703
SWIDTH 960 0
DWIDTH 24 0
BBX 24 24 0 -6
BITMAP
001C00
001C00
001C00
001C00
001C00
001C00
001C00
001C00
001C00
001C00
001C00
FFFC00
FFFC00
FFFC00
000800
000800
000800
000800
000800
000800
000800
000800
000800
000800
ENDCHAR

STARTCHAR a6d0
ENCODING 42704
SWIDTH 960 0
DWIDTH 24 0
BBX 24 24 0 -6
BITMAP
000800
000800
000800
000800
000800
000800
000800
000800
000800
000800
000800
FFFC00
FFFC00
FFFC00
001C00
001C00
001C00
001C00
001C00
001C00
001C00
001C00
001C00
001C00
ENDCHAR

STARTCHAR a6d1
ENCODING 42705
SWIDTH 960 0
DWIDTH 24 0
BBX 24 24 0 -6
BITMAP
000000
000000
000000
000000
000000
000000
000000
000000
000000
000000
000000
FFF800
FFFFFF
FFF800
000800
000800
000800
000800
000800
000800
000800
000800
000800
000800
ENDCHAR

STARTCHAR a6d2
ENCODING 42706
SWIDTH 960 0
DWIDTH 24 0
BBX 24 24 0 -6
BITMAP
000000
000000
000000
000000
000000
000000
000000
000000
000000
000000
000000
000FFF
FFFFFF
000FFF
000800
000800
000800
000800
000800
000800
000800
000800
000800
000800
ENDCHAR

STARTCHAR a6d3
ENCODING 42707
SWIDTH 960 0
DWIDTH 24 0
BBX 24 24 0 -6
BITMAP
000000
000000
000000
000000
000000
000000
000000
000000
000000
000000
000000
FFFC00
FFFFFF
FFFC00
001C00
001C00
001C00
001C00
001C00
001C00
001C00
001C00
001C00
001C00
ENDCHAR

STARTCHAR a6d4
ENCODING 42708
SWIDTH 960 0
DWIDTH 24 0
BBX 24 24 0 -6
BITMAP
000000
000000
000000
000000
000000
000000
000000
000000
000000
000000
000000
001FFF
FFFFFF
001FFF
001C00
001C00
001C00
001C00
001C00
001C00
001C00
001C00
001C00
001C00
ENDCHAR

STARTCHAR a6d5
ENCODING 42709
SWIDTH 960 0
DWIDTH 24 0
BBX 24 24 0 -6
BITMAP
000800
000800
000800
000800
000800
000800
000800
000800
000800
000800
000800
FFF800
FFFFFF
FFF800
000000
000000
000000
000000
000000
000000
000000
000000
000000
000000
ENDCHAR

STARTCHAR a6d6
ENCODING 42710
SWIDTH 960 0
DWIDTH 24 0
BBX 24 24 0 -6
BITMAP
000800
000800
000800
000800
000800
000800
000800
000800
000800
000800
000800
000FFF
FFFFFF
000FFF
000000
000000
000000
000000
000000
000000
000000
000000
000000
000000
ENDCHAR

STARTCHAR a6d7
ENCODING 42711
SWIDTH 960 0
DWIDTH 24 0
BBX 24 24 0 -6
BITMAP
001C00
001C00
001C00
001C00
001C00
001C00
001C00
001C00
001C00
001C00
001C00
FFFC00
FFFFFF
FFFC00
000000
000000
000000
000000
000000
000000
000000
000000
000000
000000
ENDCHAR

STARTCHAR a6d8
ENCODING 42712
SWIDTH 960 0
DWIDTH 24 0
BBX 24 24 0 -6
BITMAP
001C00
001C00
001C00
001C00
001C00
001C00
001C00
001C00
001C00
001C00
001C00
001FFF
FFFFFF
001FFF
000000
000000
000000
000000
000000
000000
000000
000000
000000
000000
ENDCHAR

STARTCHAR a6d9
ENCODING 42713
SWIDTH 960 0
DWIDTH 24 0
BBX 24 24 0 -6
BITMAP
000800
000800
000800
000800
000800
000800
000800
000800
000800
000800
000800
FFF800
FFFFFF
FFF800
000800
000800
000800
000800
000800
000800
000800
000800
000800
000800
ENDCHAR

STARTCHAR a6da
ENCODING 42714
SWIDTH 960 0
DWIDTH 24 0
BBX 24 24 0 -6
BITMAP
000800
000800
000800
000800
000800
000800
000800
000800
000800
000800
000800
000FFF
FFFFFF
000FFF
000800
000800
000800
000800
000800
000800
000800
000800
000800
000800
ENDCHAR

STARTCHAR a6db
ENCODING 42715
SWIDTH 960 0
DWIDTH 24 0
BBX 24 24 0 -6
BITMAP
001C00
001C00
001C00
001C00
001C00
001C00
001C00
001C00
001C00
001C00
001C00
001C00
FFFFFF
000800
000800
000800
000800
000800
000800
000800
000800
000800
000800
000800
ENDCHAR

STARTCHAR a6dc
ENCODING 42716
SWIDTH 960 0
DWIDTH 24 0
BBX 24 24 0 -6
BITMAP
000800
000800
000800
000800
000800
000800
000800
000800
000800
000800
000800
000800
FFFFFF
001C00
001C00
001C00
001C00
001C00
001C00
001C00
001C00
001C00
001C00
001C00
ENDCHAR

STARTCHAR a6dd
ENCODING 42717
SWIDTH 960 0
DWIDTH 24 0
BBX 24 24 0 -6
BITMAP
001C00
001C00
001C00
001C00
001C00
001C00
001C00
001C00
001C00
001C00
001C00
FFFC00
FFFFFF
FFF800
000800
000800
000800
000800
000800
000800
000800
000800
000800
000800
ENDCHAR

STARTCHAR a6de
ENCODING 42718
SWIDTH 960 0
DWIDTH 24 0
BBX 24 24 0 -6
BITMAP
001C00
001C00
001C00
001C00
001C00
001C00
001C00
001C00
001C00
001C00
001C00
001FFF
FFFFFF
000FFF
000800
000800
000800
000800
000800
000800
000800
000800
000800
000800
ENDCHAR

STARTCHAR a6df
ENCODING 42719
SWIDTH 960 0
DWIDTH 24 0
BBX 24 24 0 -6
BITMAP
000800
000800
000800
000800
000800
000800
000800
000800
000800
000800
000800
FFF800
FFFFFF
FFFC00
001C00
001C00
001C00
001C00
001C00
001C00
001C00
001C00
001C00
001C00
ENDCHAR

STARTCHAR a6e0
ENCODING 42720
SWIDTH 960 0
DWIDTH 24 0
BBX 24 24 0 -6
BITMAP
000800
000800
000800
000800
000800
000800
000800
000800
000800
000800
000800
000FFF
FFFFFF
001FFF
001C00
001C00
001C00
001C00
001C00
001C00
001C00
001C00
001C00
001C00
ENDCHAR

STARTCHAR a6e1
ENCODING 42721
SWIDTH 960 0
DWIDTH 24 0
BBX 24 24 0 -6
BITMAP
001C00
001C00
001C00
001C00
001C00
001C00
001C00
001C00
001C00
001C00
001C00
FFFFFF
FFFFFF
FFFFFF
000800
000800
000800
000800
000800
000800
000800
000800
000800
000800
ENDCHAR

STARTCHAR a6e2
ENCODING 42722
SWIDTH 960 0
DWIDTH 24 0
BBX 24 24 0 -6
BITMAP
000800
000800
000800
000800
000800
000800
000800
000800
000800
000800
000800
FFFFFF
FFFFFF
FFFFFF
001C00
001C00
001C00
001C00
001C00
001C00
001C00
001C00
001C00
001C00
ENDCHAR

STARTCHAR a6e3
ENCODING 42723
SWIDTH 960 0
DWIDTH 24 0
BBX 24 24 0 -6
BITMAP
001C00
001C00
001C00
001C00
001C00
001C00
001C00
001C00
001C00
001C00
001C00
FFFC00
FFFFFF
FFFC00
001C00
001C00
001C00
001C00
001C00
001C00
001C00
001C00
001C00
001C00
ENDCHAR

STARTCHAR a6e4
ENCODING 42724
SWIDTH 960 0
DWIDTH 24 0
BBX 24 24 0 -6
BITMAP
001C00
001C00
001C00
001C00
001C00
001C00
001C00
001C00
001C00
001C00
001C00
001FFF
FFFFFF
001FFF
001C00
001C00
001C00
001C00
001C00
001C00
001C00
001C00
001C00
001C00
ENDCHAR

STARTCHAR a7a1
ENCODING 42913
SWIDTH 960 0
DWIDTH 24 0
BBX 24 24 0 -6
BITMAP
000000
000000
000060
000090
000090
000110
000110
000110
042220
042220
042220
042240
084240
084280
084100
084310
08C520
1730C0
100000
100000
100000
100000
000000
000000
ENDCHAR

STARTCHAR a7a2
ENCODING 42914
SWIDTH 960 0
DWIDTH 24 0
BBX 24 24 0 -6
BITMAP
000000
000000
000030
000048
000048
000088
000088
000088
366110
199110
111110
111120
111120
111140
111080
111188
111290
3BB860
000000
000000
000000
000000
000000
000000
ENDCHAR

STARTCHAR a7a3
ENCODING 42915
SWIDTH 960 0
DWIDTH 24 0
BBX 24 24 0 -6
BITMAP
000000
000000
002030
00E048
002048
002088
002088
002088
07A110
086110
102110
102120
102120
102140
102080
102188
086290
07B060
000000
000000
000000
000000
000000
000000
ENDCHAR

STARTCHAR a7a4
ENCODING 42916
SWIDTH 960 0
DWIDTH 24 0
BBX 24 24 0 -6
BITMAP
000000
000000
000600
000900
001100
002100
002100
002100
004200
004200
004400
004400
004800
005000
002000
006100
00A200
011C00
000000
000000
000000
000000
000000
000000
ENDCHAR

STARTCHAR a7a5
ENCODING 42917
SWIDTH 960 0
DWIDTH 24 0
BBX 24 24 0 -6
BITMAP
000000
000000
080030
180048
080048
080088
080088
080088
08F110
084110
088110
090120
0B0120
0C8140
088080
084188
084290
1CF060
000000
000000
000000
000000
000000
000000
ENDCHAR

STARTCHAR a7a6
ENCODING 42918
SWIDTH 960 0
DWIDTH 24 0
BBX 24 24 0 -6
BITMAP
000000
000000
000000
000000
000000
000000
000000
000000
03A0E8
046118
082208
080200
080200
080200
080200
082208
042108
03C0F0
000000
000000
000000
000000
000000
000000
ENDCHAR

STARTCHAR a7a7
ENCODING 42919
SWIDTH 960 0
DWIDTH 24 0
BBX 24 24 0 -6
BITMAP
000000
000000
000018
000004
000018
000004
000018
000000
2D96C0
124920
124920
124920
124920
124920
124920
124920
124920
124920
000000
000000
000000
000000
000000
000000
ENDCHAR

STARTCHAR a7a8
ENCODING 42920
SWIDTH 960 0
DWIDTH 24 0
BBX 24 24 0 -6
BITMAP
000000
000000
000018
000004
000018
000004
000018
000000
0E5DC0
112220
212220
202220
202220
202220
202220
212220
112220
0E7770
000000
000000
000000
000000
000000
000000
ENDCHAR

STARTCHAR a7a9
ENCODING 42921
SWIDTH 960 0
DWIDTH 24 0
BBX 24 24 0 -6
BITMAP
000000
000000
000030
000008
000030
000008
000030
000000
02F700
071880
021080
021080
021080
021080
021080
021080
021080
0739C0
000000
000000
000000
000000
000000
000000
ENDCHAR

STARTCHAR a7aa
ENCODING 42922
SWIDTH 960 0
DWIDTH 24 0
BBX 24 24 0 -6
BITMAP
000000
000000
100018
300004
100018
100004
100018
100000
13AD80
111240
121240
141240
1C1240
141240
121240
121240
111240
39B260
000000
000000
000000
000000
000000
000000
ENDCHAR

STARTCHAR a7ab
ENCODING 42923
SWIDTH 960 0
DWIDTH 24 0
BBX 24 24 0 -6
BITMAP
000000
000000
060000
080000
080000
080000
080000
080000
080000
3EEE70
083188
082108
082108
082108
082108
082108
082108
1C739C
000000
000000
000000
000000
000000
000000
ENDCHAR

STARTCHAR a7ac
ENCODING 42924
SWIDTH 960 0
DWIDTH 24 0
BBX 24 24 0 -6
BITMAP
000000
000000
000000
000000
000000
000000
000000
000000
2F1770
108888
108888
108888
108888
108888
108888
108888
108888
39DDDC
000000
000000
000000
000000
000000
000000
ENDCHAR

STARTCHAR a7ad
ENCODING 42925
SWIDTH 960 0
DWIDTH 24 0
BBX 24 24 0 -6
BITMAP
000000
000000
000000
000000
000000
000000
000000
000000
089770
088888
088888
088888
198888
110888
110888
110888
110888
2E9DDC
200000
200000
200000
200000
000000
000000
ENDCHAR

STARTCHAR a7ae
ENCODING 42926
SWIDTH 960 0
DWIDTH 24 0
BBX 24 24 0 -6
BITMAP
000000
000000
000000
000000
000000
000000
000000
000000
2D8B60
124490
124490
124490
124490
124490
124490
124490
124490
3AEEB8
000000
000000
000000
000000
000000
000000
ENDCHAR

STARTCHAR a7af
ENCODING 42927
SWIDTH 960 0
DWIDTH 24 0
BBX 24 24 0 -6
BITMAP
000000
000000
000000
000000
000000
000000
000000
000000
0F1770
108888
208888
200888
200888
200888
200888
208888
108888
0F1DDC
000000
000000
000000
000000
000000
000000
ENDCHAR

STARTCHAR a7b0
ENCODING 42928
SWIDTH 960 0
DWIDTH 24 0
BBX 24 24 0 -6
BITMAP
000000
000000
100000
300000
100000
100000
100000
100000
11D770
108888
110888
120888
140888
1C0888
120888
110888
108888
39DDDC
000000
000000
000000
000000
000000
000000
ENDCHAR

STARTCHAR a7b1
ENCODING 42929
SWIDTH 960 0
DWIDTH 24 0
BBX 24 24 0 -6
BITMAP
000000
000000
000018
000004
000008
000010
00001C
000000
2D96C0
124920
124920
124920
124920
124920
124920
124920
124920
124920
000000
000000
000000
000000
000000
000000
ENDCHAR

STARTCHAR a7b2
ENCODING 42930
SWIDTH 960 0
DWIDTH 24 0
BBX 24 24 0 -6
BITMAP
000000
000000
000018
000004
000008
000010
00001C
000000
0E6EE0
111110
211110
201110
201110
201110
201110
211110
111110
0E1110
000000
000000
000000
000000
000000
000000
ENDCHAR

STARTCHAR a7b3
ENCODING 42931
SWIDTH 960 0
DWIDTH 24 0
BBX 24 24 0 -6
BITMAP
000000
000000
000070
000010
000020
000040
000070
000000
0BDE00
042100
042100
042100
042100
042100
042100
042100
042100
0E7380
000000
000000
000000
000000
000000
000000
ENDCHAR

STARTCHAR a7b4
ENCODING 42932
SWIDTH 960 0
DWIDTH 24 0
BBX 24 24 0 -6
BITMAP
000000
000000
10001C
300004
100008
100010
10001C
100000
11F6C0
108920
110920
120920
140920
1C0920
120920
110920
108920
39FD70
000000
000000
000000
000000
000000
000000
ENDCHAR

STARTCHAR a7b5
ENCODING 42933
SWIDTH 960 0
DWIDTH 24 0
BBX 24 24 0 -6
BITMAP
000000
000000
080000
180000
080000
080000
080000
080000
0B07C0
0C8020
084020
084020
0843E0
084420
084420
084420
084420
1CE3D0
000000
000000
000000
000000
000000
000000
ENDCHAR

STARTCHAR a7b6
ENCODING 42934
SWIDTH 960 0
DWIDTH 24 0
BBX 24 24 0 -6
BITMAP
000000
000000
000000
000000
000000
000000
000000
000000
0221D0
022220
022220
044220
044220
0441C0
088200
088200
0C8200
0B61E0
100210
100210
100210
1001E0
000000
000000
ENDCHAR

STARTCHAR a7b7
ENCODING 42935
SWIDTH 960 0
DWIDTH 24 0
BBX 24 24 0 -6
BITMAP
000000
000000
000000
000000
000000
000000
000000
000000
2EE0F4
111108
111108
111108
111108
1110F0
111100
111100
111100
3BB8F8
000104
000104
000104
0000F8
000000
000000
ENDCHAR

STARTCHAR a7b8
ENCODING 42936
SWIDTH 960 0
DWIDTH 24 0
BBX 24 24 0 -6
BITMAP
000000
000000
040000
0C0000
040000
040000
040000
040000
0479E8
042210
044210
048210
050210
0701E0
048200
044200
042200
0E79F0
000208
000208
000208
0001F0
000000
000000
ENDCHAR

STARTCHAR a7b9
ENCODING 42937
SWIDTH 960 0
DWIDTH 24 0
BBX 24 24 0 -6
BITMAP
000000
000000
040000
0C0000
040080
040080
040080
040080
047BF0
042080
044080
048080
050080
070080
048080
044080
042080
0E7870
000000
000000
000000
000000
000000
000000
ENDCHAR

STARTCHAR a7ba
ENCODING 42938
SWIDTH 960 0
DWIDTH 24 0
BBX 24 24 0 -6
BITMAP
000000
000000
000000
000010
000030
000010
000010
000010
0E3C10
110210
210210
200210
201E10
202210
202210
212210
112210
0E1DB8
000000
000000
000000
000000
000000
000000
ENDCHAR

STARTCHAR a7bb
ENCODING 42939
SWIDTH 960 0
DWIDTH 24 0
BBX 24 24 0 -6
BITMAP
000000
000000
200004
200004
200004
200004
200004
200004
2233C4
264824
248824
288024
3081E4
308224
288224
248A24
264A24
2231D4
000000
000000
000000
000000
000000
000000
ENDCHAR

STARTCHAR a7bc
ENCODING 42940
SWIDTH 960 0
DWIDTH 24 0
BBX 24 24 0 -6
BITMAP
000000
000000
004FC0
00C420
004410
004410
004410
004410
074420
08C7C0
104420
104410
104410
104410
104410
104410
08C420
074FC0
000000
000000
000000
000000
000000
000000
ENDCHAR

STARTCHAR a7bd
ENCODING 42941
SWIDTH 960 0
DWIDTH 24 0
BBX 24 24 0 -6
BITMAP
000000
000000
000080
000080
000080
000100
000100
000100
2D8278
124284
124280
124480
124478
124404
124804
124884
124884
325078
001000
001000
002000
002000
000000
000000
ENDCHAR

STARTCHAR a7be
ENCODING 42942
SWIDTH 960 0
DWIDTH 24 0
BBX 24 24 0 -6
BITMAP
000000
000000
00011C
000104
000108
000210
00021C
000200
3B04E0
248510
248500
248900
2488E0
248810
249010
249110
249110
24A0E0
002000
002000
004000
004000
000000
000000
ENDCHAR

STARTCHAR a7bf
ENCODING 42943
SWIDTH 960 0
DWIDTH 24 0
BBX 24 24 0 -6
BITMAP
000000
000000
000000
000000
000000
000000
000000
000000
0B81E0
1C4210
082200
082200
0821E0
082010
082010
082210
0C4210
0B81E0
080000
080000
080000
1C0000
000000
000000
ENDCHAR

STARTCHAR a7c0
ENCODING 42944
SWIDTH 960 0
DWIDTH 24 0
BBX 24 24 0 -6
BITMAP
000000
000000
000000
000000
000000
000000
000000
000000
1B83A0
0C4460
084420
084400
0843C0
084020
084020
084420
084620
1CE5C0
000000
000000
000000
000000
000000
000000
ENDCHAR

STARTCHAR a7c1
ENCODING 42945
SWIDTH 960 0
DWIDTH 24 0
BBX 24 24 0 -6
BITMAP
000000
000000
000000
000000
000000
000000
000000
000000
0211E0
021210
021200
042200
0421E0
042010
042010
084210
0C4210
0BB1E0
080000
100000
100000
100000
000000
000000
ENDCHAR

STARTCHAR a7c2
ENCODING 42946
SWIDTH 960 0
DWIDTH 24 0
BBX 24 24 0 -6
BITMAP
000000
000000
000000
000000
000000
000000
000000
000000
2EE0F0
111108
111108
111100
1110F0
111008
111008
111108
111108
3BB8F0
000000
000000
000000
000000
000000
000000
ENDCHAR

STARTCHAR a7c3
ENCODING 42947
SWIDTH 960 0
DWIDTH 24 0
BBX 24 24 0 -6
BITMAP
000000
000000
003E7C
000810
000810
000810
000420
000420
170420
188420
104240
104240
104240
104240
104180
104180
188180
170180
100000
100000
100000
380000
000000
000000
ENDCHAR

STARTCHAR a7c4
ENCODING 42948
SWIDTH 960 0
DWIDTH 24 0
BBX 24 24 0 -6
BITMAP
000000
000000
007C7C
001010
001010
000820
000820
000820
370440
188440
108440
108280
108280
108280
108100
108100
108100
39C100
000000
000000
000000
000000
000000
000000
ENDCHAR

STARTCHAR a7c5
ENCODING 42949
SWIDTH 960 0
DWIDTH 24 0
BBX 24 24 0 -6
BITMAP
000000
000000
001C1C
000808
000808
000410
000410
084410
084220
084220
084220
088140
108140
1081C0
108080
188080
176080
100000
200000
200000
200000
200000
000000
000000
ENDCHAR

STARTCHAR a7c6
ENCODING 42950
SWIDTH 960 0
DWIDTH 24 0
BBX 24 24 0 -6
BITMAP
000000
000000
001F7C
000410
000410
000410
000410
000220
000220
2EE220
111220
111140
111140
111140
111140
111080
111080
393880
000000
000000
000000
000000
000000
000000
ENDCHAR

STARTCHAR a7c7
ENCODING 42951
SWIDTH 960 0
DWIDTH 24 0
BBX 24 24 0 -6
BITMAP
000000
000000
307C3C
101010
101010
100820
100820
100820
11EC60
108440
110440
1206C0
140280
1C0280
120280
110100
108100
39E100
000000
000000
000000
000000
000000
000000
ENDCHAR

STARTCHAR a7c8
ENCODING 42952
SWIDTH 960 0
DWIDTH 24 0
BBX 24 24 0 -6
BITMAP
000000
000000
383F1C
183208
183208
183208
145110
145110
145110
145110
1290A0
1290A0
1290A0
1290A0
111040
111040
111040
383840
000000
000000
000000
000000
000000
000000
ENDCHAR

STARTCHAR a7c9
ENCODING 42953
SWIDTH 960 0
DWIDTH 24 0
BBX 24 24 0 -6
BITMAP
000000
000000
000180
000180
000180
000240
000240
000240
170240
088420
084420
084420
0847E0
084420
084810
084810
088810
0F1C38
080000
080000
080000
1C0000
000000
000000
ENDCHAR

STARTCHAR a7ca
ENCODING 42954
SWIDTH 960 0
DWIDTH 24 0
BBX 24 24 0 -6
BITMAP
000000
000000
000080
000080
000080
000140
000140
000140
370140
188220
108220
108220
1083E0
108410
108410
108410
108410
39DE3C
000000
000000
000000
000000
000000
000000
ENDCHAR

STARTCHAR a7cb
ENCODING 42955
SWIDTH 960 0
DWIDTH 24 0
BBX 24 24 0 -6
BITMAP
000000
000000
000040
000040
000040
0000A0
0000A0
0000A0
0440A0
044110
044110
044110
0841F0
088208
088208
088208
188208
17671C
100000
100000
200000
200000
000000
000000
ENDCHAR

STARTCHAR a7cc
ENCODING 42956
SWIDTH 960 0
DWIDTH 24 0
BBX 24 24 0 -6
BITMAP
000000
000000
000040
000040
000040
0000A0
0000A0
0000A0
2EE0A0
111110
111110
111110
1111F0
111208
111208
111208
111208
3BBE0C
000000
000000
000000
000000
000000
000000
ENDCHAR

STARTCHAR a7cd
ENCODING 42957
SWIDTH 960 0
DWIDTH 24 0
BBX 24 24 0 -6
BITMAP
000000
000000
300080
100080
100080
100140
100140
100140
11E140
108220
110220
120220
1403E0
1C0410
120410
110410
108410
39FE3C
000000
000000
000000
000000
000000
000000
ENDCHAR

STARTCHAR a7ce
ENCODING 42958
SWIDTH 960 0
DWIDTH 24 0
BBX 24 24 0 -6
BITMAP
000000
000000
001DDC
000888
000888
000888
000888
000888
370550
188550
104550
104550
104550
104550
104550
104220
188220
170220
100000
100000
100000
380000
000000
000000
ENDCHAR

STARTCHAR a7cf
ENCODING 42959
SWIDTH 960 0
DWIDTH 24 0
BBX 24 24 0 -6
BITMAP
000000
000000
001C9C
000888
000888
000888
000888
000888
178550
084550
084550
084550
084550
084550
084550
084220
084220
1CE220
000000
000000
000000
000000
000000
000000
ENDCHAR

STARTCHAR a7d0
ENCODING 42960
SWIDTH 960 0
DWIDTH 24 0
BBX 24 24 0 -6
BITMAP
000000
000000
001C9C
000888
000888
000888
000888
000888
044550
044550
044550
084550
088550
088550
088550
108220
188220
176220
100000
200000
200000
200000
000000
000000
ENDCHAR

STARTCHAR a7d1
ENCODING 42961
SWIDTH 960 0
DWIDTH 24 0
BBX 24 24 0 -6
BITMAP
000000
000000
001C9C
000888
000888
000888
000888
000888
2D8550
124550
124550
124550
124550
124550
124550
124220
124220
3AE220
000000
000000
000000
000000
000000
000000
ENDCHAR

STARTCHAR a7d2
ENCODING 42962
SWIDTH 960 0
DWIDTH 24 0
BBX 24 24 0 -6
BITMAP
000000
000000
301C9C
100888
100888
100888
100888
100888
11E948
108550
110550
120550
140550
1C0550
120550
110220
108220
39E220
000000
000000
000000
000000
000000
000000
ENDCHAR

STARTCHAR a7d3
ENCODING 42963
SWIDTH 960 0
DWIDTH 24 0
BBX 24 24 0 -6
BITMAP
000000
000000
307C9C
104888
104888
18C888
18C888
18C888
18C948
154550
154550
154550
154550
124550
124550
124220
124220
104220
000000
000000
000000
000000
000000
000000
ENDCHAR

STARTCHAR a7d4
ENCODING 42964
SWIDTH 960 0
DWIDTH 24 0
BBX 24 24 0 -6
BITMAP
000000
000000
1C3800
081000
081000
081000
081000
081000
0811F8
0FF008
081010
081010
081020
081040
081040
081080
081100
1C39F8
000000
000000
000000
000000
000000
000000
ENDCHAR

STARTCHAR a7d5
ENCODING 42965
SWIDTH 960 0
DWIDTH 24 0
BBX 24 24 0 -6
BITMAP
000000
000000
307380
102100
102100
102100
102100
102100
13A17C
113F04
122108
142108
182110
182110
142120
122120
112140
3BF3FC
000000
000000
000000
000000
000000
000000
ENDCHAR

STARTCHAR a7d6
ENCODING 42966
SWIDTH 960 0
DWIDTH 24 0
BBX 24 24 0 -6
BITMAP
000000
000000
209100
209100
209100
319100
319100
319100
31917C
2A9F04
2A9108
2A9108
2A9110
2A9110
249120
249120
249140
24917C
000000
000000
000000
000000
000000
000000
ENDCHAR

STARTCHAR a7d7
ENCODING 42967
SWIDTH 960 0
DWIDTH 24 0
BBX 24 24 0 -6
BITMAP
000000
000000
0C2100
122100
212100
212100
212100
202100
20217C
203F04
27A108
212108
212110
212110
212120
212120
132140
0D217C
000000
000000
000000
000000
000000
000000
ENDCHAR

STARTCHAR a7d8
ENCODING 42968
SWIDTH 960 0
DWIDTH 24 0
BBX 24 24 0 -6
BITMAP
000000
000000
3FA100
042100
042100
042100
042100
042100
04217C
043F04
042108
042108
042110
042110
042120
042120
042140
04217C
000000
000000
000000
000000
000000
000000
ENDCHAR

STARTCHAR a7d9
ENCODING 42969
SWIDTH 960 0
DWIDTH 24 0
BBX 24 24 0 -6
BITMAP
000000
000000
003800
00C600
010100
010100
020080
020080
020080
020080
010100
010100
008200
004400
024480
024480
024480
03C780
000000
000000
000000
000000
000000
000000
ENDCHAR

STARTCHAR a7da
ENCODING 42970
SWIDTH 960 0
DWIDTH 24 0
BBX 24 24 0 -6
BITMAP
000000
000000
3001E0
100210
100408
100408
100804
100804
13C804
110804
120408
140408
180210
140210
120120
110924
108924
3BCF3C
000000
000000
000000
000000
000000
000000
ENDCHAR

STARTCHAR a7db
ENCODING 42971
SWIDTH 960 0
DWIDTH 24 0
BBX 24 24 0 -6
BITMAP
000000
000000
2021E0
202210
302408
306408
306804
306804
28A804
28A804
28A408
2DA408
252210
252210
252120
222924
222924
222F3C
000000
000000
000000
000000
000000
000000
ENDCHAR

STARTCHAR a7dc
ENCODING 42972
SWIDTH 960 0
DWIDTH 24 0
BBX 24 24 0 -6
BITMAP
000000
000000
0007F8
000208
000208
000200
000200
000200
178220
0843E0
082220
082200
082200
082200
082200
082200
084200
0F8700
080000
080000
080000
1C0000
000000
000000
ENDCHAR

STARTCHAR a7dd
ENCODING 42973
SWIDTH 960 0
DWIDTH 24 0
BBX 24 24 0 -6
BITMAP
000000
000000
0007F8
000208
000208
000200
000200
000200
000220
1B83E0
0C4220
084200
084200
084200
084200
084200
084200
1CE700
000000
000000
000000
000000
000000
000000
ENDCHAR

STARTCHAR a7de
ENCODING 42974
SWIDTH 960 0
DWIDTH 24 0
BBX 24 24 0 -6
BITMAP
000000
000000
0007F8
000208
000208
000200
000200
000200
000220
0223E0
022220
022200
042200
044200
044200
044200
0C4200
0BA700
080000
080000
100000
100000
000000
000000
ENDCHAR

STARTCHAR a7df
ENCODING 42975
SWIDTH 960 0
DWIDTH 24 0
BBX 24 24 0 -6
BITMAP
000000
000000
000018
000008
000008
000008
000008
000008
5DC388
222448
222448
222448
222448
222448
222448
222448
222448
77739C
000000
000000
000000
000000
000000
000000
ENDCHAR

STARTCHAR a7e0
ENCODING 42976
SWIDTH 960 0
DWIDTH 24 0
BBX 24 24 0 -6
BITMAP
000000
000000
000030
000010
000010
000010
000010
000010
0381D0
044230
084410
080410
080410
080410
080410
084410
044230
0381D0
000000
000000
000000
000000
000000
000000
ENDCHAR

STARTCHAR a7e1
ENCODING 42977
SWIDTH 960 0
DWIDTH 24 0
BBX 24 24 0 -6
BITMAP
000000
000000
00000C
000004
000004
000004
000004
000004
337834
14044C
180484
183C84
104484
104484
104484
104484
10444C
383A34
000000
000000
000000
000000
000000
000000
ENDCHAR

STARTCHAR a7e2
ENCODING 42978
SWIDTH 960 0
DWIDTH 24 0
BBX 24 24 0 -6
BITMAP
000000
000000
000008
000008
000008
26F068
280898
300908
307908
208908
208898
207468
00000C
000070
000380
001C70
00E088
070080
380070
000008
000088
000070
000000
000000
ENDCHAR

STARTCHAR a7e3
ENCODING 42979
SWIDTH 960 0
DWIDTH 24 0
BBX 24 24 0 -6
BITMAP
000000
000000
000040
000040
25C340
2824C0
30E440
212440
2124C6
20D358
000060
000198
000604
001804
006008
018390
00045C
000400
000380
000040
000440
000380
000000
000000
ENDCHAR

STARTCHAR a7e4
ENCODING 42980
SWIDTH 960 0
DWIDTH 24 0
BBX 24 24 0 -6
BITMAP
000000
000000
000000
000000
000000
000000
000000
03C670
0422B0
042300
040300
03C200
002200
002200
042200
042200
03C700
000000
000000
000000
000000
000000
000000
000000
ENDCHAR

STARTCHAR a7e5
ENCODING 42981
SWIDTH 960 0
DWIDTH 24 0
BBX 24 24 0 -6
BITMAP
000000
000000
000000
0DC000
062000
041000
041000
041000
041000
0413C0
041020
041020
0621E0
05C220
040220
040220
040220
0E01D0
000000
000000
000000
000000
000000
000000
ENDCHAR

STARTCHAR a7e6
ENCODING 42982
SWIDTH 960 0
DWIDTH 24 0
BBX 24 24 0 -6
BITMAP
000000
000000
000000
303800
102400
102200
102200
102200
102200
13A2F0
112208
122208
142478
183888
142088
122088
112088
3BA074
000000
000000
000000
000000
000000
000000
ENDCHAR

STARTCHAR a7e7
ENCODING 42983
SWIDTH 960 0
DWIDTH 24 0
BBX 24 24 0 -6
BITMAP
000000
000000
000000
209C00
209200
319100
319100
319100
319100
2A9170
2A9208
2A9C08
2A9038
249048
249048
249048
249048
24B834
000000
000000
000000
000000
000000
000000
ENDCHAR

STARTCHAR a7e8
ENCODING 42984
SWIDTH 960 0
DWIDTH 24 0
BBX 24 24 0 -6
BITMAP
000000
000000
0E7800
112400
212200
212200
202200
202200
2022F0
202208
232408
213878
212088
212088
212088
212088
132088
0D7074
000000
000000
000000
000000
000000
000000
ENDCHAR

STARTCHAR a7e9
ENCODING 42985
SWIDTH 960 0
DWIDTH 24 0
BBX 24 24 0 -6
BITMAP
000000
000000
3BBB00
111100
111100
111100
111100
111100
129170
0AA188
0AA104
0AA104
0AA104
0AA104
0AA104
044104
044188
044170
000000
000000
000000
000000
000000
000000
ENDCHAR

STARTCHAR a7ea
ENCODING 42986
SWIDTH 960 0
DWIDTH 24 0
BBX 24 24 0 -6
BITMAP
000000
000000
0C0000
040000
040000
040000
040000
040000
046EE0
041110
041110
041110
041110
041110
041110
041110
041110
0E3BB8
000000
000000
000000
000000
000000
000000
ENDCHAR

STARTCHAR a7eb
ENCODING 42987
SWIDTH 960 0
DWIDTH 24 0
BBX 24 24 0 -6
BITMAP
000000
000000
0C0000
040000
040000
040000
040000
040000
047CF0
041040
040880
040500
040200
040200
040500
040880
041040
0E79F0
000000
000000
000000
000000
000000
000000
ENDCHAR

STARTCHAR a7ec
ENCODING 42988
SWIDTH 960 0
DWIDTH 24 0
BBX 24 24 0 -6
BITMAP
000000
000000
1F8000
084000
082000
082000
082000
082000
0841D0
0F8230
084410
082410
082410
082410
082410
082410
084230
1F81D0
000010
000010
000010
000038
000000
000000
ENDCHAR

STARTCHAR a7ed
ENCODING 42989
SWIDTH 960 0
DWIDTH 24 0
BBX 24 24 0 -6
BITMAP
000000
000000
078000
18C000
106000
306000
200000
200000
201E1C
200408
20E618
202210
202230
202320
302160
102140
1861C0
07A080
000180
000300
000200
000600
000000
000000
ENDCHAR

STARTCHAR a7ee
ENCODING 42990
SWIDTH 960 0
DWIDTH 24 0
BBX 24 24 0 -6
BITMAP
000000
000000
078000
084000
102000
102000
100000
100000
0C071C
038208
004208
002110
002110
002110
1020A0
1020A0
0840E0
078040
000000
000000
000000
000000
000000
000000
ENDCHAR

STARTCHAR a7ef
ENCODING 42991
SWIDTH 960 0
DWIDTH 24 0
BBX 24 24 0 -6
BITMAP
000000
000000
002000
002000
382800
444800
444800
444800
404800
40499A
408924
408B24
408A24
408C18
408E20
450A20
450B20
45091C
3909A2
010022
020022
02001C
000000
000000
ENDCHAR

STARTCHAR a8a1
ENCODING 43169
SWIDTH 960 0
DWIDTH 24 0
BBX 24 24 0 -6
BITMAP
000000
000000
000000
000000
000000
007FE0
006000
00B000
00B000
00B000
011800
011FC0
011800
020C00
03FC00
020C00
040600
040600
0E07E0
000000
000000
000000
000000
000000
ENDCHAR

STARTCHAR a8a2
ENCODING 43170
SWIDTH 960 0
DWIDTH 24 0
BBX 24 24 0 -6
BITMAP
000000
000000
000000
000000
000000
03FC00
00C700
00C180
00C180
00C0C0
00C0C0
07F8C0
00C0C0
00C0C0
00C0C0
00C180
00C180
00C700
03FC00
000000
000000
000000
000000
000000
ENDCHAR

STARTCHAR a8a3
ENCODING 43171
SWIDTH 960 0
DWIDTH 24 0
BBX 24 24 0 -6
BITMAP
000000
000000
000000
000000
000000
003C00
006600
006600
000600
003E00
006600
006600
003B00
000000
000000
000000
03FFE0
000000
000000
000000
000000
000000
000000
000000
ENDCHAR

STARTCHAR a8a4
ENCODING 43172
SWIDTH 960 0
DWIDTH 24 0
BBX 24 24 0 -6
BITMAP
000000
000000
000000
000000
000000
01E3C0
00C180
00C180
07FFF0
00C180
00C180
00FF80
00C180
00C180
00C180
00C180
00C180
00C180
01E3C0
000000
000000
000000
000000
000000
ENDCHAR

STARTCHAR a8a6
ENCODING 43174
SWIDTH 960 0
DWIDTH 24 0
BBX 24 24 0 -6
BITMAP
000000
000000
000000
000000
03C3C0
018180
018180
018180
018180
018180
018180
018180
018180
018180
018180
018180
03C180
001980
001B00
000E00
000000
000000
000000
000000
ENDCHAR

STARTCHAR a8a8
ENCODING 43176
SWIDTH 960 0
DWIDTH 24 0
BBX 24 24 0 -6
BITMAP
000000
000000
000000
000000
07E000
018000
018000
018000
018000
0180E0
0180E0
0180E0
018000
018000
018080
018080
018080
018180
07FF80
000000
000000
000000
000000
000000
ENDCHAR

STARTCHAR a8a9
ENCODING 43177
SWIDTH 960 0
DWIDTH 24 0
BBX 24 24 0 -6
BITMAP
000000
000000
000000
000000
01F800
006000
006000
006600
007800
01E000
066000
006000
006000
006000
006020
006020
006020
006060
01FFE0
000000
000000
000000
000000
000000
ENDCHAR

STARTCHAR a8aa
ENCODING 43178
SWIDTH 960 0
DWIDTH 24 0
BBX 24 24 0 -6
BITMAP
000000
000000
000000
000000
000000
000000
001E60
0071C0
00C1C0
00C340
018660
018C60
019860
01B060
01E060
00C0C0
01C0C0
037380
061E00
0C0000
000000
000000
000000
000000
ENDCHAR

STARTCHAR a8ab
ENCODING 43179
SWIDTH 960 0
DWIDTH 24 0
BBX 24 24 0 -6
BITMAP
000000
000000
000000
000000
000000
000000
01E000
061FF0
0C0C00
0C0C00
180600
180600
1807F0
180600
180600
0C0C00
0C0C00
061FF0
01E000
000000
000000
000000
000000
000000
ENDCHAR

STARTCHAR a8ac
ENCODING 43180
SWIDTH 960 0
DWIDTH 24 0
BBX 24 24 0 -6
BITMAP
000000
000000
000000
000000
000000
003C00
006600
006600
006600
006600
006600
006600
003C00
000000
000000
000000
03FFE0
000000
000000
000000
000000
000000
000000
000000
ENDCHAR

STARTCHAR a8ad
ENCODING 43181
SWIDTH 960 0
DWIDTH 24 0
BBX 24 24 0 -6
BITMAP
000000
000000
000000
000000
01FC00
006000
006000
007E00
006380
006180
0060C0
0060C0
0060C0
0060C0
006180
006380
007E00
006000
006000
01FC00
000000
000000
000000
000000
ENDCHAR

STARTCHAR a8ae
ENCODING 43182
SWIDTH 960 0
DWIDTH 24 0
BBX 24 24 0 -6
BITMAP
000000
000000
000000
000000
000000
03FFC0
0318C0
021840
021840
001800
001800
01FF80
001800
001800
001800
001800
001800
001800
007E00
000000
000000
000000
000000
000000
ENDCHAR

STARTCHAR a8af
ENCODING 43183
SWIDTH 960 0
DWIDTH 24 0
BBX 24 24 0 -6
BITMAP
000000
000000
000000
000000
00C000
00CF80
00F1C0
00C0C0
00C060
00C060
00C060
00C060
00C060
00C060
00C060
00C0C0
00C1C0
00C700
000000
000000
000000
000000
000000
000000
ENDCHAR

STARTCHAR a8b1
ENCODING 43185
SWIDTH 960 0
DWIDTH 24 0
BBX 24 24 0 -6
BITMAP
000000
000000
00FF00
0300C0
040020
080010
100008
120308
21FF84
20C304
200304
200304
200304
200304
200304
200304
100308
100208
080010
040020
0300C0
00FF00
000000
000000
ENDCHAR

STARTCHAR a8b2
ENCODING 43186
SWIDTH 960 0
DWIDTH 24 0
BBX 24 24 0 -6
BITMAP
000000
000000
00FF00
0300C0
040020
080010
100008
100008
238004
20C004
20C004
20C004
20C004
20C004
20C184
207FC4
100008
100008
080010
040020
0300C0
00FF00
000000
000000
ENDCHAR

STARTCHAR a8b3
ENCODING 43187
SWIDTH 960 0
DWIDTH 24 0
BBX 24 24 0 -6
BITMAP
000000
000000
00FF00
0300C0
040020
080010
100008
130108
21FF84
218004
218004
218004
218004
218004
218184
20FFC4
100008
100008
080010
040020
0300C0
00FF00
000000
000000
ENDCHAR

STARTCHAR a8b4
ENCODING 43188
SWIDTH 960 0
DWIDTH 24 0
BBX 24 24 0 -6
BITMAP
000000
000000
00FF00
0300C0
040020
080010
140188
13FFC8
218184
200184
200184
23FFC4
218004
218004
218004
2180C4
10FFE8
100008
080010
040020
0300C0
00FF00
000000
000000
ENDCHAR

STARTCHAR a8b5
ENCODING 43189
SWIDTH 960 0
DWIDTH 24 0
BBX 24 24 0 -6
BITMAP
000000
000000
00FF00
0300C0
040020
080010
100008
130188
21FFC4
218184
218184
218184
218184
218184
218184
21FFC4
118008
100008
080010
040020
0300C0
00FF00
000000
000000
ENDCHAR

STARTCHAR a8b6
ENCODING 43190
SWIDTH 960 0
DWIDTH 24 0
BBX 24 24 0 -6
BITMAP
000000
000000
00FF00
0300C0
040020
080010
100708
170188
218184
218184
218184
21FF84
218184
218184
218184
21FF84
118188
110108
080010
040020
0300C0
00FF00
000000
000000
ENDCHAR

STARTCHAR a8b7
ENCODING 43191
SWIDTH 960 0
DWIDTH 24 0
BBX 24 24 0 -6
BITMAP
000000
000000
00FF00
0300C0
040020
080010
101808
100E08
200C04
200C04
201804
201804
203C04
206304
20C1C4
2180E4
160068
100008
080010
040020
0300C0
00FF00
000000
000000
ENDCHAR

STARTCHAR a8b8
ENCODING 43192
SWIDTH 960 0
DWIDTH 24 0
BBX 24 24 0 -6
BITMAP
000000
000000
00FF00
0300C0
040020
083010
101808
101808
203C04
20C304
208104
218184
218184
218184
218184
208104
10C308
103C08
080010
040020
0300C0
00FF00
000000
000000
ENDCHAR

STARTCHAR a8b9
ENCODING 43193
SWIDTH 960 0
DWIDTH 24 0
BBX 24 24 0 -6
BITMAP
000000
000000
00FF00
0300C0
040020
080010
100008
120308
21FF84
208704
200E04
200C04
201C04
203604
206384
20C1C4
1180C8
120008
080010
040020
0300C0
00FF00
000000
000000
ENDCHAR

STARTCHAR a8ba
ENCODING 43194
SWIDTH 960 0
DWIDTH 24 0
BBX 24 24 0 -6
BITMAP
000000
000000
00FF00
0300C0
040020
086010
103E08
100008
220304
21FF84
208704
200E04
201C04
203604
206384
20C1C4
1380C8
100008
080010
040020
0300C0
00FF00
000000
000000
ENDCHAR

STARTCHAR a8bb
ENCODING 43195
SWIDTH 960 0
DWIDTH 24 0
BBX 24 24 0 -6
BITMAP
000000
000000
00FF00
0300C0
040020
080010
100008
120188
21FFC4
20C184
200184
200184
200F84
23F184
218184
200184
100188
100108
080010
040020
0300C0
00FF00
000000
000000
ENDCHAR

STARTCHAR a8bc
ENCODING 43196
SWIDTH 960 0
DWIDTH 24 0
BBX 24 24 0 -6
BITMAP
000000
000000
00FF00
0300C0
040020
080010
100008
138188
20FFC4
20C004
20C004
20C304
20FF84
20C004
20C004
20C184
107FC8
100008
080010
040020
0300C0
00FF00
000000
000000
ENDCHAR

STARTCHAR a8bd
ENCODING 43197
SWIDTH 960 0
DWIDTH 24 0
BBX 24 24 0 -6
BITMAP
000000
000000
00FF00
0300C0
040020
080010
100008
100088
23FFC4
200004
20C304
20C304
20C304
206604
206604
206644
17FFE8
120008
080010
040020
0300C0
00FF00
000000
000000
ENDCHAR

STARTCHAR a8be
ENCODING 43198
SWIDTH 960 0
DWIDTH 24 0
BBX 24 24 0 -6
BITMAP
000000
000000
00FF00
0300C0
040020
08E010
103E08
100008
200064
2FFFF4
260004
200004
207E04
20C304
20C304
20C304
10C308
107E08
080010
040020
0300C0
00FF00
000000
000000
ENDCHAR

STARTCHAR a8bf
ENCODING 43199
SWIDTH 960 0
DWIDTH 24 0
BBX 24 24 0 -6
BITMAP
000000
000000
00FF00
0300C0
041C20
080710
100308
106308
2FF304
246304
206324
2043F4
20C304
208304
218304
210304
120308
140308
080210
040020
0300C0
00FF00
000000
000000
ENDCHAR

STARTCHAR a8c0
ENCODING 43200
SWIDTH 960 0
DWIDTH 24 0
BBX 24 24 0 -6
BITMAP
000000
000000
00FF00
0300C0
041C20
080710
100308
100308
260304
230304
230324
2303F4
230304
231F04
21E304
200304
100308
100308
080310
040220
0300C0
00FF00
000000
000000
ENDCHAR

STARTCHAR a8c1
ENCODING 43201
SWIDTH 960 0
DWIDTH 24 0
BBX 24 24 0 -6
BITMAP
000000
000000
00FF00
0300C0
040E20
080390
100188
100188
2E3184
23F984
230194
2301FC
230184
230184
231D84
21E184
100188
100188
080190
040120
0300C0
00FF00
000000
000000
ENDCHAR

STARTCHAR a8c2
ENCODING 43202
SWIDTH 960 0
DWIDTH 24 0
BBX 24 24 0 -6
BITMAP
000000
000000
00FF00
0300C0
040E20
080390
100188
103188
27F984
233184
203194
27F1FC
230184
230184
231D84
23E184
100188
100188
080190
040120
0300C0
00FF00
000000
000000
ENDCHAR

STARTCHAR a8c3
ENCODING 43203
SWIDTH 960 0
DWIDTH 24 0
BBX 24 24 0 -6
BITMAP
000000
000000
00FF00
0300C0
040E20
080390
100188
161988
23FD84
231984
231994
2319FC
231984
231984
231984
23FD84
130188
100188
080190
040120
0300C0
00FF00
000000
000000
ENDCHAR

STARTCHAR a8c4
ENCODING 43204
SWIDTH 960 0
DWIDTH 24 0
BBX 24 24 0 -6
BITMAP
000000
000000
00FF00
0300C0
040E20
080390
100188
103988
271984
231984
231994
23F9FC
231984
231984
231984
23F984
131988
100188
080190
040120
0300C0
00FF00
000000
000000
ENDCHAR

STARTCHAR a8c5
ENCODING 43205
SWIDTH 960 0
DWIDTH 24 0
BBX 24 24 0 -6
BITMAP
000000
000000
00FF00
0300C0
040E20
080390
100188
10C188
206184
206184
20C194
20C1FC
21E184
233984
261D84
380D84
100188
100188
080190
040120
0300C0
00FF00
000000
000000
ENDCHAR

STARTCHAR a8c6
ENCODING 43206
SWIDTH 960 0
DWIDTH 24 0
BBX 24 24 0 -6
BITMAP
000000
000000
00FF00
0300C0
040E20
080390
118188
10C188
21E184
233184
261994
2619FC
261984
261984
233184
21E184
100188
100188
080190
040120
0300C0
00FF00
000000
000000
ENDCHAR

STARTCHAR a8c7
ENCODING 43207
SWIDTH 960 0
DWIDTH 24 0
BBX 24 24 0 -6
BITMAP
000000
000000
00FF00
0300C0
040E20
080390
100188
183188
27F984
223184
203194
2061FC
20C184
21E184
233984
261D84
180D88
100188
080190
040120
0300C0
00FF00
000000
000000
ENDCHAR

STARTCHAR a8c8
ENCODING 43208
SWIDTH 960 0
DWIDTH 24 0
BBX 24 24 0 -6
BITMAP
000000
000000
00FF00
0300C0
040E20
0B0390
11C188
100188
283184
27F984
223194
2061FC
206184
20C184
21B184
221D84
1C0D88
100188
080190
040120
0300C0
00FF00
000000
000000
ENDCHAR

STARTCHAR a8c9
ENCODING 43209
SWIDTH 960 0
DWIDTH 24 0
BBX 24 24 0 -6
BITMAP
000000
000000
00FF00
0300C0
040E20
080390
100188
183188
27F984
223184
2031B4
20F1FC
276184
226184
20C184
20C184
118188
130188
0C0190
040120
0300C0
00FF00
000000
000000
ENDCHAR

STARTCHAR a8ca
ENCODING 43210
SWIDTH 960 0
DWIDTH 24 0
BBX 24 24 0 -6
BITMAP
000000
000000
00FF00
0300C0
040E20
080390
100188
1E1188
23F984
230184
230194
23F1FC
230184
230184
231D84
21E184
100188
100188
080190
040120
0300C0
00FF00
000000
000000
ENDCHAR

STARTCHAR a8cb
ENCODING 43211
SWIDTH 960 0
DWIDTH 24 0
BBX 24 24 0 -6
BITMAP
000000
000000
00FF00
0300C0
040E20
080390
100188
100988
2FFD84
200184
233194
2331FC
213184
212184
202184
2FFD84
140188
100188
080190
040120
0300C0
00FF00
000000
000000
ENDCHAR

STARTCHAR a8cc
ENCODING 43212
SWIDTH 960 0
DWIDTH 24 0
BBX 24 24 0 -6
BITMAP
000000
000000
00FF00
0300C0
040E20
0B8390
10F188
100188
200584
2FFF84
240194
2001FC
21F184
231984
231984
231984
11F188
100188
080190
040120
0300C0
00FF00
000000
000000
ENDCHAR

STARTCHAR a8cd
ENCODING 43213
SWIDTH 960 0
DWIDTH 24 0
BBX 24 24 0 -6
BITMAP
000000
000000
00FF00
0300C0
040020
080010
103E08
104308
20C304
20C304
200304
203F04
204304
20C304
20C304
20C344
107DC8
100008
080010
040020
0300C0
00FF00
000000
000000
ENDCHAR

STARTCHAR a8ce
ENCODING 43214
SWIDTH 960 0
DWIDTH 24 0
BBX 24 24 0 -6
BITMAP
000000
000000
00FF00
0300C0
040020
09C010
10C008
10C008
20C004
20DE04
20E304
20C184
20C184
20C184
20C184
20C184
10C188
10E308
089E10
040020
0300C0
00FF00
000000
000000
ENDCHAR

STARTCHAR a8cf
ENCODING 43215
SWIDTH 960 0
DWIDTH 24 0
BBX 24 24 0 -6
BITMAP
000000
000000
00FF00
0300C0
040020
080010
100008
103C08
20C304
208184
218184
218004
218004
218004
218184
208184
10C308
103C08
080010
040020
0300C0
00FF00
000000
000000
ENDCHAR

STARTCHAR a8d0
ENCODING 43216
SWIDTH 960 0
DWIDTH 24 0
BBX 24 24 0 -6
BITMAP
000000
000000
00FF00
0300C0
040720
080310
100308
100308
200304
207B04
20C704
218304
218304
218304
218304
218304
118308
10C708
087990
040020
0300C0
00FF00
000000
000000
ENDCHAR

STARTCHAR a8d1
ENCODING 43217
SWIDTH 960 0
DWIDTH 24 0
BBX 24 24 0 -6
BITMAP
000000
000000
00FF00
0300C0
040020
080010
100008
103E08
206304
20C184
20C184
20FF84
20C004
20C004
20C184
206104
103E08
100008
080010
040020
0300C0
00FF00
000000
000000
ENDCHAR

STARTCHAR a8d2
ENCODING 43218
SWIDTH 960 0
DWIDTH 24 0
BBX 24 24 0 -6
BITMAP
000000
000000
00FF00
0300C0
040020
080E10
101808
101808
201804
201804
207E04
201804
201804
201804
201804
201804
101808
101808
083C10
040020
0300C0
00FF00
000000
000000
ENDCHAR

STARTCHAR a8d3
ENCODING 43219
SWIDTH 960 0
DWIDTH 24 0
BBX 24 24 0 -6
BITMAP
000000
000000
00FF00
0300C0
040020
080190
103E08
106308
206304
206304
207E04
20C004
20C004
207E04
204304
20C304
10C308
10C308
087E10
040020
0300C0
00FF00
000000
000000
ENDCHAR

STARTCHAR a8d4
ENCODING 43220
SWIDTH 960 0
DWIDTH 24 0
BBX 24 24 0 -6
BITMAP
000000
000000
00FF00
0300C0
04E020
086010
106008
106008
206004
206004
206F04
207184
206184
206184
206184
206184
106188
106188
08F3D0
040020
0300C0
00FF00
000000
000000
ENDCHAR

STARTCHAR a8d5
ENCODING 43221
SWIDTH 960 0
DWIDTH 24 0
BBX 24 24 0 -6
BITMAP
000000
000000
00FF00
0300C0
041820
081810
100008
100008
200004
207804
201804
201804
201804
201804
201804
201804
101808
107E08
080010
040020
0300C0
00FF00
000000
000000
ENDCHAR

STARTCHAR a8d6
ENCODING 43222
SWIDTH 960 0
DWIDTH 24 0
BBX 24 24 0 -6
BITMAP
000000
000000
00FF00
0300C0
041820
081810
100008
100008
200004
207804
201804
201804
201804
201804
201804
201804
101808
101808
081810
047020
0300C0
00FF00
000000
000000
ENDCHAR

STARTCHAR a8d7
ENCODING 43223
SWIDTH 960 0
DWIDTH 24 0
BBX 24 24 0 -6
BITMAP
000000
000000
00FF00
0300C0
04C020
09C010
10C008
10C008
20C004
20C784
20C204
20C404
20C804
20D804
20E404
20C204
10C108
11E388
080010
040020
0300C0
00FF00
000000
000000
ENDCHAR

STARTCHAR a8d8
ENCODING 43224
SWIDTH 960 0
DWIDTH 24 0
BBX 24 24 0 -6
BITMAP
000000
000000
00FF00
0300C0
040020
087810
101808
101808
201804
201804
201804
201804
201804
201804
201804
201804
101808
101808
087E10
040020
0300C0
00FF00
000000
000000
ENDCHAR

STARTCHAR a8d9
ENCODING 43225
SWIDTH 960 0
DWIDTH 24 0
BBX 24 24 0 -6
BITMAP
000000
000000
00FF00
0300C0
040020
080010
100008
177B88
239CC4
2318C4
2318C4
2318C4
2318C4
2318C4
2318C4
27BDE4
100008
100008
080010
040020
0300C0
00FF00
000000
000000
ENDCHAR

STARTCHAR a8da
ENCODING 43226
SWIDTH 960 0
DWIDTH 24 0
BBX 24 24 0 -6
BITMAP
000000
000000
00FF00
0300C0
040020
080010
100008
11DE08
20E304
20C304
20C304
20C304
20C304
20C304
20C304
21E784
100008
100008
080010
040020
0300C0
00FF00
000000
000000
ENDCHAR

STARTCHAR a8db
ENCODING 43227
SWIDTH 960 0
DWIDTH 24 0
BBX 24 24 0 -6
BITMAP
000000
000000
00FF00
0300C0
040020
080010
100008
107E08
20C304
218184
218184
218184
218184
218184
218184
20C304
107E08
100008
080010
040020
0300C0
00FF00
000000
000000
ENDCHAR

STARTCHAR a8dc
ENCODING 43228
SWIDTH 960 0
DWIDTH 24 0
BBX 24 24 0 -6
BITMAP
000000
000000
00FF00
0300C0
040020
080010
10FF08
106188
2060C4
2060C4
2060C4
2060C4
206184
207F04
206004
206004
106008
106008
08F010
040020
0300C0
00FF00
000000
000000
ENDCHAR

STARTCHAR a8dd
ENCODING 43229
SWIDTH 960 0
DWIDTH 24 0
BBX 24 24 0 -6
BITMAP
000000
000000
00FF00
0300C0
040020
080010
107F08
10C308
218304
218304
218304
218304
20C304
207F04
200304
200304
100308
100308
080790
040020
0300C0
00FF00
000000
000000
ENDCHAR

STARTCHAR a8de
ENCODING 43230
SWIDTH 960 0
DWIDTH 24 0
BBX 24 24 0 -6
BITMAP
000000
000000
00FF00
0300C0
040020
080010
100008
10E608
206B04
207304
207004
206004
206004
206004
206004
206004
10F008
100008
080010
040020
0300C0
00FF00
000000
000000
ENDCHAR

STARTCHAR a8df
ENCODING 43231
SWIDTH 960 0
DWIDTH 24 0
BBX 24 24 0 -6
BITMAP
000000
000000
00FF00
0300C0
040020
080010
100008
107E08
20C304
20C304
20C004
207E04
200304
200304
20C304
20C304
107E08
100008
080010
040020
0300C0
00FF00
000000
000000
ENDCHAR

STARTCHAR a8e0
ENCODING 43232
SWIDTH 960 0
DWIDTH 24 0
BBX 24 24 0 -6
BITMAP
000000
000000
00FF00
0300C0
040020
081010
101008
103008
20FE04
203004
203004
203004
203004
203004
203004
203004
101E08
100008
080010
040020
0300C0
00FF00
000000
000000
ENDCHAR

STARTCHAR a8e1
ENCODING 43233
SWIDTH 960 0
DWIDTH 24 0
BBX 24 24 0 -6
BITMAP
000000
000000
00FF00
0300C0
040020
080010
100008
11C708
20C304
20C304
20C304
20C304
20C304
20C304
20C304
20C704
107B88
100008
080010
040020
0300C0
00FF00
000000
000000
ENDCHAR

STARTCHAR a8e2
ENCODING 43234
SWIDTH 960 0
DWIDTH 24 0
BBX 24 24 0 -6
BITMAP
000000
000000
00FF00
0300C0
040020
080010
100008
13E7C8
20C104
20C104
206204
206204
203404
203404
203C04
201804
101808
100008
080010
040020
0300C0
00FF00
000000
000000
ENDCHAR

STARTCHAR a8e3
ENCODING 43235
SWIDTH 960 0
DWIDTH 24 0
BBX 24 24 0 -6
BITMAP
000000
000000
00FF00
0300C0
040020
080010
100008
13DEE8
218C44
218C44
218C44
20D684
20D684
20D684
206304
206304
106308
100008
080010
040020
0300C0
00FF00
000000
000000
ENDCHAR

STARTCHAR a8e4
ENCODING 43236
SWIDTH 960 0
DWIDTH 24 0
BBX 24 24 0 -6
BITMAP
000000
000000
00FF00
0300C0
040020
080010
100008
11E388
204104
206204
203404
201804
201804
202C04
204604
208204
11C788
100008
080010
040020
0300C0
00FF00
000000
000000
ENDCHAR

STARTCHAR a8e5
ENCODING 43237
SWIDTH 960 0
DWIDTH 24 0
BBX 24 24 0 -6
BITMAP
000000
000000
00FF00
0300C0
040020
080010
11E388
10C108
20C104
206204
206204
203204
203404
201C04
201804
200804
101008
10E008
08C010
040020
0300C0
00FF00
000000
000000
ENDCHAR

STARTCHAR a8e6
ENCODING 43238
SWIDTH 960 0
DWIDTH 24 0
BBX 24 24 0 -6
BITMAP
000000
000000
00FF00
0300C0
040020
080010
100008
10FF08
208304
208604
200C04
200804
201804
203004
206104
20C104
10FF08
100008
080010
040020
0300C0
00FF00
000000
000000
ENDCHAR

STARTCHAR a8e7
ENCODING 43239
SWIDTH 960 0
DWIDTH 24 0
BBX 24 24 0 -6
BITMAP
000000
000000
00FF00
0300C0
040020
080010
101808
107808
201804
201804
201804
201804
201804
201804
201804
201804
101808
103C08
080010
040020
0300C0
00FF00
000000
000000
ENDCHAR

STARTCHAR a8e8
ENCODING 43240
SWIDTH 960 0
DWIDTH 24 0
BBX 24 24 0 -6
BITMAP
000000
000000
00FF00
0300C0
040020
080010
103C08
104208
20C304
20C304
200304
200604
200C04
203004
206004
20C004
10FF08
10FF08
080010
040020
0300C0
00FF00
000000
000000
ENDCHAR

STARTCHAR a8e9
ENCODING 43241
SWIDTH 960 0
DWIDTH 24 0
BBX 24 24 0 -6
BITMAP
000000
000000
00FF00
0300C0
040020
080010
107E08
10C308
20C304
200304
200604
201C04
200604
200304
200304
20C304
10C308
107E08
080010
040020
0300C0
00FF00
000000
000000
ENDCHAR

STARTCHAR a8ea
ENCODING 43242
SWIDTH 960 0
DWIDTH 24 0
BBX 24 24 0 -6
BITMAP
000000
000000
00FF00
0300C0
040020
080010
101C08
101C08
202C04
202C04
204C04
204C04
208C04
208C04
210C04
21FF04
100C08
100C08
080010
040020
0300C0
00FF00
000000
000000
ENDCHAR

STARTCHAR a8eb
ENCODING 43243
SWIDTH 960 0
DWIDTH 24 0
BBX 24 24 0 -6
BITMAP
000000
000000
00FF00
0300C0
040020
080010
10FF08
10C008
20C004
20C004
20FC04
200604
200304
200304
200304
20C304
10C608
107C08
080010
040020
0300C0
00FF00
000000
000000
ENDCHAR

STARTCHAR a8ec
ENCODING 43244
SWIDTH 960 0
DWIDTH 24 0
BBX 24 24 0 -6
BITMAP
000000
000000
00FF00
0300C0
040020
080010
103C08
104208
20C304
20C004
20C004
20FE04
20C304
20C304
20C304
20C304
104208
103C08
080010
040020
0300C0
00FF00
000000
000000
ENDCHAR

STARTCHAR a8ed
ENCODING 43245
SWIDTH 960 0
DWIDTH 24 0
BBX 24 24 0 -6
BITMAP
000000
000000
00FF00
0300C0
040020
080010
10FE08
108608
208604
200404
200C04
200C04
200804
201804
201804
201004
103008
103008
080010
040020
0300C0
00FF00
000000
000000
ENDCHAR

STARTCHAR a8ee
ENCODING 43246
SWIDTH 960 0
DWIDTH 24 0
BBX 24 24 0 -6
BITMAP
000000
000000
00FF00
0300C0
040020
080010
103C08
104208
20C304
20C304
204204
203C04
204204
20C304
20C304
20C304
104208
103C08
080010
040020
0300C0
00FF00
000000
000000
ENDCHAR

STARTCHAR a8ef
ENCODING 43247
SWIDTH 960 0
DWIDTH 24 0
BBX 24 24 0 -6
BITMAP
000000
000000
00FF00
0300C0
040020
080010
103C08
104208
20C304
20C304
20C304
20C304
207F04
200304
200304
20C304
104208
103C08
080010
040020
0300C0
00FF00
000000
000000
ENDCHAR

STARTCHAR a8f0
ENCODING 43248
SWIDTH 960 0
DWIDTH 24 0
BBX 24 24 0 -6
BITMAP
000000
000000
00FF00
0300C0
040020
080010
118708
138888
2198C4
2198C4
2198C4
2198C4
2198C4
2198C4
2198C4
2198C4
118888
13C708
080010
040020
0300C0
00FF00
000000
000000
ENDCHAR

STARTCHAR a8f1
ENCODING 43249
SWIDTH 960 0
DWIDTH 24 0
BBX 24 24 0 -6
BITMAP
000000
000000
00FF00
0300C0
040020
080010
10C308
11C708
20C304
20C304
20C304
20C304
20C304
20C304
20C304
20C304
10C308
11E788
080010
040020
0300C0
00FF00
000000
000000
ENDCHAR

STARTCHAR a8f2
ENCODING 43250
SWIDTH 960 0
DWIDTH 24 0
BBX 24 24 0 -6
BITMAP
000000
000000
00FF00
0300C0
040020
080010
118F88
1398C8
2198C4
2198C4
2180C4
218184
218304
218604
218C04
219844
119FC8
13DFC8
080010
040020
0300C0
00FF00
000000
000000
ENDCHAR

STARTCHAR a8f3
ENCODING 43251
SWIDTH 960 0
DWIDTH 24 0
BBX 24 24 0 -6
BITMAP
000000
000000
00FF00
0300C0
040020
080010
118F88
1398C8
2198C4
2180C4
218184
218704
218184
2180C4
2180C4
2198C4
1198C8
13CF88
080010
040020
0300C0
00FF00
000000
000000
ENDCHAR

STARTCHAR a8f4
ENCODING 43252
SWIDTH 960 0
DWIDTH 24 0
BBX 24 24 0 -6
BITMAP
000000
000000
00FF00
0300C0
040020
080010
118188
138188
218384
218384
218584
218584
218984
218984
219184
219FE4
118188
13C188
080010
040020
0300C0
00FF00
000000
000000
ENDCHAR

STARTCHAR a8f5
ENCODING 43253
SWIDTH 960 0
DWIDTH 24 0
BBX 24 24 0 -6
BITMAP
000000
000000
00FF00
0300C0
040020
080010
119FC8
139FC8
219804
219804
219804
219F84
2180C4
2180C4
2180C4
2198C4
1198C8
13CF88
080010
040020
0300C0
00FF00
000000
000000
ENDCHAR

STARTCHAR a8f6
ENCODING 43254
SWIDTH 960 0
DWIDTH 24 0
BBX 24 24 0 -6
BITMAP
000000
000000
000000
000000
000000
000400
1804F8
38098C
18098C
18118C
18100C
182018
182030
184060
1840C0
188180
1881FC
3D01FC
010000
000000
000000
000000
000000
000000
ENDCHAR

STARTCHAR a8f7
ENCODING 43255
SWIDTH 960 0
DWIDTH 24 0
BBX 24 24 0 -6
BITMAP
000000
000000
000000
000000
000000
000400
1804F8
38098C
18098C
18118C
181008
182030
182008
18400C
18418C
18818C
18818C
3D00F8
010000
000000
000000
000000
000000
000000
ENDCHAR

STARTCHAR a8f8
ENCODING 43256
SWIDTH 960 0
DWIDTH 24 0
BBX 24 24 0 -6
BITMAP
000000
000000
000000
000000
000000
000200
3E02F8
63058C
63058C
63098C
060808
041030
081008
10200C
20218C
60418C
7E418C
7E80F8
008000
000000
000000
000000
000000
000000
ENDCHAR

STARTCHAR a8f9
ENCODING 43257
SWIDTH 960 0
DWIDTH 24 0
BBX 24 24 0 -6
BITMAP
000000
000000
000000
000000
000000
000400
180430
380830
180870
181070
1810F0
1820B0
1821B0
184130
184330
1883FC
188030
3D0030
010000
000000
000000
000000
000000
000000
ENDCHAR

STARTCHAR a8fa
ENCODING 43258
SWIDTH 960 0
DWIDTH 24 0
BBX 24 24 0 -6
BITMAP
000000
000000
000000
000000
000000
000100
1F0130
318230
318270
018470
0104F0
0608B0
0109B0
019130
019330
31A3FC
31A030
1F4030
004000
000000
000000
000000
000000
000000
ENDCHAR

STARTCHAR a8fb
ENCODING 43259
SWIDTH 960 0
DWIDTH 24 0
BBX 24 24 0 -6
BITMAP
000000
000000
000000
000000
000000
000400
1804F8
38098C
18098C
18118C
181088
182070
182088
18418C
18418C
18818C
18818C
3D00F8
010000
000000
000000
000000
000000
000000
ENDCHAR

STARTCHAR a8fc
ENCODING 43260
SWIDTH 960 0
DWIDTH 24 0
BBX 24 24 0 -6
BITMAP
000000
000000
000000
000000
000000
000100
3E017C
6302C6
6302C6
6304C6
020444
1C0838
020844
0310C6
0310C6
6320C6
6320C6
3E407C
004000
000000
000000
000000
000000
000000
ENDCHAR

STARTCHAR a8fd
ENCODING 43261
SWIDTH 960 0
DWIDTH 24 0
BBX 24 24 0 -6
BITMAP
000000
000000
000000
000000
000000
000100
7F017C
7F02C6
4002C6
4004C6
400444
7E0838
030844
0310C6
0310C6
6320C6
6320C6
3E407C
004000
000000
000000
000000
000000
000000
ENDCHAR

STARTCHAR a8fe
ENCODING 43262
SWIDTH 960 0
DWIDTH 24 0
BBX 24 24 0 -6
BITMAP
000000
000000
000000
000000
000000
000200
7F027C
6104C6
6104C6
6308C6
020844
021038
061044
0420C6
0420C6
0C40C6
0C40C6
0C807C
008000
000000
000000
000000
000000
000000
ENDCHAR

STARTCHAR a9a1
ENCODING 43425
SWIDTH 960 0
DWIDTH 24 0
BBX 24 24 0 -6
BITMAP
000000
000000
000000
000000
000000
000000
000000
01E380
0334C0
0318C0
0018C0
007FC0
019800
031800
0318C0
032CC0
01C780
000000
000000
000000
000000
000000
000000
000000
ENDCHAR

STARTCHAR a9a2
ENCODING 43426
SWIDTH 960 0
DWIDTH 24 0
BBX 24 24 0 -6
BITMAP
000000
000000
000000
000E00
000600
000600
007F80
000600
000600
003600
00CE00
008600
018600
018600
018600
018600
008600
00CE00
003300
000000
000000
000000
000000
000000
ENDCHAR

STARTCHAR a9a3
ENCODING 43427
SWIDTH 960 0
DWIDTH 24 0
BBX 24 24 0 -6
BITMAP
000000
000000
000000
000000
000000
000180
000300
003E00
006E00
00DB00
003300
000300
00FF00
00C300
00C300
004600
003C00
000000
000000
000000
000000
000000
000000
000000
ENDCHAR

STARTCHAR a9a4
ENCODING 43428
SWIDTH 960 0
DWIDTH 24 0
BBX 24 24 0 -6
BITMAP
000000
000000
000000
000000
006000
00E000
006000
006000
01FF00
006000
006E00
007300
006180
006180
006180
006180
006180
006180
006180
00F3C0
000000
000000
000000
000000
ENDCHAR

STARTCHAR a9a5
ENCODING 43429
SWIDTH 960 0
DWIDTH 24 0
BBX 24 24 0 -6
BITMAP
000000
000000
000000
000000
000000
000000
000000
000000
001800
003800
001800
001800
001800
001800
001800
001800
001800
003C00
000000
000000
000000
000000
000000
000000
ENDCHAR

STARTCHAR a9a6
ENCODING 43430
SWIDTH 960 0
DWIDTH 24 0
BBX 24 24 0 -6
BITMAP
000000
000000
000000
00C180
00C180
000000
000000
000000
00C180
01C380
00C180
00C180
00C180
00C180
00C180
00C180
00C180
01E180
000D80
000D80
000700
000000
000000
000000
ENDCHAR

STARTCHAR a9a7
ENCODING 43431
SWIDTH 960 0
DWIDTH 24 0
BBX 24 24 0 -6
BITMAP
000000
000000
000000
000000
000000
000000
000000
01CF80
00C600
00CC00
00D800
00F000
00D800
00CC00
00C600
00C300
01E7C0
000000
000000
000000
000000
000000
000000
000000
ENDCHAR

STARTCHAR a9a8
ENCODING 43432
SWIDTH 960 0
DWIDTH 24 0
BBX 24 24 0 -6
BITMAP
000000
000000
000000
000000
00C000
01C000
00C000
00C000
00C000
00C000
00C380
00C380
00C380
00C000
00C000
00C000
00C000
00C000
00C000
01E000
000000
000000
000000
000000
ENDCHAR

STARTCHAR a9a9
ENCODING 43433
SWIDTH 960 0
DWIDTH 24 0
BBX 24 24 0 -6
BITMAP
000000
000000
000000
000000
001800
003800
001800
001880
001900
001A00
001C00
001800
001800
003800
005800
009800
011800
001800
001800
003C00
000000
000000
000000
000000
ENDCHAR

STARTCHAR a9aa
ENCODING 43434
SWIDTH 960 0
DWIDTH 24 0
BBX 24 24 0 -6
BITMAP
000000
000000
000600
000600
000400
000400
000400
001E00
003700
006580
006980
00C980
00C980
00CB00
00CB00
006E00
003C00
001000
001000
001000
003000
003000
000000
000000
ENDCHAR

STARTCHAR a9ab
ENCODING 43435
SWIDTH 960 0
DWIDTH 24 0
BBX 24 24 0 -6
BITMAP
000000
000000
000000
000000
000000
000000
01E3C0
033460
061830
061830
061FF0
061800
061800
061830
033460
01E3C0
000000
000000
000000
000000
000000
000000
000000
000000
ENDCHAR

STARTCHAR a9ac
ENCODING 43436
SWIDTH 960 0
DWIDTH 24 0
BBX 24 24 0 -6
BITMAP
000000
000000
000000
000C00
001600
001200
002200
002200
002400
004400
004800
004800
004400
008200
008200
008200
008200
00FC00
008000
008000
008000
000000
000000
000000
ENDCHAR

STARTCHAR a9ad
ENCODING 43437
SWIDTH 960 0
DWIDTH 24 0
BBX 24 24 0 -6
BITMAP
000000
000000
000000
000000
01E000
00C000
00C000
00FC00
00C300
00C180
00C180
00C180
00C180
00C100
00C300
00C600
00F800
00C000
00C000
01E000
000000
000000
000000
000000
ENDCHAR

STARTCHAR a9ae
ENCODING 43438
SWIDTH 960 0
DWIDTH 24 0
BBX 24 24 0 -6
BITMAP
000000
000000
000000
001000
001800
001000
007000
019000
001000
003000
00FE00
003000
003000
003000
003000
003000
003000
003200
001200
000C00
000000
000000
000000
000000
ENDCHAR

STARTCHAR a9af
ENCODING 43439
SWIDTH 960 0
DWIDTH 24 0
BBX 24 24 0 -6
BITMAP
000000
000000
000000
000000
01DE00
00E300
00C300
00C300
00C300
00C300
00C300
00C300
00C300
01E300
000300
000300
000300
006200
006600
003C00
000000
000000
000000
000000
ENDCHAR

STARTCHAR a9b0
ENCODING 43440
SWIDTH 960 0
DWIDTH 24 0
BBX 24 24 0 -6
BITMAP
000000
000000
000000
010000
038000
030000
060000
040000
000000
003BC0
001C60
001860
001860
001860
001860
001860
001860
001860
003CF0
000000
000000
000000
000000
000000
ENDCHAR

STARTCHAR a9b1
ENCODING 43441
SWIDTH 960 0
DWIDTH 24 0
BBX 24 24 0 -6
BITMAP
000000
000000
080010
080010
100008
100008
100008
200304
21FF84
20C304
200304
200304
200304
200304
200304
200304
200204
100008
100008
100008
080010
080010
000000
000000
ENDCHAR

STARTCHAR a9b2
ENCODING 43442
SWIDTH 960 0
DWIDTH 24 0
BBX 24 24 0 -6
BITMAP
000000
000000
080010
080010
100008
100008
100008
200004
238004
20C004
20C004
20C004
20C004
20C004
20C184
207FC4
200004
100008
100008
100008
080010
080010
000000
000000
ENDCHAR

STARTCHAR a9b3
ENCODING 43443
SWIDTH 960 0
DWIDTH 24 0
BBX 24 24 0 -6
BITMAP
000000
000000
080010
080010
100008
100008
100008
238304
21FF84
218004
218004
218004
218004
218004
218304
20FF84
200004
100008
100008
100008
080010
080010
000000
000000
ENDCHAR

STARTCHAR a9b4
ENCODING 43444
SWIDTH 960 0
DWIDTH 24 0
BBX 24 24 0 -6
BITMAP
000000
000000
080010
080010
100008
100008
100208
21FF84
20C304
200304
200304
21FF84
20C004
20C004
20C004
20C184
207FC4
100008
100008
100008
080010
080010
000000
000000
ENDCHAR

STARTCHAR a9b5
ENCODING 43445
SWIDTH 960 0
DWIDTH 24 0
BBX 24 24 0 -6
BITMAP
000000
000000
080010
080010
100008
100008
100008
238184
21FFC4
218184
218184
218184
218184
218184
218184
21FFC4
218004
100008
100008
100008
080010
080010
000000
000000
ENDCHAR

STARTCHAR a9b6
ENCODING 43446
SWIDTH 960 0
DWIDTH 24 0
BBX 24 24 0 -6
BITMAP
000000
000000
080010
080010
100008
100008
100008
21C384
20C184
20C184
20FF84
20C184
20C184
20C184
20C184
20FF84
20C184
100008
100008
100008
080010
080010
000000
000000
ENDCHAR

STARTCHAR a9b7
ENCODING 43447
SWIDTH 960 0
DWIDTH 24 0
BBX 24 24 0 -6
BITMAP
000000
000000
080010
080010
100008
100008
100008
201804
200E04
200C04
200C04
201804
201C04
202604
204384
2181E4
260064
100008
100008
100008
080010
080010
000000
000000
ENDCHAR

STARTCHAR a9b8
ENCODING 43448
SWIDTH 960 0
DWIDTH 24 0
BBX 24 24 0 -6
BITMAP
000000
000000
080010
080010
100008
100008
103008
201804
201804
207E04
20C304
218184
218184
218184
218184
218184
20C304
107E08
100008
100008
080010
080010
000000
000000
ENDCHAR

STARTCHAR a9b9
ENCODING 43449
SWIDTH 960 0
DWIDTH 24 0
BBX 24 24 0 -6
BITMAP
000000
000000
080010
080010
100008
100008
100008
220604
21FF84
208604
200C04
200C04
201804
203604
206384
2081C4
2300C4
100008
100008
100008
080010
080010
000000
000000
ENDCHAR

STARTCHAR a9ba
ENCODING 43450
SWIDTH 960 0
DWIDTH 24 0
BBX 24 24 0 -6
BITMAP
000000
000000
080010
080010
100008
106008
103E08
200004
220304
21FF84
208604
200C04
200C04
201804
203604
204384
2181C4
1200C8
100008
100008
080010
080010
000000
000000
ENDCHAR

STARTCHAR a9bb
ENCODING 43451
SWIDTH 960 0
DWIDTH 24 0
BBX 24 24 0 -6
BITMAP
000000
000000
080010
080010
100008
100008
100008
200304
21FF84
208304
200304
201F04
21F304
208304
200604
200604
200604
100408
100008
100008
080010
080010
000000
000000
ENDCHAR

STARTCHAR a9bc
ENCODING 43452
SWIDTH 960 0
DWIDTH 24 0
BBX 24 24 0 -6
BITMAP
000000
000000
080010
080010
100008
100008
100008
230104
21FF84
218004
218004
218204
21FF04
218004
218004
218104
20FF84
100008
100008
100008
080010
080010
000000
000000
ENDCHAR

STARTCHAR a9bd
ENCODING 43453
SWIDTH 960 0
DWIDTH 24 0
BBX 24 24 0 -6
BITMAP
000000
000000
080010
080010
100008
100008
100008
200104
23FFC4
200004
218604
218604
20C604
20CC04
20CC04
200CC4
27FFE4
120008
100008
100008
080010
080010
000000
000000
ENDCHAR

STARTCHAR a9be
ENCODING 43454
SWIDTH 960 0
DWIDTH 24 0
BBX 24 24 0 -6
BITMAP
000000
000000
080010
080010
100008
100008
10C008
207E04
200004
2000C4
27FFE4
220004
200004
207E04
20C304
20C304
20C304
107E08
100008
100008
080010
080010
000000
000000
ENDCHAR

STARTCHAR a9bf
ENCODING 43455
SWIDTH 960 0
DWIDTH 24 0
BBX 24 24 0 -6
BITMAP
000000
000000
080010
080010
100E08
100388
100188
203184
27F984
223184
203184
203194
2061FC
206184
20C184
218184
230184
160188
100188
100108
080010
080010
000000
000000
ENDCHAR

STARTCHAR a9c0
ENCODING 43456
SWIDTH 960 0
DWIDTH 24 0
BBX 24 24 0 -6
BITMAP
000000
000000
080010
080010
100C08
100708
100308
200304
230304
218304
218304
218324
2183F4
218F04
21F304
200304
200304
100308
100308
100208
080010
080010
000000
000000
ENDCHAR

STARTCHAR a9c1
ENCODING 43457
SWIDTH 960 0
DWIDTH 24 0
BBX 24 24 0 -6
BITMAP
000000
000000
080010
080010
100C08
100708
100308
202304
27FB04
230304
230364
2303F4
230304
231F04
23E304
200304
200304
100308
100308
100208
080010
080010
000000
000000
ENDCHAR

STARTCHAR a9c2
ENCODING 43458
SWIDTH 960 0
DWIDTH 24 0
BBX 24 24 0 -6
BITMAP
000000
000000
080010
080010
100608
100388
100188
203184
27F984
233184
203194
27F1FC
230184
230184
230F84
23F184
200184
100188
100188
100108
080010
080010
000000
000000
ENDCHAR

STARTCHAR a9c3
ENCODING 43459
SWIDTH 960 0
DWIDTH 24 0
BBX 24 24 0 -6
BITMAP
000000
000000
080010
080010
100608
100388
100188
203184
27F984
233184
233194
2331FC
233184
233184
23F984
230184
200184
100188
100188
100108
080010
080010
000000
000000
ENDCHAR

STARTCHAR a9c4
ENCODING 43460
SWIDTH 960 0
DWIDTH 24 0
BBX 24 24 0 -6
BITMAP
000000
000000
080010
080010
100608
100388
100188
203984
271984
231984
231994
23F9FC
231984
231984
231984
23F984
221184
100188
100188
100108
080010
080010
000000
000000
ENDCHAR

STARTCHAR a9c5
ENCODING 43461
SWIDTH 960 0
DWIDTH 24 0
BBX 24 24 0 -6
BITMAP
000000
000000
080010
080010
100008
100608
100388
20C184
206184
206184
204184
20C194
20A1FC
219184
211984
220984
240184
100188
100188
100108
080010
080010
000000
000000
ENDCHAR

STARTCHAR a9c6
ENCODING 43462
SWIDTH 960 0
DWIDTH 24 0
BBX 24 24 0 -6
BITMAP
000000
000000
080010
080010
100608
100388
100188
21C184
20C184
21E184
233194
2619FC
261984
261984
233184
21E184
200184
100188
100188
100108
080010
080010
000000
000000
ENDCHAR

STARTCHAR a9c7
ENCODING 43463
SWIDTH 960 0
DWIDTH 24 0
BBX 24 24 0 -6
BITMAP
000000
000000
080010
080010
100608
100388
100188
283184
27F984
223184
206194
2061FC
20C184
21B984
211D84
220D84
240184
100188
100188
100108
080010
080010
000000
000000
ENDCHAR

STARTCHAR a9c8
ENCODING 43464
SWIDTH 960 0
DWIDTH 24 0
BBX 24 24 0 -6
BITMAP
000000
000000
080010
080010
100608
170388
11E188
200184
301184
2FF984
243184
206194
2041FC
20E184
21B184
233984
261984
180188
100188
100108
080010
080010
000000
000000
ENDCHAR

STARTCHAR a9c9
ENCODING 43465
SWIDTH 960 0
DWIDTH 24 0
BBX 24 24 0 -6
BITMAP
000000
000000
080010
080010
100608
100388
100188
203184
27F984
233184
203184
21F194
2E21FC
206184
204184
20C184
218184
130188
100188
100108
080010
080010
000000
000000
ENDCHAR

STARTCHAR a9ca
ENCODING 43466
SWIDTH 960 0
DWIDTH 24 0
BBX 24 24 0 -6
BITMAP
000000
000000
080010
080010
100008
100308
100188
201184
27F984
230184
230194
23F1FC
230184
230184
230F84
23F184
200184
100188
100188
100108
080010
080010
000000
000000
ENDCHAR

STARTCHAR a9cb
ENCODING 43467
SWIDTH 960 0
DWIDTH 24 0
BBX 24 24 0 -6
BITMAP
000000
000000
080010
080010
100608
100388
100188
201984
2FFD84
200184
233194
2331FC
233184
233184
2FFD84
260184
200184
100188
100188
100108
080010
080010
000000
000000
ENDCHAR

STARTCHAR a9cc
ENCODING 43468
SWIDTH 960 0
DWIDTH 24 0
BBX 24 24 0 -6
BITMAP
000000
000000
080010
080010
100608
100388
13C188
207984
200184
2FFD84
200194
2001FC
21F184
231984
231984
231984
21F184
100188
100188
100108
080010
080010
000000
000000
ENDCHAR

STARTCHAR a9cd
ENCODING 43469
SWIDTH 960 0
DWIDTH 24 0
BBX 24 24 0 -6
BITMAP
000000
000000
080010
080010
100008
100008
10FE08
218304
218304
200304
200304
203F04
20C304
218304
218304
218304
21C304
10FDC8
100008
100008
080010
080010
000000
000000
ENDCHAR

STARTCHAR a9ce
ENCODING 43470
SWIDTH 960 0
DWIDTH 24 0
BBX 24 24 0 -6
BITMAP
000000
000000
080010
080010
11E008
106008
106008
206004
206004
206F04
207184
2060C4
2060C4
2060C4
2060C4
2060C4
2060C4
1060C8
107188
11CF08
080010
080010
000000
000000
ENDCHAR

STARTCHAR a9cf
ENCODING 43471
SWIDTH 960 0
DWIDTH 24 0
BBX 24 24 0 -6
BITMAP
000000
000000
080010
080010
100008
100008
103E08
20E304
20C184
218184
218004
218004
218004
218004
218184
20C184
20E304
103E08
100008
100008
080010
080010
000000
000000
ENDCHAR

STARTCHAR a9d0
ENCODING 43472
SWIDTH 960 0
DWIDTH 24 0
BBX 24 24 0 -6
BITMAP
000000
000000
080010
080010
100F08
100308
100308
200304
200304
207B04
20C704
218304
218304
218304
218304
218304
218304
118308
10C708
1079C8
080010
080010
000000
000000
ENDCHAR

STARTCHAR a9d1
ENCODING 43473
SWIDTH 960 0
DWIDTH 24 0
BBX 24 24 0 -6
BITMAP
000000
000000
080010
080010
100008
100008
103E08
20E304
20C184
218184
218184
21FF84
218004
218004
218184
20C184
20E304
103E08
100008
100008
080010
080010
000000
000000
ENDCHAR

STARTCHAR a9d2
ENCODING 43474
SWIDTH 960 0
DWIDTH 24 0
BBX 24 24 0 -6
BITMAP
000000
000000
080010
080010
100708
100808
100808
201804
201804
201804
20FF04
201804
201804
201804
201804
201804
201804
101808
107E08
100008
080010
080010
000000
000000
ENDCHAR

STARTCHAR a9d3
ENCODING 43475
SWIDTH 960 0
DWIDTH 24 0
BBX 24 24 0 -6
BITMAP
000000
000000
080010
080010
100008
1001C8
107E48
20C304
20C304
20C304
207E04
20C004
20C004
204004
20FF04
218384
218184
118188
10C308
107E08
080010
080010
000000
000000
ENDCHAR

STARTCHAR a9d4
ENCODING 43476
SWIDTH 960 0
DWIDTH 24 0
BBX 24 24 0 -6
BITMAP
000000
000000
080010
080010
11C008
10C008
10C008
20C004
20C004
20C004
20DC04
20E604
20C304
20C304
20C304
20C304
20C304
10C308
10C308
11E388
080010
080010
000000
000000
ENDCHAR

STARTCHAR a9d5
ENCODING 43477
SWIDTH 960 0
DWIDTH 24 0
BBX 24 24 0 -6
BITMAP
000000
000000
080010
080010
100008
101808
101808
200004
200004
200004
207804
201804
201804
201804
201804
201804
201804
101808
107E08
100008
080010
080010
000000
000000
ENDCHAR

STARTCHAR a9d6
ENCODING 43478
SWIDTH 960 0
DWIDTH 24 0
BBX 24 24 0 -6
BITMAP
000000
000000
080010
080010
101808
101808
100008
200004
207804
201804
201804
201804
201804
201804
201804
201804
201804
101808
101808
107008
080010
080010
000000
000000
ENDCHAR

STARTCHAR a9d7
ENCODING 43479
SWIDTH 960 0
DWIDTH 24 0
BBX 24 24 0 -6
BITMAP
000000
000000
080010
080010
11E008
10C008
10C008
20C004
20C004
20C7C4
20C104
20C204
20C404
20C804
20D804
20EC04
20C604
10C308
10C188
11E3C8
080010
080010
000000
000000
ENDCHAR

STARTCHAR a9d8
ENCODING 43480
SWIDTH 960 0
DWIDTH 24 0
BBX 24 24 0 -6
BITMAP
000000
000000
080010
080010
100008
107808
101808
201804
201804
201804
201804
201804
201804
201804
201804
201804
201804
101808
101808
107E08
080010
080010
000000
000000
ENDCHAR

STARTCHAR a9d9
ENCODING 43481
SWIDTH 960 0
DWIDTH 24 0
BBX 24 24 0 -6
BITMAP
000000
000000
080010
080010
100008
100008
177B88
239CC4
2318C4
2318C4
2318C4
2318C4
2318C4
2318C4
2318C4
2318C4
27BDE4
100008
100008
100008
080010
080010
000000
000000
ENDCHAR

STARTCHAR a9da
ENCODING 43482
SWIDTH 960 0
DWIDTH 24 0
BBX 24 24 0 -6
BITMAP
000000
000000
080010
080010
100008
100008
11DE08
20E304
20C304
20C304
20C304
20C304
20C304
20C304
20C304
20C304
21E784
100008
100008
100008
080010
080010
000000
000000
ENDCHAR

STARTCHAR a9db
ENCODING 43483
SWIDTH 960 0
DWIDTH 24 0
BBX 24 24 0 -6
BITMAP
000000
000000
080010
080010
100008
100008
107E08
20C304
218184
218184
218184
218184
218184
218184
218184
20C304
207E04
100008
100008
100008
080010
080010
000000
000000
ENDCHAR

STARTCHAR a9dc
ENCODING 43484
SWIDTH 960 0
DWIDTH 24 0
BBX 24 24 0 -6
BITMAP
000000
000000
080010
080010
11BE08
10E308
10C188
20C184
20C184
20C184
20C184
20C184
20C184
20E304
20DE04
20C004
20C004
10C008
10C008
11E008
080010
080010
000000
000000
ENDCHAR

STARTCHAR a9dd
ENCODING 43485
SWIDTH 960 0
DWIDTH 24 0
BBX 24 24 0 -6
BITMAP
000000
000000
080010
080010
107908
10C708
118308
218304
218304
218304
218304
218304
218304
20C704
207B04
200304
200304
100308
100308
100788
080010
080010
000000
000000
ENDCHAR

STARTCHAR a9de
ENCODING 43486
SWIDTH 960 0
DWIDTH 24 0
BBX 24 24 0 -6
BITMAP
000000
000000
080010
080010
100008
100008
118E08
205308
206304
206004
206004
206004
206004
206004
206004
206004
206004
11F808
100008
100008
080010
080010
000000
000000
ENDCHAR

STARTCHAR a9df
ENCODING 43487
SWIDTH 960 0
DWIDTH 24 0
BBX 24 24 0 -6
BITMAP
000000
000000
080010
080010
100008
100008
103E08
206304
20C184
20C184
20E004
207C04
201F04
200384
20C184
20C184
206304
103E08
100008
100008
080010
080010
000000
000000
ENDCHAR

STARTCHAR a9e0
ENCODING 43488
SWIDTH 960 0
DWIDTH 24 0
BBX 24 24 0 -6
BITMAP
000000
000000
080010
080010
101008
101008
101008
203004
20FC04
203004
203004
203004
203004
203004
203004
203004
203004
103008
101C08
100008
080010
080010
000000
000000
ENDCHAR

STARTCHAR a9e1
ENCODING 43489
SWIDTH 960 0
DWIDTH 24 0
BBX 24 24 0 -6
BITMAP
000000
000000
080010
080010
100008
100008
13CF08
20C304
20C304
20C304
20C304
20C304
20C304
20C304
20C304
20C304
20E704
1079C8
100008
100008
080010
080010
000000
000000
ENDCHAR

STARTCHAR a9e2
ENCODING 43490
SWIDTH 960 0
DWIDTH 24 0
BBX 24 24 0 -6
BITMAP
000000
000000
080010
080010
100008
100008
13F7C8
20C104
20C104
206204
206204
206204
203404
203404
203404
201804
201804
101808
100008
100008
080010
080010
000000
000000
ENDCHAR

STARTCHAR a9e3
ENCODING 43491
SWIDTH 960 0
DWIDTH 24 0
BBX 24 24 0 -6
BITMAP
000000
000000
080010
080010
100008
100008
17BDC8
231884
231884
231884
21AD04
21AD04
21AD04
21AD04
20C604
20C604
20C604
100008
100008
100008
080010
080010
000000
000000
ENDCHAR

STARTCHAR a9e4
ENCODING 43492
SWIDTH 960 0
DWIDTH 24 0
BBX 24 24 0 -6
BITMAP
000000
000000
080010
080010
100008
100008
11E788
20C104
206204
206404
203404
201804
201804
203C04
202E04
204604
208304
11E788
100008
100008
080010
080010
000000
000000
ENDCHAR

STARTCHAR a9e5
ENCODING 43493
SWIDTH 960 0
DWIDTH 24 0
BBX 24 24 0 -6
BITMAP
000000
000000
080010
080010
100008
13E7C8
10C108
20C104
206204
206204
206204
203404
203404
203404
201804
201804
201004
101008
11A008
11C008
080010
080010
000000
000000
ENDCHAR

STARTCHAR a9e6
ENCODING 43494
SWIDTH 960 0
DWIDTH 24 0
BBX 24 24 0 -6
BITMAP
000000
000000
080010
080010
100008
100008
10FF08
20C304
208604
208604
200C04
201804
201804
203004
206084
206084
20C184
10FF88
100008
100008
080010
080010
000000
000000
ENDCHAR

STARTCHAR a9e7
ENCODING 43495
SWIDTH 960 0
DWIDTH 24 0
BBX 24 24 0 -6
BITMAP
000000
000000
080010
080010
100008
100008
101808
203804
201804
201804
201804
201804
201804
201804
201804
201804
201804
103C08
100008
100008
080010
080010
000000
000000
ENDCHAR

STARTCHAR a9e8
ENCODING 43496
SWIDTH 960 0
DWIDTH 24 0
BBX 24 24 0 -6
BITMAP
000000
000000
080010
080010
100008
100008
107E08
20C704
20C304
20C304
200304
200604
200C04
201804
203004
206004
20FF04
10FF08
100008
100008
080010
080010
000000
000000
ENDCHAR

STARTCHAR a9e9
ENCODING 43497
SWIDTH 960 0
DWIDTH 24 0
BBX 24 24 0 -6
BITMAP
000000
000000
080010
080010
100008
100008
107E08
20C304
20C304
200304
200604
201C04
200604
200304
200304
20C304
20C304
107E08
100008
100008
080010
080010
000000
000000
ENDCHAR

STARTCHAR a9ea
ENCODING 43498
SWIDTH 960 0
DWIDTH 24 0
BBX 24 24 0 -6
BITMAP
000000
000000
080010
080010
100008
100008
101C08
201C04
202C04
202C04
204C04
204C04
208C04
208C04
210C04
21FF04
200C04
100C08
101E08
100008
080010
080010
000000
000000
ENDCHAR

STARTCHAR a9eb
ENCODING 43499
SWIDTH 960 0
DWIDTH 24 0
BBX 24 24 0 -6
BITMAP
000000
000000
080010
080010
100008
100008
10FF08
20C004
20C004
20C004
20FE04
200704
200304
200304
200304
20C304
20C704
107E08
100008
100008
080010
080010
000000
000000
ENDCHAR

STARTCHAR a9ec
ENCODING 43500
SWIDTH 960 0
DWIDTH 24 0
BBX 24 24 0 -6
BITMAP
000000
000000
080010
080010
100008
100008
107E08
20C304
20C304
20C004
20C004
20FE04
20C304
20C304
20C304
20C304
20C304
107E08
100008
100008
080010
080010
000000
000000
ENDCHAR

STARTCHAR a9ed
ENCODING 43501
SWIDTH 960 0
DWIDTH 24 0
BBX 24 24 0 -6
BITMAP
000000
000000
080010
080010
100008
100008
107F08
204304
204304
200604
200604
200604
200C04
200C04
200C04
201804
201804
101808
100008
100008
080010
080010
000000
000000
ENDCHAR

STARTCHAR a9ee
ENCODING 43502
SWIDTH 960 0
DWIDTH 24 0
BBX 24 24 0 -6
BITMAP
000000
000000
080010
080010
100008
100008
107E08
20C304
20C304
20C304
204204
203C04
204204
20C304
20C304
20C304
20C304
107E08
100008
100008
080010
080010
000000
000000
ENDCHAR

STARTCHAR a9ef
ENCODING 43503
SWIDTH 960 0
DWIDTH 24 0
BBX 24 24 0 -6
BITMAP
000000
000000
080010
080010
100008
100008
107E08
20C304
20C304
20C304
20C304
20C304
207F04
200304
200304
20C304
20C304
107E08
100008
100008
080010
080010
000000
000000
ENDCHAR

STARTCHAR a9f0
ENCODING 43504
SWIDTH 960 0
DWIDTH 24 0
BBX 24 24 0 -6
BITMAP
000000
000000
080010
080010
100008
100008
118F88
2398C4
2198C4
2198C4
2198C4
2198C4
2198C4
2198C4
2198C4
2198C4
2198C4
13CF88
100008
100008
080010
080010
000000
000000
ENDCHAR

STARTCHAR a9f1
ENCODING 43505
SWIDTH 960 0
DWIDTH 24 0
BBX 24 24 0 -6
BITMAP
000000
000000
080010
080010
100008
100008
106308
20E704
206304
206304
206304
206304
206304
206304
206304
206304
206304
10F788
100008
100008
080010
080010
000000
000000
ENDCHAR

STARTCHAR a9f2
ENCODING 43506
SWIDTH 960 0
DWIDTH 24 0
BBX 24 24 0 -6
BITMAP
000000
000000
080010
080010
100008
100008
118F88
2398C4
2198C4
2198C4
2180C4
218184
218304
218604
218C04
219804
219FC4
13DFC8
100008
100008
080010
080010
000000
000000
ENDCHAR

STARTCHAR a9f3
ENCODING 43507
SWIDTH 960 0
DWIDTH 24 0
BBX 24 24 0 -6
BITMAP
000000
000000
080010
080010
100008
100008
118F88
2398C4
2198C4
2180C4
218184
218604
218184
2180C4
2180C4
2198C4
2198C4
13CF88
100008
100008
080010
080010
000000
000000
ENDCHAR

STARTCHAR a9f4
ENCODING 43508
SWIDTH 960 0
DWIDTH 24 0
BBX 24 24 0 -6
BITMAP
000000
000000
080010
080010
100008
100008
118388
238384
218584
218584
218584
218984
218984
218984
219184
219FC4
218184
13C188
100008
100008
080010
080010
000000
000000
ENDCHAR

STARTCHAR a9f5
ENCODING 43509
SWIDTH 960 0
DWIDTH 24 0
BBX 24 24 0 -6
BITMAP
000000
000000
080010
080010
100008
100008
119FC8
239FC4
219804
219804
219804
219F84
2180C4
2180C4
2180C4
2198C4
2198C4
13CF88
100008
100008
080010
080010
000000
000000
ENDCHAR

STARTCHAR a9f6
ENCODING 43510
SWIDTH 960 0
DWIDTH 24 0
BBX 24 24 0 -6
BITMAP
000000
001000
003000
001000
001000
001000
001000
001000
003800
000000
000000
000000
000000
000000
000000
000000
000000
000000
000000
000000
000000
000000
000000
000000
ENDCHAR

STARTCHAR a9f7
ENCODING 43511
SWIDTH 960 0
DWIDTH 24 0
BBX 24 24 0 -6
BITMAP
000000
000000
007800
000400
000400
003800
004000
004000
007C00
000000
000000
000000
000000
000000
000000
000000
000000
000000
000000
000000
000000
000000
000000
000000
ENDCHAR

STARTCHAR a9f8
ENCODING 43512
SWIDTH 960 0
DWIDTH 24 0
BBX 24 24 0 -6
BITMAP
000000
000000
007800
000400
000400
003800
000400
000400
007800
000000
000000
000000
000000
000000
000000
000000
000000
000000
000000
000000
000000
000000
000000
000000
ENDCHAR

STARTCHAR a9f9
ENCODING 43513
SWIDTH 960 0
DWIDTH 24 0
BBX 24 24 0 -6
BITMAP
000000
000000
000800
001800
002800
004800
007C00
000800
000800
000000
000000
000000
000000
000000
000000
000000
000000
000000
000000
000000
000000
000000
000000
000000
ENDCHAR

STARTCHAR a9fa
ENCODING 43514
SWIDTH 960 0
DWIDTH 24 0
BBX 24 24 0 -6
BITMAP
000000
000000
007800
004400
004400
004400
004400
004400
004400
000000
000000
000000
000000
000000
000000
000000
000000
000000
000000
000000
000000
000000
000000
000000
ENDCHAR

STARTCHAR a9fb
ENCODING 43515
SWIDTH 960 0
DWIDTH 24 0
BBX 24 24 0 -6
BITMAP
000000
000000
000000
000000
000000
000000
000000
000000
000000
000000
000000
000000
000000
000000
001000
003000
001000
001000
001000
001000
001000
003800
000000
000000
ENDCHAR

STARTCHAR a9fc
ENCODING 43516
SWIDTH 960 0
DWIDTH 24 0
BBX 24 24 0 -6
BITMAP
000000
000000
000000
000000
000000
000000
000000
000000
000000
000000
000000
000000
000000
000000
000000
007800
000400
000400
003800
004000
004000
007C00
000000
000000
ENDCHAR

STARTCHAR a9fd
ENCODING 43517
SWIDTH 960 0
DWIDTH 24 0
BBX 24 24 0 -6
BITMAP
000000
000000
000000
000000
000000
000000
000000
000000
000000
000000
000000
000000
000000
000000
000000
007800
000400
000400
003800
000400
000400
007800
000000
000000
ENDCHAR

STARTCHAR a9fe
ENCODING 43518
SWIDTH 960 0
DWIDTH 24 0
BBX 24 24 0 -6
BITMAP
000000
000000
000000
000000
000000
000000
000000
000000
000000
000000
000000
000000
000000
000000
000000
000800
001800
002800
004800
007C00
000800
000800
000000
000000
ENDCHAR

STARTCHAR aaa1
ENCODING 43681
SWIDTH 960 0
DWIDTH 24 0
BBX 24 24 0 -6
BITMAP
000000
000000
000000
000000
000000
000000
000000
000000
006000
003000
002400
003E00
01E000
002000
003F00
006980
00A8C0
0130C0
0130C0
0270C0
038180
000700
000000
000000
ENDCHAR

STARTCHAR aaa2
ENCODING 43682
SWIDTH 960 0
DWIDTH 24 0
BBX 24 24 0 -6
BITMAP
000000
000000
00C000
006000
006000
006300
004700
065E00
03F800
004000
004000
004F80
0074E0
00C860
014830
035030
027030
06E030
07F060
073060
0001C0
000700
000000
000000
ENDCHAR

STARTCHAR aaa3
ENCODING 43683
SWIDTH 960 0
DWIDTH 24 0
BBX 24 24 0 -6
BITMAP
000000
000000
000000
000000
000000
000000
000000
000000
000000
000000
000000
000000
010000
018000
018300
0181C0
0180E0
019060
01B040
00E000
00E000
006000
000000
000000
ENDCHAR

STARTCHAR aaa4
ENCODING 43684
SWIDTH 960 0
DWIDTH 24 0
BBX 24 24 0 -6
BITMAP
000000
000000
000000
000000
000000
020000
030000
030000
030000
030000
030100
0600C0
060060
060060
060030
060030
061030
062000
022000
034000
01C000
00C000
000000
000000
ENDCHAR

STARTCHAR aaa5
ENCODING 43685
SWIDTH 960 0
DWIDTH 24 0
BBX 24 24 0 -6
BITMAP
000000
000000
000000
000000
000000
000000
006000
001800
001C00
003000
000000
000000
001E00
00E700
000300
000300
000300
000200
000600
000400
000800
001000
000000
000000
ENDCHAR

STARTCHAR aaa6
ENCODING 43686
SWIDTH 960 0
DWIDTH 24 0
BBX 24 24 0 -6
BITMAP
000000
000000
007000
001E00
001800
002000
000000
000F00
01F180
00C0C0
0000C0
0000C0
0000C0
0000C0
000180
000180
000100
000300
000200
000400
000800
001000
000000
000000
ENDCHAR

STARTCHAR aaa7
ENCODING 43687
SWIDTH 960 0
DWIDTH 24 0
BBX 24 24 0 -6
BITMAP
000000
000000
000000
000000
000000
000000
000000
000000
003000
000C00
001800
002000
000000
000300
00FE00
004C00
001800
003800
006C00
00C400
0187C0
0183C0
000000
000000
ENDCHAR

STARTCHAR aaa8
ENCODING 43688
SWIDTH 960 0
DWIDTH 24 0
BBX 24 24 0 -6
BITMAP
000000
000000
000000
000000
007C00
003800
002000
000000
000300
021F00
03E600
018C00
001800
001000
002000
006000
00F800
018C00
030400
060400
060670
0003F0
000000
000000
ENDCHAR

STARTCHAR aaa9
ENCODING 43689
SWIDTH 960 0
DWIDTH 24 0
BBX 24 24 0 -6
BITMAP
000000
000000
000000
000000
000000
000000
000000
000000
000000
006000
007000
003060
003E30
03F010
003000
0033C0
003C20
007020
03B420
013440
00F380
002000
000000
000000
ENDCHAR

STARTCHAR aaaa
ENCODING 43690
SWIDTH 960 0
DWIDTH 24 0
BBX 24 24 0 -6
BITMAP
000000
000000
000000
00C000
00E000
006000
006000
006660
007E30
0FF018
066018
006000
006000
006780
007840
006020
01E020
0E6020
0E6620
01E640
00E380
006000
000000
000000
ENDCHAR

STARTCHAR aaab
ENCODING 43691
SWIDTH 960 0
DWIDTH 24 0
BBX 24 24 0 -6
BITMAP
000000
000000
000000
000000
00C000
006000
006000
004000
004000
1CFC40
0FC630
008618
008618
018678
010C10
030C00
030C00
061800
069800
0C7800
0C3000
000000
000000
000000
ENDCHAR

STARTCHAR aaac
ENCODING 43692
SWIDTH 960 0
DWIDTH 24 0
BBX 24 24 0 -6
BITMAP
000000
000000
000020
000018
00C08C
006064
006030
004010
004000
1CFC40
0FC630
008618
008618
018678
010C10
030C00
030C00
061800
069800
0C7800
0C3000
000000
000000
000000
ENDCHAR

STARTCHAR aaad
ENCODING 43693
SWIDTH 960 0
DWIDTH 24 0
BBX 24 24 0 -6
BITMAP
000000
000000
000000
000000
018000
00C000
004000
002600
023800
01F000
0008C0
0009C0
060F00
01F400
000200
000200
00FB00
010700
020000
020000
023800
01F000
000000
000000
ENDCHAR

STARTCHAR aaae
ENCODING 43694
SWIDTH 960 0
DWIDTH 24 0
BBX 24 24 0 -6
BITMAP
000000
000000
000000
000020
018018
00C08C
004064
002630
023810
01F000
0008C0
0009C0
060F00
01F400
000200
000200
00FB00
010700
020000
020000
023800
01F000
000000
000000
ENDCHAR

STARTCHAR aaaf
ENCODING 43695
SWIDTH 960 0
DWIDTH 24 0
BBX 24 24 0 -6
BITMAP
000000
000000
003000
001800
001800
001000
003000
002000
004000
008000
010000
010000
010000
008000
004000
002000
002000
001000
001800
000800
000C00
000C00
000000
000000
ENDCHAR

STARTCHAR aab0
ENCODING 43696
SWIDTH 960 0
DWIDTH 24 0
BBX 24 24 0 -6
BITMAP
000000
000000
003000
001800
001800
001060
003030
002310
004180
008080
010000
010000
010000
008000
004000
002000
002000
001000
001800
000800
000C00
000C00
000000
000000
ENDCHAR

STARTCHAR aab1
ENCODING 43697
SWIDTH 960 0
DWIDTH 24 0
BBX 24 24 0 -6
BITMAP
000000
000000
000000
000300
000380
0C0180
060180
0601B0
0401F0
041FC0
080F80
080180
088180
090180
0B0180
0A0180
0E0180
0E0300
060300
060600
000C00
003000
000000
000000
ENDCHAR

STARTCHAR aab2
ENCODING 43698
SWIDTH 960 0
DWIDTH 24 0
BBX 24 24 0 -6
BITMAP
000000
000000
000018
00060C
000764
180330
0C0310
0C0360
0803E0
083F80
101F00
100300
110300
120300
160300
140300
1C0300
1C0600
0C0600
0C0C00
001800
006000
000000
000000
ENDCHAR

STARTCHAR aab3
ENCODING 43699
SWIDTH 960 0
DWIDTH 24 0
BBX 24 24 0 -6
BITMAP
000000
000000
000000
000000
000000
000000
030600
00FE00
003000
004000
008000
020000
040000
040000
080000
080000
080000
0401C0
061FE0
01FE00
000000
000000
000000
000000
ENDCHAR

STARTCHAR aab4
ENCODING 43700
SWIDTH 960 0
DWIDTH 24 0
BBX 24 24 0 -6
BITMAP
000000
000000
000070
000038
000188
0000E0
030660
00FE00
003000
004000
008000
020000
040000
040000
080000
080000
080000
0401C0
061FE0
01FE00
000000
000000
000000
000000
ENDCHAR

STARTCHAR aab5
ENCODING 43701
SWIDTH 960 0
DWIDTH 24 0
BBX 24 24 0 -6
BITMAP
000000
000000
000000
002000
002000
002000
001000
071300
03FC00
000800
000400
000600
000300
01F180
020FC0
040060
040000
040000
040000
020700
01FF00
000000
000000
000000
ENDCHAR

STARTCHAR aab6
ENCODING 43702
SWIDTH 960 0
DWIDTH 24 0
BBX 24 24 0 -6
BITMAP
000000
000000
000000
004030
004198
0040C8
002040
0E2600
07F800
001000
000800
000C00
000600
03E300
041F80
0800C0
080000
080000
080000
040E00
03FE00
000000
000000
000000
ENDCHAR

STARTCHAR aab7
ENCODING 43703
SWIDTH 960 0
DWIDTH 24 0
BBX 24 24 0 -6
BITMAP
000000
000000
000000
000000
018000
01C000
00C000
00C000
00C000
00C000
00C000
00C000
00C000
00C000
008000
008000
008000
008020
008040
008080
004300
003C00
000000
000000
ENDCHAR

STARTCHAR aab8
ENCODING 43704
SWIDTH 960 0
DWIDTH 24 0
BBX 24 24 0 -6
BITMAP
000000
000000
000000
000000
030000
038180
0180C0
018C40
018600
018200
018000
018000
018000
018000
010000
010000
010000
010040
010080
010100
008600
007800
000000
000000
ENDCHAR

STARTCHAR aab9
ENCODING 43705
SWIDTH 960 0
DWIDTH 24 0
BBX 24 24 0 -6
BITMAP
000000
000000
000800
000C00
000C00
000C00
000C00
1C3FF0
0FC838
000800
000800
007800
008C00
010C00
010C00
009C00
006800
000800
001000
001000
006000
018000
000000
000000
ENDCHAR

STARTCHAR aaba
ENCODING 43706
SWIDTH 960 0
DWIDTH 24 0
BBX 24 24 0 -6
BITMAP
000000
000000
001018
00198C
0018C4
001840
001800
387FE0
1F9070
001000
001000
00F000
011800
021800
021800
013800
00D000
001000
002000
002000
00C000
030000
000000
000000
ENDCHAR

STARTCHAR aabb
ENCODING 43707
SWIDTH 960 0
DWIDTH 24 0
BBX 24 24 0 -6
BITMAP
000000
000000
000000
000600
000700
000300
030300
038300
018300
018300
0183F8
19FE18
1F8200
018200
018200
011200
010E00
010400
010000
010000
008000
007FC0
000000
000000
ENDCHAR

STARTCHAR aabc
ENCODING 43708
SWIDTH 960 0
DWIDTH 24 0
BBX 24 24 0 -6
BITMAP
000000
000000
000000
000C30
000E18
0006C8
030660
038620
018600
018600
0187F0
19FC30
1F8400
018400
018400
012400
011C00
010800
010000
010000
008000
007F80
000000
000000
ENDCHAR

STARTCHAR aabd
ENCODING 43709
SWIDTH 960 0
DWIDTH 24 0
BBX 24 24 0 -6
BITMAP
000000
000000
000000
018C00
00FE00
000C00
001800
003000
004000
008000
010380
001FC0
04F800
0FC000
0E4000
008000
008000
008000
008000
004000
003E00
000E00
000000
000000
ENDCHAR

STARTCHAR aabe
ENCODING 43710
SWIDTH 960 0
DWIDTH 24 0
BBX 24 24 0 -6
BITMAP
000000
000000
000000
018C30
00FE18
000CC8
001860
003020
004000
008000
010380
001FC0
04F800
0FC000
0E4000
008000
008000
008000
008000
004000
003E00
000E00
000000
000000
ENDCHAR

STARTCHAR aabf
ENCODING 43711
SWIDTH 960 0
DWIDTH 24 0
BBX 24 24 0 -6
BITMAP
000000
000000
000000
00C000
00E000
006000
004000
004800
087D80
07F8E0
008070
008070
008080
018000
010000
010000
030800
030400
0607F0
0601E0
000000
000000
000000
000000
ENDCHAR

STARTCHAR aac0
ENCODING 43712
SWIDTH 960 0
DWIDTH 24 0
BBX 24 24 0 -6
BITMAP
000000
000000
000000
018018
01C00C
00C064
008030
009010
10FB00
0FF1C0
0100E0
0100E0
010100
030000
020000
020000
061000
060800
0C0FE0
0C07C0
000000
000000
000000
000000
ENDCHAR

STARTCHAR aac1
ENCODING 43713
SWIDTH 960 0
DWIDTH 24 0
BBX 24 24 0 -6
BITMAP
000000
000000
000000
00C000
00C000
006000
006600
007E00
07E000
006000
006000
00C000
00C000
00C780
00D9C0
00E0C0
00C0C0
0000C0
000180
000100
000600
001800
000000
000000
ENDCHAR

ENDFONT
